/* XPM */
static char *result[] = {
/* columns rows colors chars-per-pixel */
"64 64 203 2 ",
"   c #150E19",
".  c #1D1314",
"X  c #240E0F",
"o  c #300E0F",
"O  c #310F11",
"+  c #2C1417",
"@  c #361215",
"#  c #161E28",
"$  c #2E1C21",
"%  c #381F27",
"&  c #1A232C",
"*  c #1D2831",
"=  c #2A2426",
"-  c #342123",
";  c #362229",
":  c #382A2B",
">  c #232E35",
",  c #2B2E3B",
"<  c #323236",
"1  c #3E3736",
"2  c #3B3C3B",
"3  c #4D1518",
"4  c #55191C",
"5  c #6E1B1E",
"6  c #711B1F",
"7  c #4F1B21",
"8  c #5C1D21",
"9  c #581E24",
"0  c #6D1E24",
"q  c #721C23",
"w  c #482326",
"e  c #4E2D2D",
"r  c #582527",
"t  c #443136",
"y  c #543736",
"u  c #632225",
"i  c #65212C",
"p  c #6E242A",
"a  c #7B2426",
"s  c #772528",
"d  c #742629",
"f  c #7A2529",
"g  c #642A36",
"h  c #71363E",
"j  c #48423F",
"k  c #372A4D",
"l  c #243443",
"z  c #2C304F",
"x  c #2C3B4A",
"c  c #343947",
"v  c #392D52",
"b  c #3C3054",
"n  c #39345B",
"m  c #373A62",
"M  c #393B64",
"N  c #43385A",
"B  c #743A41",
"V  c #2A434D",
"C  c #34424E",
"Z  c #3B424D",
"A  c #2E4459",
"S  c #374757",
"D  c #344A67",
"F  c #39426C",
"G  c #385969",
"H  c #384A75",
"J  c #394C76",
"K  c #3A4E78",
"L  c #3A5775",
"P  c #395A75",
"I  c #3C547D",
"U  c #3D6772",
"Y  c #494341",
"T  c #474C53",
"R  c #414E5A",
"E  c #495557",
"W  c #5A5752",
"Q  c #644847",
"!  c #665954",
"~  c #6D5A55",
"^  c #715B57",
"/  c #6B635D",
"(  c #74635D",
")  c #4B4667",
"_  c #425C67",
"`  c #43547C",
"'  c #49696D",
"]  c #476479",
"[  c #716D68",
"{  c #76736C",
"}  c #76746F",
"|  c #79776E",
" . c #841F24",
".. c #882327",
"X. c #8E242B",
"o. c #83292E",
"O. c #92252B",
"+. c #92292D",
"@. c #882A37",
"#. c #832C3A",
"$. c #992B35",
"%. c #95363C",
"&. c #A2272C",
"*. c #AD262C",
"=. c #A32C35",
"-. c #AF2D33",
";. c #AE2F39",
":. c #B52D38",
">. c #B7313D",
",. c #B9313D",
"<. c #842E40",
"1. c #853746",
"2. c #983742",
"3. c #AA3444",
"4. c #AC3548",
"5. c #BD3442",
"6. c #BC374B",
"7. c #BE3A4B",
"8. c #C1374A",
"9. c #C93A4E",
"0. c #C63C53",
"q. c #CC3D53",
"w. c #D03E56",
"e. c #D23F5A",
"r. c #8B4755",
"t. c #B24655",
"y. c #8B526D",
"u. c #8A5370",
"i. c #86756F",
"p. c #C94558",
"a. c #D0415B",
"s. c #D65F75",
"d. c #87837E",
"f. c #3E5A82",
"g. c #3F6084",
"h. c #415E84",
"j. c #4E5F84",
"k. c #416384",
"l. c #436389",
"z. c #476B8B",
"x. c #456B8D",
"c. c #516587",
"v. c #48778B",
"b. c #456D91",
"n. c #467193",
"m. c #497495",
"M. c #4D7A96",
"N. c #497799",
"B. c #47789A",
"V. c #4B7B9B",
"C. c #577695",
"Z. c #4F8C8C",
"A. c #508D8E",
"S. c #4C8293",
"D. c #4E839F",
"F. c #51889A",
"G. c #52899C",
"H. c #4E84A1",
"J. c #4F8BA2",
"K. c #5086A2",
"L. c #538CA5",
"P. c #578DA6",
"I. c #5592A6",
"U. c #5A95A4",
"Y. c #5694AA",
"T. c #5995AC",
"R. c #579AAC",
"E. c #5899AD",
"W. c #5C9DB0",
"Q. c #648FA9",
"!. c #639BAE",
"~. c #649CB0",
"^. c #5EA4AF",
"/. c #5DA6B2",
"(. c #67A4B4",
"). c #73A8B9",
"_. c #63B4B7",
"`. c #66BCBB",
"'. c #8B8984",
"]. c #918E86",
"[. c #94938D",
"{. c #9D988E",
"}. c #979691",
"|. c #9D9B91",
" X c #ACA79B",
".X c #ADA99D",
"XX c #B2ACA0",
"oX c #B6B3A5",
"OX c #BBB6AA",
"+X c #BCB7AA",
"@X c #C0BDAF",
"#X c #C2BFB0",
"$X c #C5C3B9",
"%X c #D1CDBC",
"&X c #CBCAC3",
"*X c #D6D3C1",
"=X c #D5D4CA",
"-X c #D8D6CD",
";X c #DFDBC9",
":X c #E2DECC",
">X c #E5E1CE",
",X c #E8E6DD",
"<X c #F2F1E6",
/* pixels */
"<X<X<X<X<X<X<X<X<X<X<X<X<X<X<X<X<X<X<X<X<X<X<X<X<X<X<X<XXXXXXXXX<X<X<X<X<X<X<X<X<X<X<X<X<X<X<X<X<X<X<X<X<X<X<X<X<X<X<X<XXXXXXXXX",
"<X<X<X<X<X<X<X<X<X<X<X<X<X<X<X<X<X<X<X<X<X<X<X<X<X<X<X<XXXXXXXXX<X<X<X<X<X<X<X<X<X<X<X<X<X<X<X<X<X<X<X<X<X<X<X<X<X<X<X<XXXXXXXXX",
"<X<X<X<X<X<X<X<X<X<X<X<X<X<X<X<X<X<X<X<X<X<X<X<X<X<X<X<XXXXXXXXX<X<X<X<X<X<X<X<X<X<X<X<X<X<X<X<X<X<X<X<X<X<X<X<X<X<X<X<XXXXXXXXX",
"<X<X<X<X<X<X<X<X<X<X<X<X<X<X<X<X<X<X<X<X<X<X<X<X<X<X<X<XXXXXXXXX<X<X<X<X<X<X<X<X<X<X<X<X<X<X<X<X<X<X<X<X<X<X<X<X<X<X<X<XXXXXXXXX",
"<X<X<X<X>X>X>X>X>X>X>X>X>X>X>X>X>X>X>X>X>X>X>X>X;X;X-X-XXXXXXXXX<X<X<X<X:X>X>X>X>X>X>X>X>X>X>X>X>X>X>X>X>X>X>X>X-X-X-X-XXXXXXXXX",
"<X<X<X<X>X>X>X>X>X>X>X>X>X>X>X>X>X>X>X>X>X>X>X>X-X-X-X-XXX X1 = : j ,X<X>X>X>X>X>X>X>X>X>X>X>X>X>X>X>X>X>X>X>X>X-X-X-X-XXXXXXXXX",
"<X<X<X<X>X>X>X>X>X>X>X>X>X>X>X>X>X>X>X>X>X>X>X>X-X-X-X-X|.y a d d s Q =X>X>X>X>X>X>X>X>X>X>X>X>X>X>X>X>X>X>X>X>X-X-X-X-XXXXXXXXX",
"<X<X<X<X>X>X>X>X>X>X>X>X>X>X>X>X>X>X>X>X>X>X>X>X-X-X-X-X[ q 5.3.3.5.q ].>X>X>X>X>X>X>X>X>X>X>X>X>X>X>X>X>X>X>X>X-X-X-X-XXXXXXXXX",
"<X<X<X<X>X>X>X>X>X>X>X>X>X>X>X>X>X>X>X>X>X>X>X>X-X-X-X-X{ p :.a.q.:.r [.>X>X>X>X>X>X>X>X>X>X>X>X>X>X>X>X>X>X>X>X-X-X-X-XXXXXXXXX",
"<X<X<X<X>X>X>X>X>X>X>X>X>X>X>X>X>X>X>X>X>X>X>X>X-X-X-X-XXX/ f *.&.r d.<X>X>X>X>X>X>X>X>X>X>X>X>X>X>X>X>X>X>X>X>X-X-X-X-XXXXXXXXX",
"<X<X<X<X>X>X>X>X>X>X>X>X>X>X>X>X>X>X>X>X>X>X>X>X-X-X-X-XXXXX- 5.=.- <X<X>X>X>X>X>X>X>X>X>X>X>X>X>X>X>X>X>X>X>X>X-X-X-X-XXXXXXXXX",
"<X<X<X<X>X>X>X>X>X>X>X>X>X:X;X;X:X>X>X>X>X>X>X>X-X-X-X-XXXXX; a.,.+ <X<X>X>X>X>X>X>X>X>X>X>X>X>X;X;X:X>X>X>X>X>X-X-X-X-XXXXXXXXX",
"<X<X<X<X>X>X>X>X>X>X>X>X*X! X O ~ %X>X>X>X>X>X>X-X-X-X-XXXXX; a.,.- <X<X>X>X>X>X>X>X>X>X>X>X%X^ o X ! %X>X>X>X>X-X-X-X-XXXXXXXXX",
"<X<X<X<X>X>X>X>X>X>X>X:X! 9 s 5.%.i.:X>X>X>X>X>X-X-X-X-X].W . i 0 . | $X>X>X>X>X>X>X>X>X>X:X~ +.5.s 8 ! >X>X>X>X-X-X-X-XXXXXXXXX",
"<X<X<X<X>X>X>X>X>X>X>X:XX s 4.e.a.e %X>X>X>X>X>X*X|.2 2 E A.A.A.Z.Z.A._ 2 2 |.>X>X>X>X>X>X>X@ w.a.>.f : ;X>X>X>X-X-X-X-XXXXXXXXX",
"<X<X<X<X>X>X>X>X>X>X>X;XO ,.q.a.p.u +X>X>X>X>X$XV U ^.^.U.B.B.B.B.B.V.G.Y.I.G > $X>X>X>X>XoX8 9.a.w.t.e ;X>X>X>X-X-X-X-XXXXXXXXX",
"<X<X<X<X>X>X>X>X>X>X>X:X^  .,.8.8.9.B  X>X%X| ' Y.L.B.N.N.H.J.K.K.K.K.K.V.B.H.K._ | %X>X.Xh 9.8.5.t.%.( >X>X>X>X-X-X-X-XXXXXXXXX",
"<X<X<X<X>X>X>X>X>X>X>X>X*X^ O 3 -.9.0.B oXE A.F.N.N.M.L.L.E.W.T.W.R.R.R.Y.L.D.B.S.] E OXB 9.9.:.p w ( %X>X>X>X>X-X-X-X-XXXXXXXXX",
"<X<X<X<X>X>X>X>X>X>X>X>X>X:X:X+Xe O.8.g & U.M.V.H.E.T.E.R.!.).W./.Y.E.E.E.E.T.T.V.B.K.* g 7.O.Q +X>X>X>X>X>X>X>X-X-X-X-XXXXXXXXX",
"<X<X<X<X>X>X>X>X>X>X>X>X>X>X>X>X Xe 7 n n.m.D.Y.E.R.E.T.W.(.~._.`.R.L.E.E.L.W.E.Y.D.B.L.U r y oX>X>X>X>X>X>X>X>X-X-X-X-XXXXXXXXX",
"<X<X<X<X>X>X>X>X>X>X>X>X>X>X>X>X>XoX& n.m.v.* > U.E.E.P.~.E.W.`.`.`.D.R.E.Y.R.I.* * g.B.P.* oX:X>X>X>X>X>X>X>X>X-X-X-X-XXXXXXXXX",
"<X<X<X<X>X>X>X>X>X>X>X>X>X>X>X>X%XT I V.v.= p $.: G.!.Q.P.E.E.I./.J.R.R.E.E.F.: $.p $ U N.G.E %X>X>X>X>X>X>X>X>X-X-X-X-XXXXXXXXX",
"<X<X<X<X>X>X>X>X>X>X>X>X>X>X:X:X| D B.K.* p f 7.=.S ).E.T.E.R.Y.H.E.R.R.Y.L.V $.7.o.p * b.H.z.{ >X>X>X>X>X>X>X>X-X-X-X-XXXXXXXXX",
"<X<X<X<X>X>X>X>X>X>X>X>X>X>X:X@XZ k.V.L.* O.-.p.4.l !.E.E.E.E.E.R.E.E.R.V.H.V 4.q.;.+.* m.N.P R +X>X>X>X>X>X>X>X-X-X-X-XXXXXXXXX",
"<X<X<X<X-X-X-X-X-X-X-X-X-X-X-X> k.B.Y.K.n.;  .O.9.<.S M.E.E.R.T.^.Y.E.E.S.P <.0.X.X.% M.D.m.K h.> -X-X-X-X-X-X-X-X-X-X-XXXXXXXXX",
"<X<X<X<X-X-X-X-X-X-X-X-X-X-X}.x N.H.R.I.V.x.l l 0 0.#.c I.E.Y.I.`.H.E.I.x #.9.s l l l.K.`.k.H f.C [.-X-X-X-X-X-X-X-X-X-XXXXXXXXX",
"<X<X<X<X-X-X-X-X-X-X-X-X-X-X2 I N.Y.E.E.I.B.N.B.S q u.C.I.R.R.I.L.L.R.I.C.u.d S N.B.B.m.v.f.H K x.2 -X-X-X-X-X-X-X-X-X-XXXXXXXXX",
"<X<X<X<X-X-X-X-X-X-X-X-X-X-X2 m.N.D.E.E.E.E.T.H.l.x V.T.R.R.R.R.E.R.R.R.E.M.R C.K.E.V.B.m.m.H K x.2 -X-X-X-X-X-X-X-X-X-XXXXXXXXX",
"XXXXXXXXXXXX|.[ { XXXXXXXX].x N.N./._.E.R.L.E.E.K.V.Y.E.E.E.I.G G U.E.E.W.W.Q.V.W.E.E.n.b.B.H K f.C ].XXXXXXXX[ [ {.XXXXXXXXXXXX",
"XXXXXXXXXX.Xy 5 u / XXXXXXW z B.B.K.I.E.E.I.E.R.R.Y.E.E.R.R.S r.1.Z G.!.~.(.Y.P.E.E.E.n.b.B.K H K P W XXXXXX/ d 6 y  XXXXXXXXXXX",
"XXXXXXXXXXt f 5.:.a - - - . L m.K.!.!.R.E.E.E.R.R.E.E.E.I.C t.;.-.2.N G.(.T.Y.E.E.E.T.B.N.f.H K K P . - ; - a :.,.a 1 .XXXXXXXXX",
"XXXXXXXXXX= d 3.w.*.8.w.e.d L B.L.(.~.Y.L.E.E.Y.L.E.E.E.G r.;.&.*.o.r.] Y.W.R.P.E.E.V.B.b.I K K K P i e.p.5.*.a.3.s = XXXXXXXXXX",
"<X<X<X<X<X< d 3.a.&.$.>.:.0 L V.~.~.Y.I.^.R.E.H.V.E.E.Y.D <.-.*.+.o.#.D I./.`.D.E.E.V.H.R.f.K H H P 8 5.>.=.&.a.;.d : <X.XXXXXXX",
"<X<X<X<X<XY s ,.;.u - - - . ` P.P.R.Y.Y._.K.R.Y.E.E.E.Y.b.c %...o.%.c n.Y.I.D.Y.T.W.V.n._.k.K K H P . $ - - r ;.5.f j <XXXXXXXXX",
"<X<X<X<X<X,XQ 5 r d.<X<X<X'.] V.D.T.E.L.D.E.R.E.R.R.E.T.V.V.c h #.c M.V.Y.R.R.R.Y.L.V.b.I K J K K P } <X<X<X'.7 5 Q ,X<XXXXXXXXX",
"<X<X<X<X<X<X=X[.[.<X<X<X<X&XE M.N.L.R.R.R.E.E.E.E.E.E.E.T.V.n.D A m.V.Y.E.E.R.R.Y.K.N.N.f.K M ` c.S $X<X<X<X<X}.[.=X<X<XXXXXXXXX",
"<X<X<X<X>X>X>X>X>X>X>X>X>X>Xc m.N.L.T.E.T.K.T.E.S.x V.T.E.Y.Y.E.Y.Y.Y.W.Y.M.C S.Y.N.N.N.h.J n j.C.2 >X>X>X>X>X>X-X-X-X-XXXXXXXXX",
"<X<X<X<X>X>X>X>X>X>X>X>X>X>Xj m.N.b.I.^.W.T.E.E._ #.y.M.E.E.L.E.E.E.E.R.V.y.#._ K.N.N.b.J n ) c.x.2 >X>X>X>X>X>X-X-X-X-XXXXXXXXX",
"<X<X<X<X>X>X>X>X>X>X>X>X>X>X|.S B.f._./.Y.G.V V <.q.q C T.W.L.R.E.E.E.T.C 0 0.@.l l x.f.) ) ) I A |.>X>X>X>X>X>X-X-X-X-XXXXXXXXX",
"<X<X<X<X>X>X>X>X>X>X>X>X>X>X:X> n.m.k.b.K.: $.4.0.q T J n.R.R.Y.V.Y.E.W.S._ d 0.4.$.; ` ) N H k.> :X>X>X>X>X>X>X-X-X-X-XXXXXXXXX",
"<X<X<X<X>X>X>X>X>X>X>X>X>X>X>X#XR x.N.N.* +.6.q.O., c.j.L.E.R.I.H.Y.E.E.Y.K.l X.q.6.$.< ) b I R +X>X>X>X>X>X>X>X-X-X-X-XXXXXXXXX",
"<X<X<X<X>X>X>X>X>X>X>X>X>X>X>X>X| G N.N.& d f ;.%.c h.b.L.`.L.W.E.E.Y.J.B.N.l X.-.o.p   v F P { >X>X>X>X>X>X>X>X-X-X-X-XXXXXXXXX",
"<X<X<X<X>X>X>X>X>X>X>X>X>X>X>X>X&XE z.N.l.+ p 2.t F l.N.V.K.Y.T.H.H.E.H.N.B.x.; O.u + k M h.T %X>X>X>X>X>X>X>X>X-X-X-X-XXXXXXXXX",
"<X<X<X<X>X>X>X>X>X>X>X>X>X>X>X>X>XoX# k.x.v.Z , H K b.B.N.N.N.N.f.L.`./.f.m.x.F     k n h.& oX:X>X>X>X>X>X>X>X>X-X-X-X-XXXXXXXXX",
"<X<X<X<X>X>X>X>X>X>X>X>X>X:X:X:X XB g D l.l.C.m.l.b.m.B.b.b.B.B.b.m./.K.I f.F b v k m k.D g B  X>X>X>X>X>X>X>X>X-X-X-X-XXXXXXXXX",
"<X<X<X<X>X>X>X>X>X>X>X>X>X:X:X@XB 0.7.r & k.K I f.I b.m.m.m.N.B.l.K f.f.J F v v b n k.& w 7.9.h oX:X>X>X>X>X>X>X-X-X-X-XXXXXXXXX",
"<X<X<X<X>X>X>X>X>X>X>X>X*X^ @ r 0.0.O.e XXE L I K H K J K K K H J J H F v v n n I G T OXe O.0.9.i @ ~ %X>X>X>X>X-X-X-X-XXXXXXXXX",
"<X<X<X<X>X>X>X>X>X>X>X:X^ +.q.w.,.-.e .X>X%X{ T h.f.J J K J H K K J F M M F f.h.R | %X>X.Xe -.8.q.p.+.~ :X>X>X>X-X-X-X-XXXXXXXXX",
"<X<X<X<X>X>X>X>X>X>X>X;Xo ,.a.a.8.3 oX>X>X>X>X@X> A z.z.h.K K J K K ` C.z.z.A > @X>X>X>X>XOX3 5.e.e.5.O ;X:X>X>X-X-X-X-XXXXXXXXX",
"<X<X<X<X>X>X>X>X>X>X>X>XX s ;.a.,.o :X:X>X>X>X>X*X|.2 2 S P L L P P c._ t 2 |.:X>X>X>X>X>X:Xo ,.w.3.a + :X>X>X>X-X-X-X-XXXXXXXXX",
"<X<X<X<X>X>X>X>X>X>X>X>X! 8 s >...~ :X>X>X>X>X>X-X-X-X-X].W . 0 4 : ].&X>X>X>X>X>X>X>X>X>X:X^ ..,.f 9 ! :X>X>X>X-X-X-X-XXXXXXXXX",
"<X<X<X<X>X>X>X>X>X>X>X>X%X/ + O ^ %X>X>X>X>X>X>X-X-X-X-XXXXX; a.p.t <X<X>X>X>X>X>X>X>X>X>X>X%X^ O X ! %X>X>X>X>X-X-X-X-XXXXXXXXX",
"<X<X<X<X>X>X>X>X>X>X>X>X>X>X>X;X:X>X>X>X>X>X>X>X-X-X-X-XXXXXt s.,.- <X<X>X>X>X>X>X>X>X>X>X>X>X:X:X:X:X>X>X>X>X>X-X-X-X-XXXXXXXXX",
"<X<X<X<X>X>X>X>X>X>X>X>X>X>X>X>X>X>X>X>X>X>X>X>X-X-X-X-XXXXX: p.;.- <X<X>X>X>X>X>X>X>X>X>X>X>X>X>X:X>X>X>X>X>X>X-X-X-X-XXXXXXXXX",
"<X<X<X<X>X>X>X>X>X>X>X>X>X>X>X>X>X>X>X>X>X>X>X>X-X-X-X-XXX/ a *.*.u d.<X>X>X>X>X>X>X>X>X>X>X>X>X>X>X>X>X>X>X>X>X-X-X-X-XXXXXXXXX",
"<X<X<X<X>X>X>X>X>X>X>X>X>X>X>X>X>X>X>X>X>X>X>X>X-X-X-X-X{ 0 :.w.p.;.4 }.>X>X>X>X>X>X>X>X>X>X>X>X>X>X>X>X>X>X>X>X-X-X-X-XXXXXXXXX",
"<X<X<X<X-X-X-X-X-X-X-X-X-X-X-X-X-X-X-X-X-X-X-X-X-X-X-X-X[ 6 ,.3.;.7.5 [.=X-X-X-X-X-X-X-X-X-X-X-X-X-X-X-X-X-X-X-X-X-X-X-XXXXXXXXX",
"<X<X<X<X-X-X-X-X-X-X-X-X-X-X-X-X-X-X-X-X-X-X-X-X-X-X-X-X|.j d d d f Q =X-X-X-X-X-X-X-X-X-X-X-X-X-X-X-X-X-X-X-X-X-X-X-X-XXXXXXXXX",
"<X<X<X<X-X-X-X-X-X-X-X-X-X-X-X-X-X-X-X-X-X-X-X-X-X-X-X-XXXXX1 = : j ,X<X-X-X-X-X-X-X-X-X-X-X-X-X-X-X-X-X-X-X-X-X-X-X-X-XXXXXXXXX",
"<X<X<X<X-X-X-X-X-X-X-X-X-X-X-X-X-X-X-X-X-X-X-X-X-X-X-X;XXXXXXXXX<X<X<X<X-X-X-X-X-X-X-X-X-X-X-X-X-X-X-X-X-X-X-X-X-X-X-X-XXXXXXXXX",
"XXXXXXXXXXXXXXXXXXXXXXXXXXXXXXXXXXXXXXXXXXXXXXXXXXXXXXXXXXXXXXXXXXXXXXXXXXXXXXXXXXXXXXXXXXXXXXXXXXXXXXXXXXXXXXXXXXXXXXXXXXXXXXXX",
"XXXXXXXXXXXXXXXXXXXXXXXXXXXXXXXXXXXXXXXXXXXXXXXXXXXXXXXXXXXXXXXXXXXXXXXXXXXXXXXXXXXXXXXXXXXXXXXXXXXXXXXXXXXXXXXXXXXXXXXXXXXXXXXX",
"XXXXXXXXXXXXXXXXXXXXXXXXXXXXXXXXXXXXXXXXXXXXXXXXXXXXXXXXXXXXXXXXXXXXXXXXXXXXXXXXXXXXXXXXXXXXXXXXXXXXXXXXXXXXXXXXXXXXXXXXXXXXXXXX",
"XXXXXXXXXXXXXXXXXXXXXXXXXXXXXXXXXXXXXXXXXXXXXXXXXXXXXXXXXXXXXXXXXXXXXXXXXXXXXXXXXXXXXXXXXXXXXXXXXXXXXXXXXXXXXXXXXXXXXXXXXXXXXXXX"
};
