/* XPM */
static char *result[] = {
/* columns rows colors chars-per-pixel */
"64 64 4 1 ",
"  c #B2ACA0",
". c #D8D6CD",
"X c #E5E1CE",
"o c #F2F1E6",
/* pixels */
"oooooooooooooooooooooooooooo    oooooooooooooooooooooooooooo    ",
"oooooooooooooooooooooooooooo    oooooooooooooooooooooooooooo    ",
"oooooooooooooooooooooooooooo    oooooooooooooooooooooooooooo    ",
"oooooooooooooooooooooooooooo    oooooooooooooooooooooooooooo    ",
"ooooXXXXXXXXXXXXXXXXXXXX....    ooooXXXXXXXXXXXXXXXXXXXX....    ",
"ooooXXXXXXXXXXXXXXXXXXXX....    ooooXXXXXXXXXXXXXXXXXXXX....    ",
"ooooXXXXXXXXXXXXXXXXXXXX....    ooooXXXXXXXXXXXXXXXXXXXX....    ",
"ooooXXXXXXXXXXXXXXXXXXXX....    ooooXXXXXXXXXXXXXXXXXXXX....    ",
"ooooXXXXXXXXXXXXXXXXXXXX....    ooooXXXXXXXXXXXXXXXXXXXX....    ",
"ooooXXXXXXXXXXXXXXXXXXXX....    ooooXXXXXXXXXXXXXXXXXXXX....    ",
"ooooXXXXXXXXXXXXXXXXXXXX....    ooooXXXXXXXXXXXXXXXXXXXX....    ",
"ooooXXXXXXXXXXXXXXXXXXXX....    ooooXXXXXXXXXXXXXXXXXXXX....    ",
"ooooXXXXXXXXXXXXXXXXXXXX....    ooooXXXXXXXXXXXXXXXXXXXX....    ",
"ooooXXXXXXXXXXXXXXXXXXXX....    ooooXXXXXXXXXXXXXXXXXXXX....    ",
"ooooXXXXXXXXXXXXXXXXXXXX....    ooooXXXXXXXXXXXXXXXXXXXX....    ",
"ooooXXXXXXXXXXXXXXXXXXXX....    ooooXXXXXXXXXXXXXXXXXXXX....    ",
"ooooXXXXXXXXXXXXXXXXXXXX....    ooooXXXXXXXXXXXXXXXXXXXX....    ",
"ooooXXXXXXXXXXXXXXXXXXXX....    ooooXXXXXXXXXXXXXXXXXXXX....    ",
"ooooXXXXXXXXXXXXXXXXXXXX....    ooooXXXXXXXXXXXXXXXXXXXX....    ",
"ooooXXXXXXXXXXXXXXXXXXXX....    ooooXXXXXXXXXXXXXXXXXXXX....    ",
"ooooXXXXXXXXXXXXXXXXXXXX....    ooooXXXXXXXXXXXXXXXXXXXX....    ",
"ooooXXXXXXXXXXXXXXXXXXXX....    ooooXXXXXXXXXXXXXXXXXXXX....    ",
"ooooXXXXXXXXXXXXXXXXXXXX....    ooooXXXXXXXXXXXXXXXXXXXX....    ",
"ooooXXXXXXXXXXXXXXXXXXXX....    ooooXXXXXXXXXXXXXXXXXXXX....    ",
"oooo........................    oooo........................    ",
"oooo........................    oooo........................    ",
"oooo........................    oooo........................    ",
"oooo........................    oooo........................    ",
"                                                                ",
"                                                                ",
"                                                                ",
"                                                                ",
"oooooooooooooooooooooooooooo    oooooooooooooooooooooooooooo    ",
"oooooooooooooooooooooooooooo    oooooooooooooooooooooooooooo    ",
"oooooooooooooooooooooooooooo    oooooooooooooooooooooooooooo    ",
"oooooooooooooooooooooooooooo    oooooooooooooooooooooooooooo    ",
"ooooXXXXXXXXXXXXXXXXXXXX....    ooooXXXXXXXXXXXXXXXXXXXX....    ",
"ooooXXXXXXXXXXXXXXXXXXXX....    ooooXXXXXXXXXXXXXXXXXXXX....    ",
"ooooXXXXXXXXXXXXXXXXXXXX....    ooooXXXXXXXXXXXXXXXXXXXX....    ",
"ooooXXXXXXXXXXXXXXXXXXXX....    ooooXXXXXXXXXXXXXXXXXXXX....    ",
"ooooXXXXXXXXXXXXXXXXXXXX....    ooooXXXXXXXXXXXXXXXXXXXX....    ",
"ooooXXXXXXXXXXXXXXXXXXXX....    ooooXXXXXXXXXXXXXXXXXXXX....    ",
"ooooXXXXXXXXXXXXXXXXXXXX....    ooooXXXXXXXXXXXXXXXXXXXX....    ",
"ooooXXXXXXXXXXXXXXXXXXXX....    ooooXXXXXXXXXXXXXXXXXXXX....    ",
"ooooXXXXXXXXXXXXXXXXXXXX....    ooooXXXXXXXXXXXXXXXXXXXX....    ",
"ooooXXXXXXXXXXXXXXXXXXXX....    ooooXXXXXXXXXXXXXXXXXXXX....    ",
"ooooXXXXXXXXXXXXXXXXXXXX....    ooooXXXXXXXXXXXXXXXXXXXX....    ",
"ooooXXXXXXXXXXXXXXXXXXXX....    ooooXXXXXXXXXXXXXXXXXXXX....    ",
"ooooXXXXXXXXXXXXXXXXXXXX....    ooooXXXXXXXXXXXXXXXXXXXX....    ",
"ooooXXXXXXXXXXXXXXXXXXXX....    ooooXXXXXXXXXXXXXXXXXXXX....    ",
"ooooXXXXXXXXXXXXXXXXXXXX....    ooooXXXXXXXXXXXXXXXXXXXX....    ",
"ooooXXXXXXXXXXXXXXXXXXXX....    ooooXXXXXXXXXXXXXXXXXXXX....    ",
"ooooXXXXXXXXXXXXXXXXXXXX....    ooooXXXXXXXXXXXXXXXXXXXX....    ",
"ooooXXXXXXXXXXXXXXXXXXXX....    ooooXXXXXXXXXXXXXXXXXXXX....    ",
"ooooXXXXXXXXXXXXXXXXXXXX....    ooooXXXXXXXXXXXXXXXXXXXX....    ",
"ooooXXXXXXXXXXXXXXXXXXXX....    ooooXXXXXXXXXXXXXXXXXXXX....    ",
"oooo........................    oooo........................    ",
"oooo........................    oooo........................    ",
"oooo........................    oooo........................    ",
"oooo........................    oooo........................    ",
"                                                                ",
"                                                                ",
"                                                                ",
"                                                                "
};
