/* XPM */
static char *result[] = {
/* columns rows colors chars-per-pixel */
"64 64 208 2 ",
"   c #060606",
".  c #100E0B",
"X  c #13110D",
"o  c #131413",
"O  c #191A19",
"+  c #201915",
"@  c #1E211F",
"#  c #21211F",
"$  c #232220",
"%  c #292927",
"&  c #2F2E2B",
"*  c #302F2B",
"=  c #32312E",
"-  c #2A2E31",
";  c #2D3133",
":  c #323534",
">  c #3D3C37",
",  c #33393A",
"<  c #383B3B",
"1  c #772200",
"2  c #7B2A0A",
"3  c #7E3516",
"4  c #4E3427",
"5  c #583E32",
"6  c #683B29",
"7  c #42413D",
"8  c #5B4133",
"9  c #5D453A",
"0  c #6A4837",
"q  c #3F4442",
"w  c #424445",
"e  c #444847",
"r  c #434B4A",
"t  c #4D4F4C",
"y  c #4C514E",
"u  c #54534D",
"i  c #4F5654",
"p  c #525756",
"a  c #5D5B54",
"s  c #6B5446",
"d  c #66655C",
"f  c #566767",
"g  c #526B66",
"h  c #5B7673",
"j  c #656863",
"k  c #716F66",
"l  c #77756B",
"z  c #637474",
"x  c #66797A",
"c  c #6D7B7B",
"v  c #7E7C71",
"b  c #853312",
"n  c #853718",
"m  c #853A1A",
"M  c #8B3D1E",
"N  c #8C3F20",
"B  c #8D411F",
"V  c #874426",
"C  c #934926",
"Z  c #984927",
"A  c #954D2D",
"S  c #9E512F",
"D  c #944F31",
"F  c #88543D",
"G  c #94563B",
"H  c #9A5738",
"J  c #A35532",
"K  c #AB5F3E",
"L  c #9D5D41",
"P  c #A15D40",
"I  c #86614C",
"U  c #A46141",
"Y  c #AB6746",
"T  c #AD6D4E",
"R  c #B86B47",
"E  c #BC6C4A",
"W  c #BF704E",
"Q  c #A86F54",
"!  c #AD7254",
"~  c #B37455",
"^  c #BE7554",
"/  c #B67759",
"(  c #BD7B5C",
")  c #847D74",
"_  c #BA7E62",
"`  c #C0734E",
"'  c #CA744C",
"]  c #C37552",
"[  c #C87852",
"{  c #C37D5B",
"}  c #C77C58",
"|  c #D97D52",
" . c #61837D",
".. c #69847D",
"X. c #83847C",
"o. c #918A7E",
"O. c #BE8162",
"+. c #AF8A74",
"@. c #B48C73",
"#. c #AE927E",
"$. c #C7815F",
"%. c #CD825D",
"&. c #D3835C",
"*. c #FE834A",
"=. c #E38559",
"-. c #ED8C5E",
";. c #F28555",
":. c #FC8B56",
">. c #C48363",
",. c #CA8564",
"<. c #CD8866",
"1. c #C5876A",
"2. c #CB8B6B",
"3. c #D38661",
"4. c #D18964",
"5. c #DA8A64",
"6. c #D28C6A",
"7. c #DA8E69",
"8. c #C89268",
"9. c #C89578",
"0. c #D69575",
"q. c #E18C62",
"w. c #EA8D62",
"e. c #E38F68",
"r. c #EC9066",
"t. c #E1916C",
"y. c #EA9C76",
"u. c #D9A279",
"i. c #59908E",
"p. c #599896",
"a. c #668987",
"s. c #778A89",
"d. c #64908D",
"f. c #698A90",
"g. c #699996",
"h. c #69929D",
"j. c #7B979B",
"k. c #6E99A3",
"l. c #779BA3",
"z. c #64A3A1",
"x. c #6EAAA7",
"c. c #77A5A6",
"v. c #7CAEB5",
"b. c #7BB6B8",
"n. c #7FC6C2",
"m. c #79DFE2",
"M. c #76E8EA",
"N. c #7CECED",
"B. c #6EEEF1",
"V. c #6CF1F4",
"C. c #73F0F3",
"Z. c #8F8E86",
"A. c #8F9488",
"S. c #96958A",
"D. c #989A93",
"F. c #A79688",
"G. c #A99788",
"H. c #AB9C8D",
"J. c #B89A86",
"K. c #A49E93",
"L. c #97A096",
"P. c #AFA699",
"I. c #B8A697",
"U. c #B1AA9E",
"Y. c #ABB29E",
"T. c #82A2A5",
"R. c #85A5AA",
"E. c #85A8A8",
"W. c #8DA9AC",
"Q. c #86AFB3",
"!. c #8CAEB0",
"~. c #8CB2B4",
"^. c #87B9B9",
"/. c #8BBBBC",
"(. c #91B9B0",
"). c #B2ACA0",
"_. c #B4B4AC",
"`. c #C49C85",
"'. c #C6A692",
"]. c #F6BA86",
"[. c #8AC1BF",
"{. c #FFC582",
"}. c #FCCF9A",
"|. c #86C5C5",
" X c #8BC3C3",
".X c #88C8C9",
"XX c #8BCCCC",
"oX c #90CCCB",
"OX c #8FD0CF",
"+X c #85D2D2",
"@X c #8BD4D4",
"#X c #8FD8D6",
"$X c #8BDCDA",
"%X c #91DBD8",
"&X c #8FE0DE",
"*X c #85E4E3",
"=X c #8DE5E3",
"-X c #89EBEA",
";X c #8BF1F1",
":X c #CDCCC3",
">X c #DFD1C3",
",X c #D6D6CC",
"<X c #D8D6CD",
"1X c #E5E1CE",
"2X c #E9E6DB",
"3X c #EEECE1",
"4X c #F0EEE2",
"5X c #F2F1E6",
/* pixels */
"5X5X5X5X5X5X5X5X5X5X5X5X5X5X5X5X5X5X5X5X5X5X5X5X5X5X5X5XP.S.S.S.:X:X:X>X>X>X>X>X3X5X5X5X5X5X5X5X5X5X5X5X5X5X5X5X5X5X5X5XY.).).).",
"5X5X5X5X5X5X5X5X5X5X5X5X5X5X5X5X5X5X5X5X5X5X5X5X5X5X4X<XZ.o o o O O + 6 N M N M '.3X5X5X5X5X5X5X5X5X5X5X5X5X5X5X5X5X5X5XI.).).).",
"5X5X5X5X5X5X5X5X5X5X5X5X5X5X5X5X5X5X5X5X5X5X5X5X3X1X_.o O B.B.B.N.C.V A { D r.} Y I.4X5X5X5X5X5X5X5X5X5X5X5X5X5X5X5X5X5X).).).).",
"5X5X5X5X5X5X5X5X5X5X5X5X5X5X5X5X5X5X5X4X5X5X4X2X_.= : C.B.M.k.h.k.2 M :.{ S r.<.U H '.4X5X5X5X5X5X5X5X5X5X5X5X5X5X5X5X5X).).).).",
"5X5X5X5X1X1X1X1X1X1X1X1X1X1X1X1X1X1X1X1X1X1XA.= , N.N.l.h.k.B.h.1 2 :.{.] A w.{ U =.^ @.1X1X1X1X1X1X1X1X1X1X1X1X<X<X<X<X).).).).",
"5X5X5X5X1X1X1X1X1X1X1X1X1X1X1X1X1X1X1X1X..> r -X-XM.l.l.f..     1 *.{.Z ] A r.{ U q.7.I ..1X1X1X1X1X1X1X1X1X1X1X<X<X<X<X).).).).",
"5X5X5X5X1X1X1X1X1X1X1X1X1X1X1X1X1X1X1X..a #XT.R.c.c.Q.M.O o - - 2 *.].Z ] A r.{ U q.q.Y.c.k 1X1X1X1X1X1X1X1X1X1X<X<X<X<X).).).).",
"5X5X5X5X1X1X1X1X1X1X1X1X1X1X1X1X1X1X) g @XXX=XQ.R.j.: , - - - 2 :.*.{.C ] D r.{ U q.7.^ [.x.k 1X1X1X1X1X1X1X1X1X<X<X<X<X).).).).",
"5X5X5X5X1X1X1X1X1X1X1X1X1X1X1X1X1Xl h .X!.!.XXn.w < - - - - - 1 *.:.].Z ^ A w.$.U q.7.! A.@Xv.k 1X1X1X1X1X1X1X1X<X<X<X<X).).).).",
"5X5X5X5X1X1X1X1X1X1X1X1X1X1X1X1Xl  . X~.E.W.j.r ; ; - - - - - 1 *.].6.B ^ A w.$.U =.7.~ Z.~.XXb.k 1X1X1X1X1X1X1X<X<X<X<X).).).).",
"5X5X5X5X1X1X1X1X1X1X1X1X1X1X1Xl a.[.#X=X#Xj.t ; - - - - - - 6 *.| {.` M ^ A w.$.U q.$.^ >.(.-Xd.d 1X1X1X1X1X1X1X<X<X<X<X).).).).",
"5X5X5X4X1X1X1X1X1X1X1X1X1X1X1Xd d.OX~.[.T.t = & - - - - - - b *.*.{.] M ^ A w.$.U q.^ W %.D.b.[.a.k 1X1X1X1X1X1X<X<X<X<X).).).).",
"5X5X5X5X1X1X1X1X1X1X1X1X1X1Xl a./.~.R.T.s.w - - - - - - - ; b *.*.{.` B W A w.$.U q.W R &.A.g.~.[.d.l 1X1X1X1X1X<X<X<X<X).).).).",
"5X5X5X5X1X1X1X1X1X1X1X1X1X1Xd g.oXW.W.j.p : - - - - - - : 8 | | y.u.%.B ^ A w.$.U q.^ ^ 8.O.S.W.oXg.a 1X1X1X1X1X<X<X<X<X).).).).",
"5X5X5X5X1X1X1X1X1X1X1X1X1X) a.^.#X%XXXs.e - - - - - - - = b *.| {.W R m ] A w.$.U q.^ R 8.~ L.&XOX[.a.v 1X1X1X1X<X<X<X<X).).).).",
"5X5X5X5X1X1X1X1X1X1X1X1X1X7 b.oX/.|.E.p < - - - - - - - = b *.*.{.$.R B ^ A w.$.U =.W R <.~ A.oX[.[.x.a 1X1X1X1X<X<X<X<X).).).).",
"5X5X5X5X1X1X1X1X1X1X1X1X1X7 n..Xh.h.s.w - - - - - - - - ; n *.-.}.` R M ^ A w.$.U e.W W 4./ s c E.[.x.a 1X1X1X1X<X<X<X<XU.).).).",
"5X5X5X5X1X1X1X1X1X1X1X1Xo...[.^.E.c j y q w w w w q q w w b *.-.0./ / m ^ A w.$.U &.^ R 4./ 8 y E.[.c.a 1X1X1X1X<X<X<X<XU.).).).",
"5X5X5X5X1X1X1X1X1X1X1X1X> z.&X@X@X .y - - - - - - - - - < b | ' &.4.&.B ~ C w.$.K q.` W 6.~ 5 h #X&Xz.> 1X1X1X1X<X<X<X<X).).).).",
"5X5X5X5X1X1X1X1X1X1X1X1X> z.&X#X$X .t - - - - - - - - - < b *.C y.t.I.2.%.%.4.O.H q.` W 4./ 5 a.[.OXz.> 1X1X1X1X<X<X<X<X).).).).",
"5X5X5X5X1X1X1X1X1X1X1X1X< z.|.h.h.p t - - - - - - - - - > b *.R e.2.J.0.5.J.2.%.H $.T %.6.~ 8 z g.Q.z.> 1X1X1X1X<X<X<X<X).).).).",
"5X5X5X5X1X1X1X1X1X1X1X1X> z.|.h.h.i t - - - - - - - - - > b *.*.8.O.1.1.,.L.9.`.8.$.$.&.1.T 8 z h.Q.z.> 1X1X1X1X<X<X<X<X).).).).",
"5X5X5X5X1X1X1X1X1X1X1X1X> z.@X|.|.h t - - - - - - - - - , b *.*.{.T O.O.( $.O.P.9.7.9.9.( { I s.Q. Xz.> 1X1X1X1X<X<X<X<X).).).).",
"5X5X5X5X1X1X1X1X1X1X1X1X> z.=X*X*Xd.y - - - - - - - - & < b *.*.{.E T m T O.^ ( O.{ K.J.0.0.{ A.+X#Xz.> 1X1X1X1X<X<X<X<X).).).).",
"5X5X5X5X<X<X<X<X<X<X<X<X< k.n.h.h.i r - - - - - - - - - , b *.*.{.E ` M -.P Y L G G / / K.F./ ) h.v.k.> <X<X<X<X<X<X<X<X).).).).",
"5X5X5X5X<X<X<X<X<X<X<X<X, z.n.k.h.i t - - - - - - - - - > b *.*.{.E ` M -.S w.~ D P L L ~ / Q X.h.v.z.: <X<X<X<X<X<X<X<X).).).).",
"5X5X5X5X<X<X<X<X<X<X<X<X> g.XXv.v.f t - - - - - - - - - > b *.*.{.E ` M w.S w.{ P 5.{ G L P 9 z l.^.z.> <X<X<X<X<X<X<X<X).).).).",
"5X5X5X5X<X<X<X<X<X<X<X<X: z.-XC.M.h.r - - - - - - - - - > b *.| {.E { m w.S e.{ P 5.,.Q } } 5 f.M.&Xz.> <X<X<X<X<X<X<X<X).).).).",
"U.).).).).).).).).).).).* p.b.k.h.w q - - - - - - - - - < b *.*.].E = n | Z | } G | { U [ [ 4 f h.l.p.* ).).).).).).).).).).).).",
").).).).).).).).).).).).* p.b.h.k.r q - - - - - - - - - < b *.*.{.. f.o | S | } G | ( U [ [ 4 f h.c.p.* ).).).).).).).).).).).).",
").).).).).).).).).).).).* p.b.h.h.w q - - - - - - - - - < b | *.{.. f.o | Z | } H | { P [ ] 4 f h.c.p.* ).).).).).).).).).).).).",
").).).).).).).).).).).).* p.b.h.h.w w - - - - - - - - - < b *.*.{.. f.O -.S | { H &.( P [ ] 4 i.C.m.p.* ).).).).).).).).).).).).",
"5X5X5X5X5X5X5X5X5X5X5X5X7 z.;XB.V.x.y - - - - - - - - - > b *.| {.E + n w.J w.,.U t.2.~ 5.3.9 x h.~.x.7 5X5X5X5X5X5X5X5X).).).).",
"5X5X5X5X5X5X5X5X5X5X5X5X7 x.XXk.k.p u - - - - - - - - - > b *.*.{.E O 3 -.J r.,.Y e.6.~ 5.3.9 x h.~.z.7 5X5X5X5X5X5X5X5X).).).).",
"5X5X5X5X5X5X5X5X5X5X5X5X7 z.XXh.k.p i - - - - - - - - - < b *.*.{.E + n r.J r.,.U e.6.~ 5.&.9 x k.~.x.< 5X5X5X5X5X5X5X5X).).).).",
"5X5X5X5X5X5X5X5X5X5X5X5X< x..Xh.k.p i - - - - - - - - & > b *.*.{.E + n -.J r.,.Y e.2.~ 4.3.9 g.M.-Xz.q 5X5X5X5X5X5X5X5X).).).).",
"5X5X5X5X1X1X1X1X1X1X1X1X> z.-XN.C.h.t - - - - - - - - - < b *.*.].` O 3 -.S w.{ U q.<.T &.&.8 z l.~.z.> 1X1X1X1X<X<X<X<X).).).).",
"5X5X5X5X1X1X1X1X1X1X1X1X< z.@Xb.v.f y - - - - - - - - - < b *.*.{.E + 3 -.J r.} U q.<.T &.&.8 z k.Q.z.> 1X1X1X1X<X<X<X<X).).).).",
"5X5X5X5X1X1X1X1X1X1X1X1X< z.|.h.h.i t - - - - - - - - - < b *.*.{.9 s.9 w.S w.{ U q.<.T &.&.8 z h.Q.k.> 1X1X1X1X<X<X<X<X).).).).",
"5X5X5X5X1X1X1X1X1X1X1X1X4 z.|.h.h.p t - - - - - - - - - < b *.*.{.X l.% -.J w.,.U q.<.T &.&.8 z h.Q.z., 1X1X1X1X<X<X<X<X).).).).",
"5X5X5X5X1X1X1X1X1X1X1X1X> z.=X*X*Xd.t - - - - - - - - - , b *.*.{._ j F -.S w.$.P q.<.T &.&.8 a.+X%Xz.> 1X1X1X1X<X<X<X<X).).).).",
"5X5X5X5X1X1X1X1X1X1X1X1X> z.#X|.|.h t - - - - - - - - - , b *.*.{.E _ m -.S w.$.U q.4.T &.&.8  .Q. Xz.> 1X1X1X1X<X<X<X<X).).).).",
"5X5X5X5X1X1X1X1X1X1X1X1X> z.|.h.h.i t - - - - - - - - - < b *.*.{.R W M -.S w.{ U q.<.T &.&.8 c h.Q.z.> 1X1X1X1X<X<X<X<X).).).).",
"5X5X5X5X1X1X1X1X1X1X1X1X> z.|.h.h.i t - - - - - - - - - < b *.*.{.R ^ M -.J w.,.U q.<.T ~ &.Q ..h.Q.z.> 1X1X1X1X<X<X<X<X).).).).",
"5X5X5X5X1X1X1X1X1X1X1X1X> z.=X$X$X .t - - - - - - - - - > b *.| {.E ` M w.S w.>.U q.<.P ^ 6.$.S. XOXz.> 1X1X1X1X<X<X<X<X).).).).",
"5X5X5X5X1X1X1X1X1X1X1X1X> z.$X@X+X .t & - - - - - - - - > b *.*.{.E ` M -.S w.>.Y { <.$.#.J.O.D./.XXz.> 1X1X1X1X<X<X<X<X).).).).",
"5X5X5X5X1X1X1X1X1X1X1X1X> z.|.h.h.i t ; - - - - - - - - < b *.*.{.E ` M } Z } 4.%._ J.`.J.#.! o.h.Q.z.> 1X1X1X1X<X<X<X<X).).).).",
"5X5X5X5X1X1X1X1X1X1X1X1X> z.|.h.h.i t - - - - - - - - & > b *.*.{._ ( M } } ( J.9.8.H.#.O.T 0 X.h.~.z.> 1X1X1X1X<X<X<X<X).).).).",
"5X5X5X5X1X1X1X1X1X1X1X1X> z..Xh.h.i t - - - - - - - - - < b *.| ].} } ~ 7.`.@.P.@.O.O.Y T P 8 z h.Q.z.> 1X1X1X1X,X,X<X<XU.).).).",
"5X5X5X5X1X1X1X1X1X1X1X1X> z.#X|.|.h t - - - - - - - - - < b *.V E y.u.{ R L.@.O.H ! ~ P &.^ 8 c Q. Xz.> 1X1X1X1X<X,X<X<X).).).).",
"5X5X5X5X1X1X1X1X1X1X1X1X> z.=X*X*Xd.t - - - - - - - - - , b *.V 7.1.G.O.{ O.^ ! H q.<.T &.&.8 a.+X%Xz.> 1X1X1X1X<X<X<X<X).).).).",
"5X5X5X5X1X1X1X1X1X1X1X1X> z.|.h.h.p t - - - - - - - - - > b *.J ( { $.B Y B w.$.U q.<.! &.%.8 z h.Q.z.> 1X1X1X1X<X<X<X<X).).).).",
"5X5X5X5X1X1X1X1X1X1X1X1X> z..Xh.h.i t - - - - ; - - - - < b *.*.T K P m -.S w.$.U q.4.T &.&.8 z h.Q.z.> 1X1X1X1X<X<X<X<X).).).).",
"5X5X5X5X1X1X1X1X1X1X1X1Xa g.j.a.a.a u w e e e e w w w w e b *.*.{.;.W M -.S w.$.U &.<.! &.&.8 z j.T.a.u 1X1X1X1X<X<X<X<X).).).).",
"5X5X5X5X1X1X1X1X1X1X1X1X1Xd $ $ $ $ $ $ # # $ $ $ @ $ $ % b *.*.{.;.W M -.S w.$.U q.<.T %.<.s # # # # a 1X1X1X1X<X<X<X<X).).).).",
"5X5X5X5X1X1X1X1X1X1X1X1X1X1X1X1X1X1X1X1X1X1X1X1X<X<X<X<XH.b *.*.{.;.W N -.S w.$.K q.4.! H @.1X1X1X1X1X1X1X1X1X1X<X<X<X<X).).).).",
"5X5X5X5X<X<X<X<X,X,X<X<X<X<X<X<X<X<X<X<X<X<X<X<X<X<X<X<XH.b *.*.{.;.W M -.S q.{ U 5.^ F +.<X<X<X<X<X<X<X<X<X<X<X<X<X<X<X).).).).",
"5X5X5X5X<X<X<X<X<X<X<X<X<X<X<X<X<X<X<X<X<X<X<X<X<X<X<X<XH.b *.*.{.;.W N -.S w.>.U G J.,X<X<X<X<X<X<X<X<X<X<X<X<X<X<X<X<X).).).).",
"5X5X5X5X<X<X<X<X<X<X<X<X<X<X<X<X<X<X<X<X<X<X<X<X<X<X<X<XH.b *.*.{.;.W M w.S w.P J.<X<X<X<X<X<X<X<X<X<X<X<X<X<X<X<X<X<X<X).).).).",
"5X5X5X5X<X<X<X<X<X<X<X<X<X<X<X<X<X<X<X<X<X<X<X<X<X<X<X<XH.b *.*.{.;.W M w.S N '.<X<X<X<X<X<X<X<X<X<X<X<X<X<X<X<X<X<X<X<X).).).).",
").).).).).).).).).).).).U.).).).).).).).).).).).U.U.).).H.b *.*.{.*.E n n F.P.I.).).).).).).).).).).).).).).).).).).).).).).).).",
").).).).).).).).).).).).U.).).).).).).).).).).).U.U.).).H.b *.*.{.| M F.K.).).).).).).).).).).).).).).).).).).).).).).).).).).).",
").).).).).).).).).).).).).).).).).).).).).).).).).).).).U.G.n M C n F.U.).).).).).).).).).).).).).).).).).).).).).).).).).).).).",
").).).).).).).).).).).).).).).).).).).).).).).).).).).).).I.G.G.G.G.).).).).).).).).).).).).).).).).).).).).).).).).).).).).).)."
};
