/* XPM */
static char *result[] = {
/* columns rows colors chars-per-pixel */
"64 64 181 2 ",
"   c #000000",
".  c #070709",
"X  c #020A0C",
"o  c #150C00",
"O  c #1D1206",
"+  c #040D13",
"@  c #0A0B11",
"#  c #02131C",
"$  c #0A1018",
"%  c #111117",
"&  c #131A17",
"*  c #241402",
"=  c #2D1A01",
"-  c #30210C",
";  c #161824",
":  c #1D1E29",
">  c #04222F",
",  c #1F202B",
"<  c #282724",
"1  c #242328",
"2  c #32322E",
"3  c #242636",
"4  c #2E3839",
"5  c #363530",
"6  c #3E3D3B",
"7  c #422506",
"8  c #482A03",
"9  c #522D06",
"0  c #543203",
"q  c #5E340A",
"w  c #5A3B08",
"e  c #46381A",
"r  c #583715",
"t  c #653907",
"y  c #663809",
"u  c #473824",
"i  c #4F3930",
"p  c #413B3E",
"a  c #5E420A",
"s  c #5E411A",
"d  c #76470D",
"f  c #41413C",
"g  c #55463C",
"h  c #6F4C2B",
"j  c #6C4B2D",
"k  c #785329",
"l  c #042B40",
"z  c #073447",
"x  c #063955",
"c  c #2A2F4A",
"v  c #27334F",
"b  c #383845",
"n  c #33364D",
"m  c #263653",
"M  c #2A3450",
"N  c #233A57",
"B  c #223D5B",
"V  c #343752",
"C  c #363952",
"Z  c #3B3D57",
"A  c #223E60",
"S  c #433D49",
"D  c #084058",
"F  c #394141",
"G  c #3F415A",
"H  c #084364",
"J  c #094A65",
"K  c #164F6F",
"L  c #095379",
"P  c #13567A",
"I  c #294F6D",
"U  c #325671",
"Y  c #1A6177",
"T  c #30636C",
"R  c #2B627A",
"E  c #52504A",
"W  c #454559",
"Q  c #68554A",
"!  c #506656",
"~  c #6C6842",
"^  c #72694A",
"/  c #7C7145",
"(  c #65625B",
")  c #474861",
"_  c #4D4D66",
"`  c #595A64",
"'  c #5F6270",
"]  c #6F6D68",
"[  c #746D62",
"{  c #737167",
"}  c #77756E",
"|  c #7C7B73",
" . c #757479",
".. c #85490C",
"X. c #884C0A",
"o. c #8B5206",
"O. c #8E510D",
"+. c #935506",
"@. c #975806",
"#. c #93520B",
"$. c #935C1B",
"%. c #9E6A14",
"&. c #AB6407",
"*. c #B86B07",
"=. c #BB6D09",
"-. c #A56917",
";. c #AB7519",
":. c #B37412",
">. c #B77A14",
",. c #95622C",
"<. c #8D6E30",
"1. c #8D7035",
"2. c #A27022",
"3. c #C07008",
"4. c #C67A0C",
"5. c #CA7F0E",
"6. c #807D73",
"7. c #62836E",
"8. c #AB903B",
"9. c #CC820F",
"0. c #C78715",
"q. c #D38D13",
"w. c #D89417",
"e. c #DC9A19",
"r. c #87847A",
"t. c #85837C",
"y. c #0C5D82",
"u. c #0B5C89",
"i. c #175A87",
"p. c #0D6185",
"a. c #0C658D",
"s. c #0A6798",
"d. c #166C90",
"f. c #187799",
"g. c #2B6A89",
"h. c #2A728E",
"j. c #33708E",
"k. c #2A7293",
"l. c #0D70A7",
"z. c #0C73AB",
"x. c #1B7DA4",
"c. c #536C84",
"v. c #717582",
"b. c #1984A9",
"n. c #1988B6",
"m. c #2687A5",
"M. c #4B8D8F",
"N. c #568493",
"B. c #6394A3",
"V. c #1C98C8",
"C. c #229EC3",
"Z. c #23A2C7",
"A. c #25ABD3",
"S. c #29AED1",
"D. c #2BB5DB",
"F. c #2CB9DD",
"G. c #2CBCE3",
"H. c #2EC1E7",
"J. c #888787",
"K. c #929084",
"L. c #9C978D",
"P. c #9A988B",
"I. c #9C9993",
"U. c #A3A193",
"Y. c #B0AD9E",
"T. c #999AA0",
"R. c #B2ACA0",
"E. c #B3B0A3",
"W. c #B3B1AA",
"Q. c #BDB9AA",
"!. c #BEBCB4",
"~. c #C4C1B2",
"^. c #CBC8B7",
"/. c #CACBC7",
"(. c #D1CEC0",
"). c #D7D4C3",
"_. c #D5D4CA",
"`. c #D8D6CD",
"'. c #DADBD4",
"]. c #E5E1CE",
"[. c #F2F1E6",
/* pixels */
"[.[.[.[.[.[.[.[.[.[.[.[.[.[.[.[.[.[.[.[.[.[.[.[.[.[.[.[.R.R.R.R.[.[.[.[.[.[.[.[.[.[.[.[.[.[.[.[.[.[.[.[.[.[.[.[.[.[.[.[.Y.R.R.R.",
"[.[.[.[.[.[.[.[.[.[.[.[.[.[.[.[.[.[.[.[.[.[.[.[.[.[.[.[.R.R.R.R.[.[.[.[.[.[.[.[.[.[.[.[.[.[.[.[.[.[.[.[.[.[.[.[.[.[.[.[.R.R.R.R.",
"[.[.[.[.[.[.[.[.[.[.[.[.[.[.[.[.[.[.[.[.[.[.[.[.[.[.[.[.R.R.R.R.[.[.[.[.[.[.[.[.[.[.[.[.[.[.[.[.[.[.[.[.[.[.[.[.[.[.[.[.R.R.R.R.",
"[.[.[.[.[.[.[.[.[.[.[.[.[.[.[.[.[.[.[.[.[.[.[.[.[.[.[.[.R.R.R.R.[.[.[.[.[.[.[.[.[.[.[.[.[.[.[.[.[.[.[.[.[.[.[.[.[.[.[.[.R.R.R.R.",
"[.[.[.[.].].].].].].].].].].].].].].].].].].].].`.`.`.`.R.R.R.R.[.[.[.[.].].].].].].].].].].].].].].].].].].].].`.`.`.`.R.R.R.R.",
"[.[.[.[.].].].].].].].].].].].].].].].].].].].].`.`.`.`.R.R.R.R.[.[.[.[.].].].].].].].].].].].].].].].].].].].].`.`.`.`.R.R.R.R.",
"[.[.[.[.].].].].].].].].].].].].].].].].].].].].`.`._.~.L.L.L.L._._._._.^.).].].].].].].].].].].].].].].].].].].`.`.`.`.R.R.R.R.",
"[.[.[.[.].].].].].].].].].].].].].].].].].].].].`.`.W.                    K.].].].].].].].].].].].].].].].].].].`.`.`.`.R.R.R.R.",
"[.[.[.[.].].].].].].].].].].].].].].].].].].].L.| | [ 0 r a a y a a a w 0 ^ r.r.r.].].].].].].].].].].].].].].].`.`.`.`.R.R.R.R.",
"[.[.[.[.].].].].].].].].].].].].].].].].].].].5     O =.9.e.e.e.e.e.e.q.=.8       ].].].].].].].].].].].].].].].`.`.`.`.R.R.R.R.",
"[.[.[.[.].].].].].].].].].].].].].].].].].K.6 d o.%.;.q.w.e.e.e.e.e.e.w.q.>.%.+.o.6 ] ].].].].].].].].].].].].].`.`.`.`.R.R.R.R.",
"[.[.[.[.].].].].].].].].].].].].].].].].].{   +.3.e.e.e.e.e.e.e.e.e.e.e.e.e.e.3.=.  f ].].].].].].].].].].].].].`.`.`.`.R.R.R.R.",
"[.[.[.[.].].].].].].].].].].].].].].].Y.  7 ..0.e.e.e.e.e.e.e.e.e.e.e.e.e.e.e.e.w.X.q   6.].].].].].].].].].].].`.`.`.`.R.R.R.R.",
"[.[.[.[.].].].].].].].].].].].].].].].Y.  7 ..0.e.e.e.e.e.e.e.e.e.e.e.e.e.e.e.e.e...q   6.].].].].].].].].].].].`.`.`.`.R.R.R.R.",
"[.[.[.[.].].].].].].].].].].].].].].].Y.  7 X.0.e.e.e.e.e.e.e.e.e.e.e.e.e.e.e.e.e...q   6.].].].].].].].].].].].`.`.`.`.Y.R.R.R.",
"[.[.[.[.].].].].].].].].].].].].].].].Y.  9 @.:.:.e.e.e.e.e.e.e.e.e.e.e.e.e.e.>.:.@.d   6.].].].].].].].].].].].`.`.`.`.R.R.R.R.",
"[.[.[.[.].].].].].].].].].].].].].].].Y.  t =.#...e.e.e.e.e.e.e.e.e.e.e.e.e.e.O...3.o.  | ].].].].].].].].].].].`.`.`.`.R.R.R.R.",
"[.[.[.[.].].].].].].].].].].].].].].2 u @.&.=.#...4.4.e.e.e.e.e.e.e.e.e.e.9.4.O...=.*.@.s 2 ~.].].].].].].].].].`.`.`.`.R.R.R.R.",
"[.[.[.[.].].].].].].].].].].].].].].  = 3.3.3.+...3.4.e.e.e.e.e.e.e.e.e.e.5.3.X...3.3.3.0   Q.].].].].].].].].].`.`.`.`.R.R.R.R.",
"[.[.[.[.].].].].].].].].].].].].].].  = 3.3.3.3.3.............................=.3.3.3.3.0   Q.].].].].].].].].].`.`.`.`.R.R.R.R.",
"[.[.[.[.].].].].].].].].].].].].].].  = 3.3.3.3.3.#.#.#.#.#.#.O.#.#.#.#.#.#.#.=.3.3.3.3.0   Q.].].].].].].].].].`.`.`.`.R.R.R.R.",
"[.[.[.[.].].].].].].].].].].].].].].  = 3.3.3.3.3.3.3.3.3.3.3.3.3.3.3.3.3.3.3.3.3.3.3.3.0   Q.].].].].].].].].].`.`.`.`.R.R.R.R.",
"[.[.[.[.].].].].].].].].].].].].].].  O h $.3.3.3.3.3.3.3.3.3.3.3.3.3.3.3.3.3.3.3.3.&.j -   Q.].].].].].].].].].`.`.`.`.R.R.R.R.",
"[.[.[.[.].].].].].].].].].].].].].].  @ c k 3.3.3.3.3.3.3.3.3.3.3.3.3.3.3.3.3.3.3.3.$.c ;   Q.].].].].].].].].].`.`.`.`.R.R.R.R.",
"[.[.[.[.`.`.`.`.`.`.`.`.`.`.`.`.`.`.  % ) S S -.3.3.3.3.3.3.3.3.3.3.3.3.3.3.3.3.=.S S ) :   W.`.`.`.`.`.`.`.`.`.`.`.`.`.R.R.R.R.",
"[.[.[.[.`.`.`.`.`.`.`.`.`.`.`.`.`.`.  % _ Z c $.3.3.3.3.3.3.3.3.3.3.3.3.3.3.3.3.=.c V _ 1   W.`.`.`.`.`.`.`.`.`.`.`.`.`.R.R.R.R.",
"[.[.[.[.`.`.`.`.`.`.`.`.`.`.`.`.`.`.  % _ _ _ V c c p 3.3.3.3.3.3.3.3.3.=.j c c c _ _ _ 3   W.`.`.`.`.`.`.`.`.`.`.`.`.`.R.R.R.R.",
"[.[.[.[.`.`.`.`.`.`.`.`.`.`.`.`.`.`.f b b W _ Z V n S $.$.$.$.$.$.$.$.$.$.g V V V _ ) b 6 6 !.`.`.`.`.`.`.`.`.`.`.`.`.`.R.R.R.R.",
"R.R.R.R.R.R.R.R.R.R.R.R.R.R.R.R.Y.R.R.r.  3 _ _ _ _ ) c c c M c M m v M c S _ _ _ _ b   ( R.R.R.R.R.R.R.R.R.R.R.R.R.R.R.R.R.R.R.",
"R.R.R.R.R.R.R.R.R.R.R.R.R.R.R.R.R.R.R.J.: : : : : : 3 S G G Z S G Z S S Z c : : , : : : ] R.R.R.R.R.R.R.R.R.R.R.R.R.R.R.R.R.R.R.",
"R.R.R.R.R.R.R.R.R.R.R.R.R.R.R.R.R.R.R.P.c ;         @ _ _ _ _ _ _ _ _ _ _ :         @ c  .R.Y.R.R.R.R.R.R.R.R.R.R.R.R.R.R.R.R.R.",
"R.R.R.R.R.R.R.R.R.R.R.R.R.R.R.R.R.R.C U D.S.S.S.S.s.y.. @ . . . . . . . . H s.A.S.S.S.D.j.C I.R.R.R.R.R.R.R.R.R.R.R.R.R.R.R.R.R.",
"[.[.[.[.[.[.[.[.[.[.[.[.[.[.[.[.[.[.c I G.H.H.H.H.z.s.X X X X + @ X + + X L z.G.H.H.G.G.g.c /.[.[.[.[.[.[.[.[.[.[.[.[.[.R.R.R.R.",
"[.[.[.[.[.[.[.[.[.[.[.[.[.[.[.[.[.[.c A z.V.H.H.H.H.G.H.H.H.H.H.G.G.H.H.G.H.G.G.H.H.A.z.K c /.[.[.[.[.[.[.[.[.[.[.[.[.[.R.R.R.R.",
"[.[.[.[.[.[.[.[.[.[.[.[.[.[.[.[.[.[.v.c.i.x.Z.D.H.H.H.H.H.H.H.H.G.H.H.H.H.H.H.H.H.Z.n.i.c.v.'.[.[.[.[.[.[.[.[.[.[.[.[.[.R.R.R.R.",
"[.[.[.[.[.[.[.[.[.[.[.[.[.[.[.[.[.[.[.~.c K p.A.H.H.H.H.H.H.H.H.H.H.H.H.H.H.H.H.H.p.K c T.[.[.[.[.[.[.[.[.[.[.[.[.[.[.[.R.R.R.R.",
"[.[.[.[.].].].].].].].].].].].].].].].E.% Y C.b.b.R k.H.H.H.H.H.H.H.H.H.H.m.g.x.b.Z.f.$ J.].].].].].].].].].].].`.`.`.`.R.R.R.R.",
"[.[.[.[.].].].].].].].].].].].].].].].R.  P H.f.p.c I H.H.G.H.H.H.H.H.G.H.g.c P p.H.m.  | ].].].].].].].].].].].`.`.`.`.R.R.R.R.",
"[.[.[.[.].].].].].].].].].].].].].].V U G.G.H.G.G.z.s.c M M M M V m M M c i.l.D.G.H.H.F.h.n ~.].].].].].].].].].`.`.`.`.R.R.R.R.",
"[.[.[.[.].].].].].].].].].].].].(.(.m U G.G.G.D.D.s.i.m m m m M m m m m m P s.A.D.H.H.H.k.m !.^.].].].].].].].].`.`.`.'.R.R.R.R.",
"[.[.[.[.].].].].].].].].].].].].) v l.n.H.V.z.a.p.  # z.z.z.z.z.z.z.z.z.z.l   P a.H.H.H.n.b.D c ].].].].].].].].`.`.`.`.R.R.R.R.",
"[.[.[.[.].].].].].].].].].].].].Q i 7.M.Z.f.L c.B.  # z.z.z.z.z.z.z.z.z.z.l   N.B.d.b.Z.M.7.g i ].].].].].].].].`.`.`.`.R.R.R.R.",
"[.[.[.[.].].].].].].].].].].].].,...e.8.z.x   Y.`.  # z.z.z.z.z.z.z.z.z.z.l   ^.].  > l.r.e.#.X.].].].].].].].].`.`.`.`.R.R.R.R.",
"[.[.[.[.].].].].].].].].].].].].u * 4.>.1.e   2 6 L u.z.z.z.z.z.z.z.z.z.z.u.L F 6   - <.2.9.8 * ].].].].].].].].`.`.`.`.R.R.R.R.",
"[.[.[.[.].].].].].].].].].].].].<   3.3.=.t       z.z.z.z.z.z.z.z.z.z.z.z.z.z.+     - 3.3.3.*   ].].].].].].].].`.`.`.`.R.R.R.R.",
"[.[.[.[.].].].].].].].].].].].].].].      { ].5   =.2.z.z.z.z.l.z.z.z.z.z./ 3.o . ].U.      Q.].].].].].].].].].`.`.`.`.R.R.R.R.",
"[.[.[.[.].].].].].].].].].].].].].].< < < { Q.4 + %.<.h.h.h.h.h.k.k.h.h.h.^ -.& # Q.K.< < < ~.].].].].].].].].].`.`.`.`.R.R.R.R.",
"[.[.[.[.].].].].].].].].].].].].].].].].].{   J p.p.T 3.3.3.=.=.3.3.3.3.3.! p.p.P   f ].].].].].].].].].].].].].`.`.`.`.R.R.R.R.",
"[.[.[.[.].].].].].].].].].].].].].].].].].{   J p.p.Y ~ ~ ~ k k k k ~ ~ ~ T p.p.y.  f ].].].].].].].].].].].].].`.`.`.`.R.R.R.R.",
"[.[.[.[.].].].].].].].].].].].].].].].].].{   J p.p.p.p.p.p.I c c M p.p.p.p.p.p.y.  f ].].].].].].].].].].].].].`.`.`.`.R.R.R.R.",
"[.[.[.[.].].].].].].].].].].].].].].].].].J.3 m N p.p.p.D # + @ @ @ # z p.p.p.B N 3 ` ].].].].].].].].].].].].].`.`.`.`.R.R.R.R.",
"[.[.[.[.].].].].].].].].].].].].].].].].].J.c c c p.p.p.z             > p.p.p.m c c ' ].].].].].].].].].].].].].`.`.`.`.R.R.R.R.",
"[.[.[.[.].].].].].].].].].].].].].].].].].}   y ....y   E R.R.R.[.[.[.L.  0 ......  f ].].].].].].].].].].].].].`.`.`.`.R.R.R.R.",
"[.[.[.[.].].].].].].].].].].].].].].].].].r.2 r y y q 2 ( R.R.R.[.[.[.W.5 r y y y 5 ( ].].].].].].].].].].].].].`.`.`.`.R.R.R.R.",
"[.[.[.[.].].].].].].].].].].].].].].].].].].].5     1 `.R.R.R.R.[.[.[.[.].E     . ].].].].].].].].].].].].].].].`.`.`.`.R.R.R.R.",
"[.[.[.[.].].].].].].].].].].].].].].].].].].].K.} } t._.R.R.R.R.[.[.[.[.].U.} } | ].].].].].].].].].].].].].].].`.`.`.`.R.R.R.R.",
"[.[.[.[.`.`.`.`.`.`.`.`.`.`.`.`.`.`.`.`.`.`.`.`.`.`.`.`.R.R.R.R.[.[.[.[.`.`.`.`.`.`.`.`.`.`.`.`.`.`.`.`.`.`.`.`.`.`.`.`.R.R.R.R.",
"[.[.[.[.`.`.`.`.`.`.`.`.`.`.`.`.`.`.`.`.`.`.`.`.`.`.`.`.R.R.R.R.[.[.[.[.`.`.`.`.`.`.`.`.`.`.`.`.`.`.`.`.`.`.`.`.`.`.`.`.R.R.R.R.",
"[.[.[.[.`.`.`.`.`.`.`.`.`.`.`.`.`.`.`.`.`.`.`.`.`.`.`.`.R.R.R.R.[.[.[.[.`.`.`.`.`.`.`.`.`.`.`.`.`.`.`.`.`.`.`.`.`.`.`.`.R.R.R.R.",
"[.[.[.[.`.`.`.`.`.`.`.`.`.`.`.`.`.`.`.`.`.`.`.`.`.`.`.`.R.R.R.R.[.[.[.[.`.`.`.`.`.`.`.`.`.`.`.`.`.`.`.`.`.`.`.`.`.`.`.`.R.R.R.R.",
"R.R.R.R.R.R.R.R.R.R.R.R.Y.R.R.R.R.R.R.R.R.R.R.R.R.R.R.R.R.R.R.R.R.R.R.R.R.R.R.R.R.R.R.R.R.R.R.R.R.R.R.R.R.R.R.R.R.R.R.R.R.R.R.R.",
"R.R.R.R.R.R.R.R.R.R.R.R.R.R.R.R.R.R.R.R.R.R.R.R.R.R.R.R.R.R.R.R.R.R.R.R.R.R.R.R.R.R.R.R.R.R.R.R.R.R.R.R.R.R.R.R.R.R.R.R.R.R.R.R.",
"R.R.R.R.R.R.R.R.R.R.R.R.R.R.R.R.R.R.R.R.R.R.R.R.R.R.R.R.R.R.R.R.R.R.R.R.R.R.R.R.R.R.R.R.R.R.R.R.R.R.R.R.R.R.R.R.R.R.R.R.R.R.R.R.",
"R.R.R.R.R.R.R.R.R.R.R.R.R.R.R.R.R.R.R.R.R.R.R.R.R.R.R.R.R.R.R.R.R.R.R.R.R.R.R.R.R.R.R.R.R.R.R.R.R.R.R.R.R.R.R.R.R.R.R.R.R.R.R.R."
};
