/* XPM */
static char *result[] = {
/* columns rows colors chars-per-pixel */
"64 64 197 2 ",
"   c #010101",
".  c #080807",
"X  c #02070A",
"o  c #030A0D",
"O  c gray5",
"+  c #160E05",
"@  c #1B1303",
"#  c #17120F",
"$  c #010C12",
"%  c #0A0B12",
"&  c #07141A",
"*  c #191512",
"=  c #181715",
"-  c #231602",
";  c #331E09",
":  c #2E2216",
">  c #141623",
",  c #181A26",
"<  c #1E1E28",
"1  c #1C222B",
"2  c #042330",
"3  c #1C2335",
"4  c #282724",
"5  c #34332F",
"6  c #262733",
"7  c #21253B",
"8  c #24303B",
"9  c #3B3A36",
"0  c #4A2B08",
"q  c #533104",
"w  c #503809",
"e  c #613804",
"r  c #633709",
"t  c #703D0A",
"y  c #5A3C28",
"u  c #41393F",
"i  c #4A3D3B",
"p  c #633F22",
"a  c #5E421D",
"s  c #72500D",
"d  c #794A15",
"f  c #484137",
"g  c #40403D",
"h  c #5A4130",
"j  c #61422E",
"k  c #6F4C2B",
"l  c #715032",
"z  c #063347",
"x  c #2A2F4A",
"c  c #27344F",
"v  c #2C324D",
"b  c #363645",
"n  c #38374A",
"m  c #283855",
"M  c #333651",
"N  c #3A3D57",
"B  c #3C3D55",
"V  c #0F424F",
"C  c #09445D",
"Z  c #1C435F",
"A  c #3B425B",
"S  c #1F466C",
"D  c #145465",
"F  c #0D4F74",
"G  c #3B4B67",
"H  c #365767",
"J  c #295B72",
"K  c #494344",
"L  c #474658",
"P  c #544F50",
"I  c #4D5E57",
"U  c #675448",
"Y  c #6F574D",
"T  c #6C6B47",
"R  c #696855",
"E  c #6B7154",
"W  c #474861",
"Q  c #4D4D66",
"!  c #575A6B",
"~  c #4D5570",
"^  c #445D7B",
"/  c #535F74",
"(  c #566076",
")  c #716F66",
"_  c #786B69",
"`  c #76746E",
"'  c #676A79",
"]  c #7A7B73",
"[  c #874E05",
"{  c #874A0B",
"}  c #85490C",
"|  c #945606",
" . c #92520B",
".. c #9C5809",
"X. c #935C1B",
"o. c #A05D06",
"O. c #A25C0A",
"+. c #8B610F",
"@. c #9C6116",
"#. c #98611F",
"$. c #AA6109",
"%. c #BA6C07",
"&. c #B26708",
"*. c #B56908",
"=. c #BC6D08",
"-. c #A86A19",
";. c #AD7018",
":. c #9A5F29",
">. c #9D6B26",
",. c #C07008",
"<. c #C97E0E",
"1. c #B17D50",
"2. c #8A7469",
"3. c #817F74",
"4. c #A27A65",
"5. c #CC8B16",
"6. c #D28E15",
"7. c #D69215",
"8. c #DC9A19",
"9. c #9A8454",
"0. c #B68356",
"q. c #A39C50",
"w. c #A9A554",
"e. c #858378",
"r. c #B99773",
"t. c #C39066",
"y. c #CF966F",
"u. c #D29D78",
"i. c #155C89",
"p. c #0D6185",
"a. c #0C658D",
"s. c #0C6792",
"d. c #0C6B9B",
"f. c #176B91",
"g. c #2A6281",
"h. c #297290",
"j. c #0C6EA1",
"k. c #0D71A7",
"l. c #0C73AB",
"z. c #1172A5",
"x. c #1776A7",
"c. c #227FB2",
"v. c #4E6786",
"b. c #4F6E8E",
"n. c #5F6F82",
"m. c #597894",
"M. c #69798D",
"N. c #1F859F",
"B. c #1882A6",
"V. c #1685B7",
"C. c #218DA9",
"Z. c #6C899F",
"A. c #5690AE",
"S. c #1992C3",
"D. c #29ADCF",
"F. c #22A5D1",
"G. c #2BB1D8",
"H. c #2AB6DD",
"J. c #2CBBE2",
"K. c #2EC1E7",
"L. c #8A8881",
"P. c #9A978B",
"I. c #8E9298",
"U. c #989796",
"Y. c #AE9F8C",
"T. c #BDA38D",
"R. c #A6A49A",
"E. c #AEAB9D",
"W. c #B6AA9A",
"Q. c #849DAC",
"!. c #89A2AF",
"~. c #A9A7A2",
"^. c #B2ACA0",
"/. c #B5B2A8",
"(. c #BEBBAB",
"). c #BFBDB5",
"_. c #DDAA89",
"`. c #E0AE8E",
"'. c #E7BA9B",
"]. c #C9BDAC",
"[. c #C3BAB1",
"{. c #E8BDA0",
"}. c #C5C3B6",
"|. c #CCC8B7",
" X c #EFC4A8",
".X c #F7CFB6",
"XX c #D8D5C7",
"oX c #D8D6CD",
"OX c #CFD0DB",
"+X c #E4CDC3",
"@X c #E1DDCB",
"#X c #E5E1CE",
"$X c #EAE5D6",
"%X c #ECEBE1",
"&X c #F0E4E3",
"*X c #F2F1E6",
"=X c #EEEEF7",
/* pixels */
"*X*X*X*X*X*X*X*X*X*X*X*X*X*X*X*X*X*X*X*X*X*X*X*X*X*X*X*X^.^.^.^.*X*X*X*X*X*X*X*X*X*X*X*X*X*X*X*X*X*X*X*X*X*X*X*X*X*X*X*XE.^.^.^.",
"*X*X*X*X*X*X*X*X*X*X*X*X*X*X*X*X*X*X*X*X*X*X*X*X*X*X*X*X^.^.^.^.*X*X*X*X*X*X*X*X*X*X*X*X*X*X*X*X*X*X*X*X*X*X*X*X*X*X*X*XE.E.^.^.",
"*X*X*X*X*X*X*X*X*X*X*X*X*X*X*X*X*X*X*X*X*X*X*X*X*X*X*X*X^.^.^.^.*X*X*X*X*X*X*X*X*X*X*X*X*X*X*X*X*X*X*X*X*X*X*X*X*X*X*X*X^.^.^.^.",
"*X*X*X*X*X*X*X*X*X*X*X*X*X*X*X*X*X*X*X*X*X*X*X*X*X*X*X*X^.^.^.^.*X*X*X*X*X*X*X*X*X*X*X*X*X*X*X*X*X*X*X*X*X*X*X*X*X*X*X*X^.^.^.^.",
"*X*X*X*X#X#X#X#X#X#X#X#X#X#X#X#X#X#X#X#X#X#X#X#XoXoXoXoXE.^.^.^.*X*X*X*X#X#X#X#X#X#X#X#X#X#X#X#X#X#X#X#X#X#X#X#XoXoXoXoX^.^.^.^.",
"*X*X*X*X#X#X#X#X#X#X#X#X#X#X#X#X#X#X#X#X#X#X#X#XoXoXoXoX^.^.^.E.*X*X*X*X#X#X#X#X#X#X#X#X#X#X#X#X#X#X#X#X#X#X#X#XoXoXoXoX^.^.^.^.",
"*X*X*X*X#X#X#X#X#X#X#X#X#X#X#X#X#X#X#X#X#X#X#X#XoXoXoXoX^.` . . . . . . . . . . ].#X#X#X#X#X#X#X#X#X#X#X#X#X#X#XoXoXoXoX^.^.^.^.",
"*X*X*X*X#X#X#X#X#X#X#X#X#X#X#X#X#X#X#X#X#X#X#X#XoXoX).).P.R @ @ @ @ @ @ @ @ @ @ R.|.#X#X#X#X#X#X#X#X#X#X#X#X#X#XoXoXoXoX^.^.^.^.",
"*X*X*X*X#X#X#X#X#X#X#X#X#X#X#X#X#X#X#X#X#X#X#X#XoXoX.     w 8.8.8.8.8.8.8.8.8.8.-   #X#X#X#X#X#X#X#X#X#X#X#X#X#XoXoXoXoX^.^.^.^.",
"*X*X*X*X#X#X#X#X#X#X#X#X#X#X#X#X#X#X#X#X#X#X[.U.L.] q q w +.8.8.8.8.8.8.8.8.8.8.s w e.P.#X#X#X#X#X#X#X#X#X#X#X#XoXoXoXoX^.^.^.^.",
"*X*X*X*X#X#X#X#X#X#X#X#X#X#X#X#X#X#X#X#X#X#XU.x %   %.,.8.8.8.8.8.8.8.8.8.8.8.8.8.8.  5 $X#X#X#X#X#X#X#X#X#X#X#XoXoXoXoX^.^.^.^.",
"*X*X*X*X#X#X#X#X#X#X#X#X#X#X#X#X#X#X#X9 K ( / ^ y r ,.<.8.8.8.8.8.8.8.8.8.8.8.8.8.8.| d f e.#X#X#X#X#X#X#X#X#X#XoXoXoXoX^.^.^.^.",
"*X*X*X*X#X#X#X#X#X#X#X#X#X#X#X#X#X#X#X  X x G b.l } =.,.8.8.8.8.8.8.8.8.8.8.8.8.8.8.,.|   ) #X#X#X#X#X#X#X#X#X#XoXoXoXoX^.^.^.^.",
"*X*X*X*X#X#X#X#X#X#X#X#X#X#X#X#X#X5   b.m.!.n.x :.=.,.,.,.<.8.8.8.8.8.8.8.8.8.8.<.,.,.|   ) #X#X#X#X#X#X#X#X#X#XoXoXoXoX^.^.^.^.",
"*X*X*X*X#X#X#X#X#X#X#X#X#X#X#X#X#X5   m.Z.Q.n.c #.,.,.,.,.<.7.6.5.5.5.5.5.5.5.5.,.,.,...- R (.XX#X#X#X#X#X#X#X#XoXoXoXoX^.^.^.^.",
"*X*X*X*X#X#X#X#X#X#X#X#X#X#X#X#X#X5   !.!.!.' x X.,.,.,.,.,.,...} } } } } } } } *.,.,.=.,.e   E.#X#X#X#X#X#X#X#XoXoXoXoX^.^.^.^.",
"*X*X*X*X#X#X#X#X#X#X#X#X#X#X#X#X#X5   !.Q.Z.( A X.,.,.,.,.%.O.O.O.O.O.O.O.O.O.O.O.O.,.,.,.e   E.#X#X#X#X#X#X#X#XoXoXoXoX^.^.^.^.",
"*X*X*X*X#X#X#X#X#X#X#X#X#X#X#X#X#X5   !.Q.b.^ Q :.,.,.,.,.O.{ O.,.,.=.,.=.,.,.,. .} ,.=.,.e   E.#X#X#X#X#X#X#X#XoXoXoXoX^.^.^.^.",
"*X*X*X*X#X#X#X#X#X#X#X#X#X#X#X#X#X(.^.1 8 b.b.v.L i %.,...O.&.%.,.,.,.,.,.,.,.,.*.&. ...,.e   E.#X#X#X#X#X#X#X#XoXoXoXoX^.^.^.^.",
"*X*X*X*X#X#X#X#X#X#X#X#X#X#X#X#X#X#X#X  = b.b.b.N x %.,.{ ..,.,.,.,.,.,.,.,.,.,.,.,.{  .,.e   E.#X#X#X#X#X#X#X#XoXoXoXoX^.^.^.^.",
"*X*X*X*X#X#X#X#X#X#X#X#X#X#X#X#X#X#X#X#X(.  x b.v.b.Q Q ,.,.,.,.,.,.,.,.,.,.,.,.,.,.}  .,.e   E.#X#X#X#X#X#X#X#XoXoXoXoX^.^.^.^.",
"*X*X*X*X#X#X#X#X#X#X#X#X#X#X#X#X#X#X#X#X(.  1 H ^ v.~ ~ -.-.,.,.,.,.,.,.,.,.,.,.,.,. . .#.0   E.#X#X#X#X#X#X#X#XoXoXoXoX^.^.^.^.",
"*X*X*X*X#X#X#X#X#X#X#X#X#X#X#X#X#X#X#X#X(.      7 x b.v.Q Y ,.,.,.,.,.,.,.,.=.=.,.,.,.@.v ,   E.#X#X#X#X#X#X#X#XoXoXoXoX^.^.^.^.",
"*X*X*X*X#X#X#X#X#X#X#X#X#X#X#X#X#X#X#X#X(.  4 l y y G W B P p X.O.=.,.,.,.,.,.*.X.k l j N <   E.#X#X#X#X#X#X#X#XoXoXoXoX^.^.^.^.",
"*X*X*X*XoXoXoXoXoXoXoXoXoXoXoXoXoXoXoXoX/.  h y.:.d x x x x x p } *.=.,.,.,.,.,.u x x M Q 6   R.oXoXoXoXoXoXoXoXoXoXoXoX^.^.^.^.",
"*X*X*X*XoXoXoXoXoXoXoXoXoXoXoXoXoXoXoXoX].t 1. X{.'.% = OX).4.Y b u u u u u u u L Q W W Q 6   R.oXoXoXoXoXoXoXoXoXoXoXoX^.^.^.^.",
"*X*X*X*XoXoXoXoXoXoXoXoXoXoXoXoXoXoXoXoX].{ 0..X.X.X. = =X+Xy.Y x x x x x x x x W Q Q Q Q 6   R.oXoXoXoXoXoXoXoXoXoXoXoX^.^.^.^.",
"*X*X*X*XoXoXoXoXoXoXoXoXoXoXoXoXoXoXoXoX].{ 0..X.X.Xx.c.=X+Xy.y.y.y.y.x M Q Q Q Q Q Q n   ) oXoXoXoXoXoXoXoXoXoXoXoXoXoX^.^.^.^.",
"^.^.^.^.^.^.^.^.^.^.^.^.^.^.^.^.^.^.^.^.Y.:.t..X.X.XA.A.&X+X_.u.y.4.4.M N Q Q Q Q Q b b 9 ) ^.^.^.^.^.^.^.^.^.^.^.^.^.^.^.^.^.^.",
"^.^.^.^.^.^.^.^.^.^.^.^.^.^.^.^.^.^.^.^.W.y.`..X.X.X.X.X.X.X.X_.y.n x Q Q Q Q Q Q Q   4 E.^.^.^.^.^.^.^.^.^.^.^.^.^.^.^.^.^.^.^.",
"^.^.^.^.^.^.^.^.^.^.^.^.^.^.^.^.^.^.^.^.W.T.r.1.u.`..X.X.X X`.4._ L L Q B < < < v M R 3.E.^.^.^.^.^.^.^.^.^.^.^.^.^.^.^.^.^.^.^.",
"^.^.^.^.^.^.^.^.^.^.^.^.^.^.^.^.^.^.^.^.^.^.4.{ 0.y..X.X.X'.y.2.Q Q Q Q n       x x ^.^.^.^.^.^.^.^.^.^.^.^.^.^.^.^.^.^.^.^.^.^.",
"*X*X*X*X*X*X*X*X*X*X*X*X*X*X*X*X*X*X*X*X*X*X$X#XP # * = * # # 7 v v M l.V.D.D.D.H.G.L ' *X*X*X*X*X*X*X*X*X*X*X*X*X*X*X*X^.^.^.^.",
"*X*X*X*X*X*X*X*X*X*X*X*X*X*X*X*X*X*X*X*X*X*X*X*XP O     X X o 3 v m m l.S.J.K.J.J.J.x ! *X*X*X*X*X*X*X*X*X*X*X*X*X*X*X*X^.^.^.^.",
"*X*X*X*X*X*X*X*X*X*X*X*X*X*X*X*X*X*X*X*X*X*X*X*X*X*X. $ l.V.K.K.J.K.K.K.K.J.K.K.x.l.x ! *X*X*X*X*X*X*X*X*X*X*X*X*X*X*X*X^.^.^.^.",
"*X*X*X*X*X*X*X*X*X*X*X*X*X*X*X*X*X*X*X*X*X*X*X*X(.P.; : i.x.F.D.F.J.K.K.K.J.J.F.f.i.M.I.*X*X*X*X*X*X*X*X*X*X*X*X*X*X*X*X^.^.^.^.",
"*X*X*X*X#X#X#X#X#X#X#X#X#X#X#X#X#X#X#X#X#X#X#X#Xg   d d v S l.l.l.J.K.K.K.K.S.l.m c @X#X#X#X#X#X#X#X#X#X#X#X#X#XoXoXoXoX^.^.^.^.",
"*X*X*X*X#X#X#X#X#X#X#X#X#X#X#X#X#X#X#X#X#X#X#X#Xg   $...i.i.s.F S J g.B.f.V S S I.~.#X#X#X#X#X#X#X#X#X#X#X#X#X#XoXoXoXoX^.^.^.^.",
"*X*X*X*X#X#X#X#X#X#X#X#X#X#X#X#X#X#X#X#X#X#X#X#Xg   %.;.l.d.p.Z v v v p.C   < v }.#X#X#X#X#X#X#X#X#X#X#X#X#X#X#XoXoXoXoX^.^.^.^.",
"*X*X*X*X#X#X#X#X#X#X#X#X#X#X#X#X#X#X#X#X#X#X#X#Xg   %.;.l.l.l.k.k.H.H.J.N.  ] XX#X#X#X#X#X#X#X#X#X#X#X#X#X#X#X#XoXoXoXoX^.^.^.^.",
"*X*X*X*X#X#X#X#X#X#X#X#X#X#X#X#X#X#X#X#X#X#XXX|.f + -.>.l.l.l.l.k.J.K.K.C.& ` |.#X#X#X#X#X#X#X#X#X#X#X#X#X#X#X#XoXoXoXoX^.^.^.^.",
"*X*X*X*X#X#X#X#X#X#X#X#X#X#X#X#X#X#X#X#X#X#Xe.  [ ,.z.l.l.l.l.s.p.H.K.K.K.K.D   (.#X#X#X#X#X#X#X#X#X#X#X#X#X#X#XoXoXoXoX^.^.^.^.",
"*X*X*X*X#X#X#X#X#X#X#X#X#X#X#X#X#X#X#X#X#X#Xe.  [ ,.z.l.l.l.l.s.p.H.K.K.K.K.D   (.#X#X#X#X#X#X#X#X#X#X#X#X#X#X#XoXoXoXoX^.^.^.^.",
"*X*X*X*X#X#X#X#X#X#X#X#X#X#X#X#X#X#X#X#X#X#X3.  [ ,.z.l.l.l.l.s.p.H.K.K.K.K.D   (.#X#X#X#X#X#X#X#X#X#X#X#X#X#X#XoXoXoXoX^.^.^.^.",
"*X*X*X*X#X#X#X#X#X#X#X#X#X#X#X#X#X#X#X#X#X#X3.  [ ,.z.l.l.l.l.k.j.R T w.q.9.f   (.#X#X#X#X#X#X#X#X#X#X#X#X#X#X#XoXoXoXoX^.^.^.^.",
"*X*X*X*X#X#X#X#X#X#X#X#X#X#X#X#X#X#X#X#X#X#X3.  [ =.z.l.l.l.l.l.l.d { 8.7.=.q   (.#X#X#X#X#X#X#X#X#X#X#X#X#X#X#XoXoXoXoX^.^.^.^.",
"*X*X*X*X#X#X#X#X#X#X#X#X#X#X#X#X#X#X#X#X#X#X3.      %.;.l.l.l.l.l.$   ,.,.%.q   (.#X#X#X#X#X#X#X#X#X#X#X#X#X#X#XoXoXoXoX^.^.^.^.",
"*X*X*X*X#X#X#X#X#X#X#X#X#X#X#X#X#X#X#X#X#X#X3.  $ $ &.-.h.h.h.h.h.= @ ..$.o.0 . (.#X#X#X#X#X#X#X#X#X#X#X#X#X#X#XoXoXoXoX^.^.^.^.",
"*X*X*X*X#X#X#X#X#X#X#X#X#X#X#X#X#X#X#X#X#X#X3.  C p.} { ,.,.,.,.,.{ d       , x }.#X#X#X#X#X#X#X#X#X#X#X#X#X#X#XoXoXoXoX^.^.^.^.",
"*X*X*X*X#X#X#X#X#X#X#X#X#X#X#X#X#X#X#X` e.r.U   C d.I I E E E T T y y > > > , , ).#X#X#X#X#X#X#X#X#X#X#X#X#X#X#XoXoXoXoX^.^.^.^.",
"*X*X*X*X#X#X#X#X#X#X#X#X#X#X#X#X#X#X#X  + } 0   F l.l.l.l.l.l.s.i.v x x x x >   (.#X#X#X#X#X#X#X#X#X#X#X#X#X#X#XoXoXoXoX^.^.^.^.",
"*X*X*X*X#X#X#X#X#X#X#X#X#X#X#X#X#X#X#X  @ *. .e J s.l.l.l.j.a.z & o % x 3 %     (.#X#X#X#X#X#X#X#X#X#X#X#X#X#X#XoXoXoXoX^.^.^.^.",
"*X*X*X*X#X#X#X#X#X#X#X#X#X#X#X#X#X#X#X  - ,.O.{ H F k.l.l.d.p.2       v 3       (.#X#X#X#X#X#X#X#X#X#X#X#X#X#X#XoXoXoXoX^.^.^.^.",
"*X*X*X*X#X#X#X#X#X#X#X#X#X#X#X#X#X#X#X#X(.  q =.=.=.          ) *X*X$X      3.#X#X#X#X#X#X#X#X#X#X#X#X#X#X#X#X#XoXoXoXoX^.^.^.^.",
"*X*X*X*X#X#X#X#X#X#X#X#X#X#X#X#X#X#X#X#X}.5 a | +.| 5 5 4 4 4 ] *X*X%X9 5 5 P.#X#X#X#X#X#X#X#X#X#X#X#X#X#X#X#X#XoXoXoXoX^.^.^.^.",
"*X*X*X*X#X#X#X#X#X#X#X#X#X#X#X#X#X#X#X#X#X#Xe.  .   XXXX^.^.^.^.*X*X*X*X#X#X#X#X#X#X#X#X#X#X#X#X#X#X#X#X#X#X#X#XoXoXoXoX^.^.^.^.",
"*X*X*X*XoXoXoXoXoXoXoXoXoXoXoXoXoXoXoXoXoXoX~.` ` ` oXoX^.^.^.^.*X*X*X*XoXoXoXoXoXoXoXoXoXoXoXoXoXoXoXoXoXoXoXoXoXoXoXoX^.^.^.^.",
"*X*X*X*XoXoXoXoXoXoXoXoXoXoXoXoXoXoXoXoXoXoXoXoXoXoXoXoX^.^.^.^.*X*X*X*XoXoXoXoXoXoXoXoXoXoXoXoXoXoXoXoXoXoXoXoXoXoXoXoX^.^.^.^.",
"*X*X*X*XoXoXoXoXoXoXoXoXoXoXoXoXoXoXoXoXoXoXoXoXoXoXoXoX^.^.^.^.*X*X*X*XoXoXoXoXoXoXoXoXoXoXoXoXoXoXoXoXoXoXoXoXoXoXoXoX^.^.^.^.",
"*X*X*X*XoXoXoXoXoXoXoXoXoXoXoXoXoXoXoXoXoXoXoXoXoXoXoXoX^.^.^.^.*X*X*X*XoXoXoXoXoXoXoXoXoXoXoXoXoXoXoXoXoXoXoXoXoXoXoXoX^.^.^.^.",
"^.^.^.^.^.^.^.^.^.^.^.^.^.^.^.^.^.^.^.^.^.^.^.^.~.^.^.^.^.^.^.^.^.^.^.^.^.^.^.^.^.^.^.^.^.^.^.^.^.^.^.^.^.^.^.^.^.^.^.^.^.^.^.^.",
"^.^.^.^.^.^.^.^.^.^.^.^.^.^.^.^.^.^.^.^.^.^.^.^.^.^.^.^.^.^.^.^.^.^.^.^.^.^.^.^.^.^.^.^.^.^.^.^.^.^.^.^.^.^.^.^.^.^.^.^.^.^.^.^.",
"^.^.^.^.^.^.^.^.^.^.^.^.^.^.^.^.^.^.^.^.^.^.^.^.^.^.^.^.^.^.^.^.^.^.^.^.^.^.^.^.^.^.^.^.^.^.^.^.^.^.^.^.^.^.^.^.^.^.^.^.^.^.^.^.",
"^.^.^.^.^.^.^.^.^.^.^.^.^.^.^.^.^.^.^.^.^.^.^.^.^.^.^.^.^.^.^.^.^.^.^.^.^.^.^.^.^.^.^.^.^.^.^.^.^.^.^.^.^.^.^.^.^.^.^.^.^.^.^.^."
};
