/* XPM */
static char *result[] = {
/* columns rows colors chars-per-pixel */
"64 64 202 2 ",
"   c #010101",
".  c #050609",
"X  c #010A0F",
"o  c #150C00",
"O  c #190E02",
"+  c #020F15",
"@  c #0A0C12",
"#  c #01121A",
"$  c #0B151D",
"%  c #141415",
"&  c #18181F",
"*  c #241403",
"=  c #2E1A02",
"-  c #351D04",
";  c #2E2005",
":  c #3C2208",
">  c #28201A",
",  c #382A19",
"<  c #041D27",
"1  c #1B1D2C",
"2  c #1C1F32",
"3  c #042333",
"4  c #142937",
"5  c #252422",
"6  c #262627",
"7  c #2B2B39",
"8  c #333230",
"9  c #383632",
"0  c #3E3D3D",
"q  c #422505",
"w  c #482A03",
"e  c #583206",
"r  c #4A3416",
"t  c #683A07",
"y  c #723E0A",
"u  c #513C24",
"i  c #483938",
"p  c #633F22",
"a  c #6D4A0B",
"s  c #774909",
"d  c #6F471D",
"f  c #43423C",
"g  c #554B34",
"h  c #584438",
"j  c #624631",
"k  c #614833",
"l  c #6B5433",
"z  c #0D3C4A",
"x  c #252941",
"c  c #2A2F4A",
"v  c #2C3445",
"b  c #2C314B",
"n  c #333245",
"m  c #3B3642",
"M  c #353749",
"N  c #38374D",
"B  c #253755",
"V  c #353953",
"C  c #3D484D",
"Z  c #254153",
"A  c #104A6C",
"S  c #19537E",
"D  c #234263",
"F  c #2A4360",
"G  c #374A63",
"H  c #3D546B",
"J  c #2B5675",
"K  c #156279",
"L  c #3B6464",
"P  c #3F6F77",
"I  c #484741",
"U  c #4B4A44",
"Y  c #474451",
"T  c #44445D",
"R  c #4F5A55",
"E  c #5B505A",
"W  c #6E5B4D",
"Q  c #7F5C43",
"!  c #5B6951",
"~  c #71694B",
"^  c #78774A",
"/  c #676257",
"(  c #474861",
")  c #4C4D65",
"_  c #545665",
"`  c #485A75",
"'  c #655A65",
"]  c #5A7163",
"[  c #4D6370",
"{  c #4C7170",
"}  c #6F6D64",
"|  c #756D6F",
" . c #737167",
".. c #79776E",
"X. c #834C05",
"o. c #85490C",
"O. c #8C4D0B",
"+. c #975609",
"@. c #9A570A",
"#. c #9E590A",
"$. c #8C5611",
"%. c #8E561A",
"&. c #A05D06",
"*. c #A45E09",
"=. c #9C6017",
"-. c #AC6209",
";. c #B86B07",
":. c #B26608",
">. c #B46808",
",. c #BB6D09",
"<. c #B37311",
"1. c #966527",
"2. c #9B7029",
"3. c #A16631",
"4. c #C07008",
"5. c #C5780B",
"6. c #966E42",
"7. c #9D7143",
"8. c #AC7646",
"9. c #A67A51",
"0. c #8F6E60",
"q. c #997968",
"w. c #817E74",
"e. c #759675",
"r. c #C48315",
"t. c #C88814",
"y. c #D28B13",
"u. c #D59316",
"i. c #DC9A19",
"p. c #87847A",
"a. c #86857F",
"s. c #9A8577",
"d. c #BC8A6A",
"f. c #C68D64",
"g. c #CD956E",
"h. c #C7997A",
"j. c #D19D79",
"k. c #0C5C82",
"l. c #185683",
"z. c #0D6185",
"x. c #0C638A",
"c. c #1D668D",
"v. c #0C6792",
"b. c #0C6A99",
"n. c #136393",
"m. c #17769E",
"M. c #2A7494",
"N. c #0D6EA2",
"B. c #0C73AB",
"V. c #107DB3",
"C. c #4C6884",
"Z. c #4E6E8D",
"A. c #546A80",
"S. c #5F7D98",
"D. c #198CBC",
"F. c #67849C",
"G. c #6B92A9",
"H. c #7A95A7",
"J. c #1D9BC9",
"K. c #23A3C9",
"L. c #25ACD5",
"P. c #29B5DD",
"I. c #2AB8DD",
"U. c #2CBCE3",
"Y. c #2EC1E7",
"T. c #868687",
"R. c #918E82",
"E. c #959389",
"W. c #838690",
"Q. c gray58",
"!. c #A6A295",
"~. c #BAA693",
"^. c #B0AD9E",
"/. c #989CA3",
"(. c #89A2AF",
"). c #9EACB1",
"_. c #AEADA5",
"`. c #B2ACA0",
"'. c #B6B3A4",
"]. c #B7B5AB",
"[. c #BDB9AA",
"{. c #DCA987",
"}. c #E3B395",
"|. c #C0BDAD",
" X c #C0BCB5",
".X c #CAC7B6",
"XX c #CDC9B9",
"oX c #D3CFBE",
"OX c #F0C6AC",
"+X c #F6CEB5",
"@X c #9CC1DB",
"#X c #BFC6CD",
"$X c #C5C5C2",
"%X c #D3D2C8",
"&X c #D8D6CD",
"*X c #DADAD1",
"=X c #E1DDCA",
"-X c #E5E1CE",
";X c #ECE4DD",
":X c #E5E5E5",
">X c #F2F1E6",
",X c #EEEEF7",
/* pixels */
">X>X>X>X>X>X>X>X>X>X>X>X>X>X>X>X>X>X>X>X>X>X>X>X>X>X>X>X`.`.`.`.>X>X>X>X>X>X>X>X>X>X>X>X>X>X>X>X>X>X>X>X>X>X>X>X>X>X>X>X^.`.`.`.",
">X>X>X>X>X>X>X>X>X>X>X>X>X>X>X>X>X>X>X>X>X>X>X>X>X>X>X>X`.`.`.`.>X>X>X>X>X>X>X>X>X>X>X>X>X>X>X>X>X>X>X>X>X>X>X>X>X>X>X>X`.`.`.`.",
">X>X>X>X>X>X>X>X>X>X>X>X>X>X>X>X>X>X>X>X>X>X>X>X>X>X>X>X`.`.`.`.>X>X>X>X>X>X>X>X>X>X>X>X>X>X>X>X>X>X>X>X>X>X>X>X>X>X>X>X`.`.`.`.",
">X>X>X>X>X>X>X>X>X>X>X>X>X>X>X>X>X>X>X>X>X>X>X>X>X>X>X>X`.`.`.`.>X>X>X>X>X>X>X>X>X>X>X>X>X>X>X>X>X>X>X>X>X>X>X>X>X>X>X>X`.`.`.`.",
">X>X>X>X-X-X-X-X-X-X-X-X-X-X-X-X-X-X-X-X-X-X-X-X&X&X&X&X^.`.`.`.>X>X>X>X-X-X-X-X-X-X-X-X-X-X-X-X-X-X-X-X-X-X-X-X&X&X&X&X`.`.`.`.",
">X>X>X>X-X-X-X-X-X-X-X-X-X-X-X-X-X-X-X-X-X-X-X-X&X&X&X&X`.`.`.`.>X>X>X>X-X-X-X-X-X-X-X-X-X-X-X-X-X-X-X-X-X-X-X-X&X&X&X&X`.`.`.`.",
">X>X>X>X-X-X-X-X-X-X-X-X-X-X-X-X-X-X-X-X-X-X-X-X8                   % >X-X-X-X-X-X-X-X-X-X-X-X-X-X-X-X-X-X-X-X-X&X&X&X&X`.`.`.`.",
">X>X>X>X-X-X-X-X-X-X-X-X-X-X-X-X-X-X-X-X-X-XXX'.g = ; ; ; ; = ; ; ; ,  X'.'.oX-X-X-X-X-X-X-X-X-X-X-X-X-X-X-X-X-X&X&X&X&X`.`.`.`.",
">X>X>X>X-X-X-X-X-X-X-X-X-X-X-X-X-X-X-X-X-X-X .  <.i.i.i.i.i.i.i.i.i.t.      a.-X-X-X-X-X-X-X-X-X-X-X-X-X-X-X-X-X&X&X&X&X`.`.`.`.",
">X>X>X>X-X-X-X-X-X-X-X-X-X-X-X-X-X-X-X-X.X} ~ s r.i.i.i.i.i.i.i.i.i.i.a a t l  .T.W.-X-X-X-X-X-X-X-X-X-X-X-X-X-X&X&X&X&X`.`.`.`.",
">X>X>X>X-X-X-X-X-X-X-X-X-X-X-X-X-X-X-X-X^.  a i.i.i.i.i.i.i.i.i.i.i.i.i.y.4.w   x b -X-X-X-X-X-X-X-X-X-X-X-X-X-X&X&X&X&X`.`.`.`.",
">X>X>X>X-X-X-X-X-X-X-X-X-X-X-X-X-X-X-X6 r #.<.i.i.i.i.i.i.i.i.i.i.i.i.i.y.,.O.y [ C.) Y 6 R.-X-X-X-X-X-X-X-X-X-X&X&X&X&X`.`.`.`.",
">X>X>X>X-X-X-X-X-X-X-X-X-X-X-X-X-X-X-X  = 4.t.i.i.i.i.i.i.i.i.i.i.i.i.i.y.,.#.X.A.Z.c 2   ..-X-X-X-X-X-X-X-X-X-X&X&X&X&X`.`.`.`.",
">X>X>X>X-X-X-X-X-X-X-X-X-X-X-X-X-X-X-X  = 4.4.4.u.i.i.i.i.i.i.i.i.i.i.4.4.4.4.4.m b (.H.Z.v   [.-X-X-X-X-X-X-X-X&X&X&X&X`.`.`.`.",
">X>X>X>X-X-X-X-X-X-X-X-X-X-X-X-X-X^.!.- e 4.4.4.r.r.r.r.r.r.r.r.t.u.y.4.4.4.4.4.m b (.H.F.v   [.-X-X-X-X-X-X-X-X&X&X&X&X`.`.`.`.",
">X>X>X>X-X-X-X-X-X-X-X-X-X-X-X-X-X5   4.4.4.4.,.$.o.o.o.o.o.o.O.o.,.,.,.4.4.4.4.m b (.(.(.C   [.-X-X-X-X-X-X-X-X&X&X&X&X`.`.`.`.",
">X>X>X>X-X-X-X-X-X-X-X-X-X-X-X-X-X5   4.4.4.-.&.*.*.*.*.*.*.*.*.*.#.#.4.4.4.4.4.Y T F.F.(.C   [.-X-X-X-X-X-X-X-X&X&X&X&X`.`.`.`.",
">X>X>X>X-X-X-X-X-X-X-X-X-X-X-X-X-X5   4.4.4.&.o.:.4.4.4.4.4.4.4.4.o.O.4.4.4.4.4.E ) Z.S.(.C   [.-X-X-X-X-X-X-X-X&X&X&X&X`.`.`.`.",
">X>X>X>X-X-X-X-X-X-X-X-X-X-X-X-X-X5   4.:.O.*.;.4.4.4.4.4.4.4.4.4.4.:.O.#.4.l i A.C.Z.` % ...X*X-X-X-X-X-X-X-X-X&X&X&X&X`.`.`.`.",
">X>X>X>X-X-X-X-X-X-X-X-X-X-X-X-X-X5   4.:.o.*.4.4.4.4.4.4.4.4.4.4.4.,.o.@.4.i B C.Z.C.G . e.-X-X-X-X-X-X-X-X-X-X&X&X&X&X`.`.`.`.",
">X>X>X>X-X-X-X-X-X-X-X-X-X-X-X-X-X5   4.:.o.*.4.4.4.4.4.4.4.4.4.4.4.4.4.1.( C.Z.Z.Z.  f -X-X-X-X-X-X-X-X-X-X-X-X&X&X&X&X`.`.`.`.",
">X>X>X>X-X-X-X-X-X-X-X-X-X-X-X-X-X6   %.%.@.*.4.4.4.4.4.4.4.4.4.4.4.;.3.6.` ` H G G   i -X-X-X-X-X-X-X-X-X-X-X-X&X&X&X&X`.`.`.`.",
">X>X>X>X-X-X-X-X-X-X-X-X-X-X-X-X-X5   c i 4.4.4.,.4.4.4.4.4.4.4.4.;.:.) ` Z.G c .     f -X-X-X-X-X-X-X-X-X-X-X-X&X&X&X&X`.`.`.`.",
">X>X>X>X-X-X-X-X-X-X-X-X-X-X-X-X-X5   T Y j k k -.4.4.4.4.4.4.*.@.W p V V G h p Q Q   f -X-X-X-X-X-X-X-X-X-X-X-X&X&X&X&X`.`.`.`.",
">X>X>X>X&X&X&X&X&X&X&X&X&X&X&X&X&X5   ) ( c c c =.,.4.4.4.4.4.+.o.c c c c b p o.f.g.  i &X&X&X&X&X&X&X&X&X&X&X&X&X&X&X&X`.`.`.`.",
">X>X>X>X&X&X&X&X&X&X&X&X&X&X&X&X&X5   ) ) ) ( ) N n n n n n n n c f.h.:XW.. q.OXOXOXs 6.&X&X&X&X&X&X&X&X&X&X&X&X&X&X&X&X`.`.`.`.",
">X>X>X>X&X&X&X&X&X&X&X&X&X&X&X&X&X9 % T ( ) ) ) V b b b b N N N N g.j.,X/.X s.+X+X+Xo.7.&X&X&X&X&X&X&X&X&X&X&X&X&X&X&X&X`.`.`.`.",
">X>X>X>X&X&X&X&X&X&X&X&X&X&X&X&X&X&X&X  % ) ) ) ) ) ) ( b W g.g.g.g.j.,X@XB.).+X+X+Xo.7.&X&X&X&X&X&X&X&X&X&X&X&X&X&X&X&X`.`.`.`.",
"`.`.`.`.`.`.`.`.`.`.`.`.`.`.`.`.^.^.`.i 0 n N ) ) ) ) ( N E 0.d.g.{.}.;X#XG. X+X+X+X3.9.`.`.`.`.`.`.`.`.`.`.`.`.`.`.`.`.`.`.`.`.",
"`.`.`.`.`.`.`.`.`.`.`.`.`.`.`.`.`.`.`.`.p.  7 ) ) ) ) ) ) T c q.g.+X+X+X=X+X+X+X+X+Xg.h.`.`.`.`.`.`.`.`.`.`.`.`.`.`.`.`.`.`.`.`.",
"`.`.`.`.`.`.`.`.`.`.`.`.`.`.`.`.`.`.`.`.!..._ V 6 1 & 1 ) ( T ' 0.{.{.+X+X+X}.{.8.8.~.~.`.`.`.`.`.`.`.`.`.`.`.`.`.`.`.`.`.`.`.`.",
"`.`.`.`.`.`.`.`.`.`.`.`.`.`.`.`.`.`.`.`.`.`.| c @     @ ) ) ) ) ( h.j.+X+X+X{.g.%.o.`.`.`.`.`.`.`.`.`.`.`.`.`.`.`.`.`.`.`.`.`.`.",
">X>X>X>X>X>X>X>X>X>X>X>X>X>X>X>X>X>X>X>X$Xb M.Y.Y.U.U.P.B.l.c c c .             &X>X>X>X>X>X>X>X>X>X>X>X>X>X>X>X>X>X>X>X^.^.^.`.",
">X>X>X>X>X>X>X>X>X>X>X>X>X>X>X>X>X>X>X>X$Xc M.P.U.Y.Y.P.V.c.F F F < < + X   % 5 *X>X>X>X>X>X>X>X>X>X>X>X>X>X>X>X>X>X>X>X^.^.`.`.",
">X>X>X>X>X>X>X>X>X>X>X>X>X>X>X>X>X>X>X>X$Xc S B.L.Y.Y.Y.U.Y.Y.Y.U.U.U.B.A   Q.>X>X>X>X>X>X>X>X>X>X>X>X>X>X>X>X>X>X>X>X>X`.`.`.`.",
">X>X>X>X>X>X>X>X>X>X>X>X>X>X>X>X>X>X>X>X=XF.Z.S D.J.Y.Y.Y.Y.Y.L.J.J.J.l.Z : W p.;X>X>X>X>X>X>X>X>X>X>X>X>X>X>X>X>X>X>X>X`.`.`.`.",
">X>X>X>X-X-X-X-X-X-X-X-X-X-X-X-X-X-X-X-X-X-XW.c n.B.Y.Y.Y.Y.Y.D.B.B.N.c i X.=   XX-X-X-X-X-X-X-X-X-X-X-X-X-X-X-X&X&X&X&X`.`.`.`.",
">X>X>X>X-X-X-X-X-X-X-X-X-X-X-X-X-X-X-X-X-X-XoX].` D 4 z m.c.J F D x.x.n.[ >.q   .X-X-X-X-X-X-X-X-X-X-X-X-X-X-X-X&X&X&X&X`.`.`.`.",
">X>X>X>X-X-X-X-X-X-X-X-X-X-X-X-X-X-X-X-X-X-X-X-X_ b . + k.A c b c k.z.B.{ 4.w   XX-X-X-X-X-X-X-X-X-X-X-X-X-X-X-X&X&X&X&X`.`.`.`.",
">X>X>X>X-X-X-X-X-X-X-X-X-X-X-X-X-X-X-X-X-X-X-X-X&X&X  # B.J.Y.Y.Y.Y.U.B.{ ,.w   XX-X-X-X-X-X-X-X-X-X-X-X-X-X-X-X&X&X&X&X`.`.`.`.",
">X>X>X>X-X-X-X-X-X-X-X-X-X-X-X-X-X-X-X-X-X-X-X-X]._.# 3 B.D.L.I.Y.Y.U.N.P 2.r = !.'.-X-X-X-X-X-X-X-X-X-X-X-X-X-X&X&X&X&X`.`.`.`.",
">X>X>X>X-X-X-X-X-X-X-X-X-X-X-X-X-X-X-X-X-X-X-X-X8   z.x.B.b.x.K.Y.Y.I.z.b.B.^ ,.o . -X-X-X-X-X-X-X-X-X-X-X-X-X-X&X&X&X&X`.`.`.`.",
">X>X>X>X-X-X-X-X-X-X-X-X-X-X-X-X-X-X-X-X-X-X-X-X8   z.x.b.b.b.K K e.e.^ ^ R 1.4.o . -X-X-X-X-X-X-X-X-X-X-X-X-X-X&X&X&X&X`.`.`.`.",
">X>X>X>X-X-X-X-X-X-X-X-X-X-X-X-X-X-X-X-X-X-X-X-X8   z.z.z.b.B.3   ;.5.i.<.o.-.4.o . -X-X-X-X-X-X-X-X-X-X-X-X-X-X&X&X&X&X`.`.`.`.",
">X>X>X>X-X-X-X-X-X-X-X-X-X-X-X-X-X-X-X-X-X-X-X-X8   z.z.z.z.v.<   ;.4.5.O.O X.4.o . -X-X-X-X-X-X-X-X-X-X-X-X-X-X&X&X&X&X`.`.`.`.",
">X>X>X>X-X-X-X-X-X-X-X-X-X-X-X-X-X-X-X-X-X-X-X-X8   z.z.z.z.z.<   ;.4.,.s   s 4.o . -X-X-X-X-X-X-X-X-X-X-X-X-X-X&X&X&X&X`.`.`.`.",
">X>X>X>X-X-X-X-X-X-X-X-X-X-X-X-X-X-X-X-X-X-X-X-X8   o.d z.z.x.x.z.      = o.=   .X-X-X-X-X-X-X-X-X-X-X-X-X-X-X-X&X&X&X&X`.`.`.`.",
">X>X>X>X-X-X-X-X-X-X-X-X-X-X-X-X-X-X-X-X-X-X-X-Xm # l l L L L L L * * * : d > @ E.^.-X-X-X-X-X-X-X-X-X-X-X-X-X-X&X&X&X&X`.`.`.`.",
">X>X>X>X-X-X-X-X-X-X-X-X-X-X-X-X-X-X-X-X-X-X-X-X_ c B.M.4.4.4.4.4.o.o.o.p c c c . . -X-X-X-X-X-X-X-X-X-X-X-X-X-X&X&X&X&X`.`.`.`.",
">X>X>X>X-X-X-X-X-X-X-X-X-X-X-X-X-X-X-X-X-X-X!./ J l.B.m.] ] ] ! ! q - - , c c c 1 1 / p.-X-X-X-X-X-X-X-X-X-X-X-X&X&X&X&X`.`.`.`.",
">X>X>X>X-X-X-X-X-X-X-X-X-X-X-X-X-X-X-X-X-X-X .  k.B.B.B.B.B.B.x.k.      $ c c c c c   f -X-X-X-X-X-X-X-X-X-X-X-X&X&X&X&X`.`.`.`.",
">X>X>X>X-X-X-X-X-X-X-X-X-X-X-X-X-X-X-X-X'.> r y M B B.B.B.l.B B B %X%X%Xw.. 1 c @ .   f -X-X-X-X-X-X-X-X-X-X-X-X&X&X&X&X`.`.`.`.",
">X>X>X>X-X-X-X-X-X-X-X-X-X-X-X-X-X-X-X-X^.  q o.0 c B.B.B.S c c c :X>X>XE.. 1 n .     f -X-X-X-X-X-X-X-X-X-X-X-X&X&X&X&X`.`.`.`.",
">X>X>X>X-X-X-X-X-X-X-X-X-X-X-X-X-X-X-X-X^.  q o.:.4.4.*.      w.>X>X>X>X-X-XR     . -X-X-X-X-X-X-X-X-X-X-X-X-X-X&X&X&X&X`.`.`.`.",
">X>X>X>X-X-X-X-X-X-X-X-X-X-X-X-X-X-X-X-X|.I u e y X.X.s 9 9 9 p.>X>X>X>X-X-Xp.f U U -X-X-X-X-X-X-X-X-X-X-X-X-X-X&X&X&X&X`.`.`.`.",
">X>X>X>X-X-X-X-X-X-X-X-X-X-X-X-X-X-X-X-X-X-X .        5 ^.`.`.`.>X>X>X>X-X-X-X-X-X-X-X-X-X-X-X-X-X-X-X-X-X-X-X-X&X&X&X&X`.`.`.`.",
">X>X>X>X&X&X&X&X&X&X&X&X&X&X&X&X&X&X&X&X&X&X_.T.p.p.T.E.`.`.`.`.>X>X>X>X&X&X&X&X&X&X&X&X&X&X&X&X&X&X&X&X&X&X&X&X&X&X&X&X`.`.`.`.",
">X>X>X>X&X&X&X&X&X&X&X&X&X&X&X&X&X&X&X&X&X&X&X&X&X&X&X&X`.`.`.`.>X>X>X>X&X&X&X&X&X&X&X&X&X&X&X&X&X&X&X&X&X&X&X&X&X&X&X&X`.`.`.`.",
">X>X>X>X&X&X&X&X&X&X&X&X&X&X&X&X&X&X&X&X&X&X&X&X&X&X&X&X`.`.`.`.>X>X>X>X&X&X&X&X&X&X&X&X&X&X&X&X&X&X&X&X&X&X&X&X&X&X&X&X`.`.`.`.",
">X>X>X>X&X&X&X&X&X&X&X&X&X&X&X&X&X&X&X&X&X&X&X&X&X&X&X&X`.`.`.`.>X>X>X>X&X&X&X&X&X&X&X&X&X&X&X&X&X&X&X&X&X&X&X&X&X&X&X&X`.`.`.`.",
"`.`.`.`.`.`.`.`.`.`.`.`.^.^.^.^.`.`.`.`.`.`.`.`.`.`.`.`.`.`.`.`.`.`.`.`.^.`.`.`.`.`.`.`.`.`.`.`.`.`.`.`.`.`.`.`.`.`.`.`.`.`.`.`.",
"`.`.`.`.`.`.`.`.`.`.`.`.^.^.`.`.`.`.`.`.`.`.`.`.`.`.`.`.`.`.`.`.`.`.`.`.^.^.`.`.`.`.`.`.`.`.`.`.`.`.`.`.`.`.`.`.`.`.`.`.`.`.`.`.",
"`.`.`.`.`.`.`.`.`.`.`.`.`.`.`.`.`.`.`.`.`.`.`.`.`.`.`.`.`.`.`.`.`.`.`.`.`.`.`.`.`.`.`.`.`.`.`.`.`.`.`.`.`.`.`.`.`.`.`.`.`.`.`.`.",
"`.`.`.`.`.`.`.`.`.`.`.`.`.`.`.`.`.`.`.`.`.`.`.`.`.`.`.`.`.`.`.`.`.`.`.`.`.`.`.`.`.`.`.`.`.`.`.`.`.`.`.`.`.`.`.`.`.`.`.`.`.`.`.`."
};
