/* XPM */
static char *result[] = {
/* columns rows colors chars-per-pixel */
"64 64 195 2 ",
"   c black",
".  c #010100",
"X  c #010101",
"o  c #020101",
"O  c #020201",
"+  c #030202",
"@  c #040303",
"#  c #050303",
"$  c #060403",
"%  c #060504",
"&  c #070504",
"*  c #070604",
"=  c #080604",
"-  c #090705",
";  c #0B0806",
":  c #0B0907",
">  c #0C0907",
",  c #0D0907",
"<  c #0D0A08",
"1  c #0E0A08",
"2  c #0F0B09",
"3  c #110D0A",
"4  c #120E0B",
"5  c #130E0B",
"6  c #130F0B",
"7  c #140F0C",
"8  c #15100C",
"9  c #15100D",
"0  c #16100D",
"q  c #16110D",
"w  c #17110D",
"e  c #17110E",
"r  c #18120E",
"t  c #19130F",
"y  c #1A130F",
"u  c #1A140F",
"i  c #1B1510",
"p  c #1C1611",
"a  c #1D1611",
"s  c #1E1612",
"d  c #1E1712",
"f  c #201813",
"g  c #211913",
"h  c #211914",
"j  c #221914",
"k  c #221A14",
"l  c #221A15",
"z  c #231A15",
"x  c #231B15",
"c  c #241B16",
"v  c #241C16",
"b  c #251C16",
"n  c #261D16",
"m  c #261D17",
"M  c #271D17",
"N  c #271E17",
"B  c #281E18",
"V  c #281F18",
"C  c #291F18",
"Z  c #291F19",
"A  c #2A2019",
"S  c #2B2019",
"D  c #2B201A",
"F  c #2B211A",
"G  c #2C211A",
"H  c #2C221A",
"J  c #2D221B",
"K  c #2D231B",
"L  c #2E231B",
"P  c #2E231C",
"I  c #2F231C",
"U  c #2F241C",
"Y  c #30241D",
"T  c #30251D",
"R  c #31251D",
"E  c #32261E",
"W  c #33261E",
"Q  c #33271E",
"!  c #33271F",
"~  c #34271F",
"^  c #35281F",
"/  c #2F2E2B",
"(  c #352820",
")  c #352920",
"_  c #362920",
"`  c #372920",
"'  c #372A21",
"]  c #382A21",
"[  c #382B21",
"{  c #392B22",
"}  c #392C22",
"|  c #3A2C23",
" . c #3B2C23",
".. c #3B2D23",
"X. c #3C2D23",
"o. c #3B2D24",
"O. c #3C2E24",
"+. c #3D2E24",
"@. c #3D2E25",
"#. c #3E2F25",
"$. c #3F3026",
"%. c #403026",
"&. c #403126",
"*. c #413126",
"=. c #413127",
"-. c #413227",
";. c #423227",
":. c #423228",
">. c #433228",
",. c #433328",
"<. c #443328",
"1. c #443428",
"2. c #443429",
"3. c #453429",
"4. c #453529",
"5. c #463529",
"6. c #46352A",
"7. c #47352A",
"8. c #47362A",
"9. c #48362B",
"0. c #48372B",
"q. c #49372B",
"w. c #49372C",
"e. c #49382B",
"r. c #49382C",
"t. c #4A382C",
"y. c #4A392C",
"u. c #4B392D",
"i. c #4B3A2D",
"p. c #4C392D",
"a. c #4C3A2D",
"s. c #4D3A2E",
"d. c #4D3B2E",
"f. c #4E3B2E",
"g. c #4E3C2F",
"h. c #4F3C2F",
"j. c #503D2F",
"k. c #503C30",
"l. c #503D30",
"z. c #513D30",
"x. c #513E30",
"c. c #523E31",
"v. c #533F31",
"b. c #533F32",
"n. c #41403D",
"m. c #534032",
"M. c #544032",
"N. c #554033",
"B. c #554133",
"V. c #564133",
"C. c #564233",
"Z. c #564134",
"A. c #574234",
"S. c #574334",
"D. c #584334",
"F. c #584335",
"G. c #594435",
"H. c #5A4435",
"J. c #5A4436",
"K. c #5B4536",
"L. c #5B4537",
"P. c #5C4637",
"I. c #5E4738",
"U. c #5F4839",
"Y. c #604939",
"T. c #61493A",
"R. c #624A3A",
"E. c #654C3C",
"W. c #654D3C",
"Q. c #664D3D",
"!. c #674E3E",
"~. c #684F3E",
"^. c #694F3F",
"/. c #69503F",
"(. c #6A503F",
"). c #6A5140",
"_. c #6B5140",
"`. c #6B5240",
"'. c #6C5240",
"]. c #6C5241",
"[. c #6D5241",
"{. c #6E5342",
"}. c #6E5442",
"|. c #6F5442",
" X c #6F5443",
".X c #6F5543",
"XX c #705543",
"oX c #6D6962",
"OX c #7F7B72",
"+X c #94938D",
"@X c #A39E93",
"#X c #A8A297",
"$X c #ADACA4",
"%X c #B2ACA0",
"&X c #F2F1E6",
/* pixels */
"&X&X&X&X&X&X&X&X&X&X&X&X&X&X&X&X&X&X&X&X&X&X&X&X&X&X&X&X%X%X%X%X&X&X&X&X&X&X&X&X&X&X&X&X&X&X&X&X&X&X&X&X&X&X&X&X&X&X&X&X%X%X%X%X",
"&X&X&X&X&X&X&X&X&X&X&X&X&X&X&X&X&X&X&X&X&X&X&X&X&X&X&X&X%X%X%X%X&X&X&X&X&X&X&X&X&X&X&X&X&X&X&X&X&X&X&X&X&X&X&X&X&X&X&X&X%X%X%X%X",
"&X&X&X&X&X&X&X&X&X&X&X&X&X&X&X&X&X&X&X&X&X&X&X&X&X&X&X&X%X%X%X%X&X&X&X&X&X&X&X&X&X&X&X&X&X&X&X&X&X&X&X&X&X&X&X&X&X&X&X&X%X%X%X%X",
"&X&X$Xn.n.n.n.n.n.n.n.n.n.n.n.n.n.n.n.n.n.n.n.n.n.n.n.n./ / / / n.n.n.n.n.n.n.n.n.n.n.n.n.n.n.n.n.n.n.n.n.n.n.n.n.n.n.n.#X%X%X%X",
"&X&X+X+ m m m m m m m m m m m m m m m m m m m m m m m m m m m m m m m m m m m m m m m m m m m m m m m m m m m m m m d   @X%X%X%X",
"&X&X+X* G.x.m.S.g.S.G.G.G.G.G.G.G.G.G.G.G.G.G.G.G.G.G.G.G.G.G.G.G.G.G.G.G.G.G.G.G.G.G.G.G.G.G.G.G.G.G.G.G.M.j.G.l.M.4.  @X%X%X%X",
"&X&X+X* G.7 A y.  a.G.G.G.G.G.G.G.G.G.G.G.G.G.G.G.G.G.G.G.G.G.G.G.G.G.G.G.G.G.G.G.G.G.G.G.G.G.G.G.G.G.G.G.R < G.2 U 4.  @X%X%X%X",
"&X&X+X* G.a.l.C.e.A.G.G.G.G.G.G.G.G.G.G.G.G.G.G.G.G.G.G.G.G.G.G.G.G.G.G.G.G.G.G.G.G.G.G.G.G.G.G.G.G.G.G.G.c.u.G.i.x.4.  @X%X%X%X",
"&X&X+X* G._ -.c.G v.G.G.G.G.G.G.G.G.G.G.G.G.G.G.G.G.G.G.G.G.G.G.G.G.G.G.G.G.G.G.G.G.G.G.G.G.G.G.G.G.G.G.G.3.E G.Q 1.4.  @X%X%X%X",
"&X&X+X* G.k ! d.4 h.G.G.G.G.G.G.G.G.G.G.G.G.G.G.G.G.G.G.G.G.G.G.G.G.G.G.D.C.G.G.G.G.G.G.G.G.G.G.G.G.G.G.G.} p G.d [ 4.  @X%X%X%X",
"&X&X+X* G.G.G.G.G.G.G.G.G.G.G.G.G.G.G.G.G.G.G.G.G.G.G.G.G.G.G.G.G.G.G.G.v.p.G.G.G.G.G.G.G.G.G.G.G.G.G.G.G.G.G.G.G.G.4.  @X%X%X%X",
"&X&X+X. - - - - - - - - - - - - - - { T - - - - - - - - - - - - - - - - b ;.- - - - - - - - - - - - - - - - - - - - &   @X%X%X%X",
"&X&X+X@ ^ ^ ^ ^ ^ ^ r ; G G G G D   ^ 8.:.:.:.:.:.:.:.) E :.:.:.:.:.:.:.6.q.:.:.:.:.:.:.i , G G G G C   B ^ ^ ^ ^ ^ C   @X%X%X%X",
"&X&X+X* G.G.G.G.G.G.V 4 t.t.t.t.q.9 G s.XXXXXXXXXXXXXXJ.M.XXXXXXXXXXXXXXY.h.XXXXXXXXXXb.J c t.t.t.t.4.  ,.G.G.G.G.G.4.  @X%X%X%X",
"&X&X+X* G.G.G.G.G.G.V 4 t.t.t.t.t.t.9 L XXXXXXXXXXXXXXJ.M.XXXXXXXXXXXXXXY.h.XXXXXXXXXX: G t.t.t.t.t.4.  ,.G.G.G.G.G.4.  @X%X%X%X",
"&X&X+X* G.G.G.G.G.G.V 4 t.t.t.t.t.t.q.G < XXXXXXXXXXXXJ.M.XXXXXXXXXXXXXXY.h.XXXXXXJ.O =.r.t.t.t.t.t.4.  ,.G.G.G.G.G.4.  @X%X%X%X",
"&X&X+X* G.G.G.G.G.G.V 4 t.t.t.t.t.t.t.&.T b T.XXXXXXXXJ.M.XXXXXXXXXXXXXXY.h.XXXXt.N E 9.t.t.t.t.t.] w   ,.G.G.G.G.G.4.  @X%X%X%X",
"&X&X+X* G.G.G.G.G.G.V : I 0.t.t.t.t.t.t.3.i #.K.XXXXXXJ.M.XXXXXXXXXXXXXXY.h.XXg.R b t.t.t.t.t.t.] J M   ,.G.G.G.G.G.4.  @X%X%X%X",
"&X&X+X* G.G.G.G.G.G.V o & ;.0.t.t.t.t.t.t.t.5 _ ).XXXXJ.M.XXXXXXXXXXXXXXY.f./.e B t.t.t.t.t.t.5.i K /.  ,.G.G.G.G.G.4.  @X%X%X%X",
"&X&X+X* G.G.G.G.G.G.V i XX& I t.t.t.t.t.t.t.t.n 8 XXXXJ.M.XXXXXXXXXXXXXXY.=.  O.t.t.t.t.t.t.t.o u.XX/.  ,.G.G.G.G.G.4.  @X%X%X%X",
"&X&X+X* G.G.G.G.G.G.V i XXZ.S v t.t.t.t.t.t.t.=.W i Q.J.M.XXXXXXXXXXXXXX9.e ] 7.t.t.t.t.t.| 4 b.!.XX/.  ,.G.G.G.G.G.4.  @X%X%X%X",
"&X&X+X* G.G.G.G.G.G.V i XXXXw.U Z t.t.t.t.t.t.t.>.h | 3.M.XXXXXXXXXXXXu.E m t.t.t.t.t.t._ M h }.XXXX/.  ,.G.G.G.G.G.4.  @X%X%X%X",
"&X&X+X* G.G.G.G.G.G.V i XXXXXXz.3 $.8.t.t.t.t.t.t.t.4 C a.XXXXXXXX.XY.h n t.t.t.t.t.t.*.x g t. XXXXX/.  ,.G.G.G.G.G.4.  @X%X%X%X",
"&X&X+X* G.G.G.G.G.G.V i XXXXXXXX{.  ^ t.t.t.t.t.t.t.t.f d XXXXXXXX`.  _ t.t.t.t.t.t.t.= :.W.t. XXXXX/.  ,.G.G.G.G.G.4.  @X%X%X%X",
"&X&X+X* G.G.G.G.G.G.V i XXXXXXXXXXI.x b t.t.t.t.t.t.t.,.E 4 ].XXk.7 #.8.t.t.t.t.t.+.> B.^.W.t. XXXXX/.  ,.G.G.G.G.G.4.  @X%X%X%X",
"&X&X+X* G.G.G.G.G.G.V i XXXXXXXXXXXXO.b M t.t.t.t.t.t.t.=.N ~ ^ Y C t.t.t.t.t.t._ B o._.XXW.t. XXXXX/.  ,.G.G.G.G.G.4.  @X%X%X%X",
"&X&X+X* G.G.G.G.G.G.V i XXXXXXXXXXXXN._ p { 7.t.t.t.t.t.t.t.5 $ y t.t.t.t.t.t.O.C F XXXXXXW.t. XXXXX/.  ,.G.G.G.G.G.4.  @X%X%X%X",
"&X&X+X* G.G.G.G.G.G.V i XXXXXXXXXXXXN.H.E.  ..t.t.t.t.t.t.t.t.y y t.t.t.t.t.t.1 { XXXXXXXXW.t. XXXXX/.  ,.G.G.G.G.G.4.  @X%X%X%X",
"%X%XoX* G.G.G.G.G.G.V i XXXXXXXXXXXXN.H.|.!.u N t.t.t.t.t.t.t.6.P - t.t.t.;.% B.'.XXXXXXXXW.t. XXXXX/.  ,.G.G.G.G.G.4.  @X%X%X%X",
"%X%XoX* G.G.G.G.G.G.V i XXXXXXXXXXXXN.H.XXXXd.R b t.t.t.t.t.t.t.%.J a #.` j 3.~.XXXXXXXXXXW.t. XXXXX/.  ,.G.G.G.G.G.4.  @X%X%X%X",
"%X%XoX* G.G.G.G.G.G.V i XXXXXXXXXXXXN.H.XXXXXXt.b ! 8.t.t.t.t.t.t.9.w G N j XXXXXXXXXXXXXXW.t. XXXXX/.  ,.G.G.G.G.G.4.  @X%X%X%X",
"%X%XoX* G.G.G.G.G.G.V i XXXXXXXXXXXXN.H.XXXXXXXXL.  =.t.t.t.t.t.t.t.t.7 f h.XXXXXXXXXXXXXXW.t. XXXXX/.  ,.G.G.G.G.G.4.  @X%X%X%X",
"&X&X+X* G.G.G.G.G.G.V i XXXXXXXXXXXXN.H.XXXXXXXXL.    A t.t.t.t.t.t.t.t.A 1 XXXXXXXXXXXXXXW.t. XXXXX/.  ,.G.G.G.G.G.4.  @X%X%X%X",
"&X&X+X* G.G.G.G.G.G.V i XXXXXXXXXXXXN.H.XXXXXXt.b ! ! z c t.t.t.t.t.t.t.&.R l R.XXXXXXXXXXW.t. XXXXX/.  ,.G.G.G.G.G.4.  @X%X%X%X",
"&X&X+X* G.G.G.G.G.G.V i XXXXXXXXXXXXN.H.XXXXd.R b t.t.Y h J q.t.t.t.t.t.t.2.a @.K.XXXXXXXXW.t. XXXXX/.  ,.G.G.G.G.G.4.  @X%X%X%X",
"&X&X+X* G.G.G.G.G.G.V i XXXXXXXXXXXXN.H.|.!.u N t.t.t.t.] % -.9.t.t.t.t.t.t.t.5 ' ^.XXXXXXW.t. XXXXX/.  ,.G.G.G.G.G.4.  @X%X%X%X",
"&X&X+X* G.G.G.G.G.G.V i XXXXXXXXXXXXN.H.E.  ..t.t.t.t.t.t.t.+ T t.t.t.t.t.t.t.t.c e XXXXXXW.t. XXXXX/.  ,.G.G.G.G.G.4.  @X%X%X%X",
"&X&X+X* G.G.G.G.G.G.V i XXXXXXXXXXXXN._ p { 7.t.t.t.t.t. .3 M.C b t.t.t.t.t.t.t.;.W t !.XXW.t. XXXXX/.  ,.G.G.G.G.G.4.  @X%X%X%X",
"&X&X+X* G.G.G.G.G.G.V i XXXXXXXXXXXXO.b M t.t.t.t.t.t._ D ^ {.r.Y C t.t.t.t.t.t.t.;.z { K.W.t. XXXXX/.  ,.G.G.G.G.G.4.  @X%X%X%X",
"&X&X+X* G.G.G.G.G.G.V i XXXXXXXXXXI.x b t.t.t.t.t.t.$.h M XXXXXXk.7 #.8.t.t.t.t.t.t.t.4 O.F.t. XXXXX/.  ,.G.G.G.G.G.4.  @X%X%X%X",
"&X&X+X* G.G.G.G.G.G.V i XXXXXXXX{.  ^ t.t.t.t.t.t.t.- A M.XXXXXXXX`.  _ t.t.t.t.t.t.t.t.d 9 t. XXXXX/.  ,.G.G.G.G.G.4.  @X%X%X%X",
"&X&X+X* G.G.G.G.G.G.V i XXXXXXz.3 $.8.t.t.t.t.t.#.; V.b.M.XXXXXXXX.XY.h n t.t.t.t.t.t.t.<.T ; {.XXXX/.  ,.G.G.G.G.G.4.  @X%X%X%X",
"&X&X+X* G.G.G.G.G.G.V i XXXXw.U Z t.t.t.t.t.t._ m #.(.J.M.XXXXXXXXXXXXu.E m t.t.t.t.t.t.t.*.C E P.XX/.  ,.G.G.G.G.G.4.  @X%X%X%X",
"&X&X+X* G.G.G.G.G.G.V i XXZ.S v t.t.t.t.t.t.X.A F XXXXJ.M.XXXXXXXXXXXXXX9.e ] 7.t.t.t.t.t.t.t.6 $.U./.  ,.G.G.G.G.G.4.  @X%X%X%X",
"&X&X+X* G.G.G.G.G.G.V i XX& I t.t.t.t.t.t.t.2 ' XXXXXXJ.M.XXXXXXXXXXXXXXY.=.  O.t.t.t.t.t.t.t.t.r Z /.  ,.G.G.G.G.G.4.  @X%X%X%X",
"&X&X+X* G.G.G.G.G.G.V o & ;.0.t.t.t.t.t.,.# N.[.XXXXXXJ.M.XXXXXXXXXXXXXXY.f./.e B t.t.t.t.t.t.t.8.P %   ,.G.G.G.G.G.4.  @X%X%X%X",
"&X&X+X* G.G.G.G.G.G.V : I 0.t.t.t.t.t.' f 8.~.XXXXXXXXJ.M.XXXXXXXXXXXXXXY.h.XXg.R b t.t.t.t.t.t.t.%.G   ,.G.G.G.G.G.4.  @X%X%X%X",
"&X&X+X* G.G.G.G.G.G.V 4 t.t.t.t.t.t.{ H H XXXXXXXXXXXXJ.M.XXXXXXXXXXXXXXY.h.XXXXt.N E 9.t.t.t.t.t.t.4.  ,.G.G.G.G.G.4.  @X%X%X%X",
"&X&X+X* G.G.G.G.G.G.V 4 t.t.t.t.t.q.0 I XXXXXXXXXXXXXXJ.M.XXXXXXXXXXXXXXY.h.XXXXXXJ.O =.r.t.t.t.t.t.4.  ,.G.G.G.G.G.4.  @X%X%X%X",
"&X&X+X* G.G.G.G.G.G.V 4 t.t.t.t.q.  ^ H.XXXXXXXXXXXXXXJ.M.XXXXXXXXXXXXXXY.h.XXXXXXXXXX: G t.t.t.t.t.4.  ,.G.G.G.G.G.4.  @X%X%X%X",
"&X&X+X* G.G.G.G.G.G.V 4 t.t.t.{ q l.p.H.XXXXXXXXXXXXXXJ.M.XXXXXXXXXXXXXXY.h.XXXXXXXXXXb.J c t.t.t.t.4.  ,.G.G.G.G.G.4.  @X%X%X%X",
"&X&X+X@ ^ ^ ^ ^ ^ ^ r ; G G G s X :.E ( :.:.:.:.:.:.:.) E :.:.:.:.:.:.:.{ I :.:.:.:.:.:.i , G G G G C   B ^ ^ ^ ^ ^ C   @X%X%X%X",
"&X&X+X. - - - - - - - - - - - - - - - - - - - - - - - - - - - - - - - - - - - - - - - - - - - - - - - - - - - - - - &   @X%X%X%X",
"&X&X+X* G.G.G.G.G.G.G.G.G.G.G.G.G.G.G.G.G.G.G.G.G.G.G.G.G.G.G.G.G.G.G.G.G.G.G.G.G.G.G.G.G.G.G.G.G.G.G.G.G.G.G.G.G.G.4.  @X%X%X%X",
"&X&X+X* G.k ! d.4 h.G.G.G.G.G.G.G.G.G.G.G.G.G.G.G.G.G.G.G.G.G.G.G.G.G.G.G.G.G.G.G.G.G.G.G.G.G.G.G.G.G.G.G.} p G.d [ 4.  @X%X%X%X",
"&X&X+X* G._ -.c.G v.G.G.G.G.G.G.G.G.G.G.G.G.G.G.G.G.G.G.G.G.G.G.G.G.G.G.G.G.G.G.G.G.G.G.G.G.G.G.G.G.G.G.G.3.E G.Q 1.4.  @X%X%X%X",
"&X&X+X* G.a.l.C.e.A.G.G.G.G.G.G.G.G.G.G.G.G.G.G.G.G.G.G.G.G.G.G.G.G.G.G.G.G.G.G.G.G.G.G.G.G.G.G.G.G.G.G.G.c.u.G.i.x.4.  @X%X%X%X",
"&X&X+X* G.7 A y.  a.G.G.G.G.G.G.G.G.G.G.G.G.G.G.G.G.G.G.G.G.G.G.G.G.G.G.G.G.G.G.G.G.G.G.G.G.G.G.G.G.G.G.G.R < G.2 U 4.  @X%X%X%X",
"&X&X+X* G.x.m.S.g.S.G.G.G.G.G.G.G.G.G.G.G.G.G.G.G.G.G.G.G.G.G.G.G.G.G.G.G.G.G.G.G.G.G.G.G.G.G.G.G.G.G.G.G.M.j.G.l.M.4.  @X%X%X%X",
"&X&X+X+ m m m m m m m m m m m m m m m m m m m m m m m m m m m m m m m m m m m m m m m m m m m m m m m m m m m m m m d   @X%X%X%X",
"%X%XOX/ / / / / / / / / / / / / / / / / / / / / / / / / / / / / / / / / / / / / / / / / / / / / / / / / / / / / / / / / #X%X%X%X",
"%X%X%X%X%X%X%X%X%X%X%X%X%X%X%X%X%X%X%X%X%X%X%X%X%X%X%X%X%X%X%X%X%X%X%X%X%X%X%X%X%X%X%X%X%X%X%X%X%X%X%X%X%X%X%X%X%X%X%X%X%X%X%X%X",
"%X%X%X%X%X%X%X%X%X%X%X%X%X%X%X%X%X%X%X%X%X%X%X%X%X%X%X%X%X%X%X%X%X%X%X%X%X%X%X%X%X%X%X%X%X%X%X%X%X%X%X%X%X%X%X%X%X%X%X%X%X%X%X%X",
"%X%X%X%X%X%X%X%X%X%X%X%X%X%X%X%X%X%X%X%X%X%X%X%X%X%X%X%X%X%X%X%X%X%X%X%X%X%X%X%X%X%X%X%X%X%X%X%X%X%X%X%X%X%X%X%X%X%X%X%X%X%X%X%X"
};
