/* XPM */
static char *result[] = {
/* columns rows colors chars-per-pixel */
"32 32 160 2 ",
"   c #7E5244",
".  c #775C53",
"X  c #7B5E55",
"o  c #7F6359",
"O  c #5F6868",
"+  c #557A7C",
"@  c #696361",
"#  c #6C6967",
"$  c #786562",
"%  c #706A67",
"&  c #756E6B",
"*  c #647374",
"=  c #9E5130",
"-  c #96553B",
";  c #A0512C",
":  c #A35533",
">  c #AC5731",
",  c #A65836",
"<  c #AC5A35",
"1  c #A55939",
"2  c #AD5C3A",
"3  c #B25C35",
"4  c #B85F36",
"5  c #B35E39",
"6  c #B85F3B",
"7  c #BA6137",
"8  c #B3613D",
"9  c #BB633B",
"0  c #C36436",
"q  c #C2663C",
"w  c #C5693F",
"e  c #CA6A3D",
"r  c #865545",
"t  c #8B5D4D",
"y  c #975B44",
"u  c #9B624D",
"i  c #846256",
"p  c #8B6050",
"a  c #84665B",
"s  c #966452",
"d  c #9A6652",
"f  c #966856",
"g  c #996854",
"h  c #9B6B58",
"j  c #A66345",
"k  c #AD6042",
"l  c #A5654A",
"z  c #AD664A",
"x  c #AD684B",
"c  c #B16341",
"v  c #BD6641",
"b  c #B76847",
"n  c #BE6A45",
"m  c #BD6D4B",
"M  c #A36953",
"N  c #A76D59",
"B  c #B17056",
"V  c #B4735C",
"C  c #BA755D",
"Z  c #836A64",
"A  c #9B7064",
"S  c #C46A44",
"D  c #CB6C42",
"F  c #D26F44",
"G  c #D27144",
"H  c #C1775E",
"J  c #C3795E",
"K  c #557F81",
"L  c #5F8183",
"P  c #5E8A8B",
"I  c #5B8F93",
"U  c #5D9295",
"Y  c #5E969A",
"T  c #5F989A",
"R  c #608485",
"E  c #6E8587",
"W  c #60898D",
"Q  c #6B8B8C",
"!  c #798584",
"~  c #7E8982",
"^  c #7C8B8A",
"/  c #648D91",
"(  c #6C8E91",
")  c #669495",
"_  c #6C9394",
"`  c #629799",
"'  c #68969C",
"]  c #65999C",
"[  c #6A9A9C",
"{  c #5E9EA1",
"}  c #619EA0",
"|  c #5DA4A7",
" . c #56ABAD",
".. c #5BAAAC",
"X. c #5BAFB2",
"o. c #56B1B2",
"O. c #5CB1B3",
"+. c #5AB6B8",
"@. c #63A1A4",
"#. c #66A5A9",
"$. c #65A9AD",
"%. c #6AAAAD",
"&. c #76A5A7",
"*. c #78A2A5",
"=. c #72ACAF",
"-. c #66AEB0",
";. c #72AFB3",
":. c #64B2B5",
">. c #6DB2B4",
",. c #64B6BA",
"<. c #6DB5B8",
"1. c #72B1B4",
"2. c #7BB7BA",
"3. c #65BFC2",
"4. c #868683",
"5. c #818B85",
"6. c #908D86",
"7. c #959189",
"8. c #87B2B5",
"9. c #84BABD",
"0. c #94B8BB",
"q. c #BEBAAE",
"w. c #C0BBB0",
"e. c #C4C0B5",
"r. c #C9C5BA",
"t. c #CECABE",
"y. c #8EBFC0",
"u. c #A1BEC0",
"i. c #92C2C3",
"p. c #9CC0C1",
"a. c #A9C6C7",
"s. c #ABC9CB",
"d. c #B4CDCE",
"f. c #BACED0",
"g. c #BAD1D1",
"h. c #CECBC1",
"j. c #D3CFC5",
"k. c #D3D1C7",
"l. c #D6D3C8",
"z. c #D9D7CC",
"x. c #DCD9CC",
"c. c #C3D4D5",
"v. c #C5DADA",
"b. c #CBDADB",
"n. c #DFDCD0",
"m. c #E2DECE",
"M. c #E0DED3",
"N. c #E5E1CE",
"B. c #E6E2D3",
"V. c #E9E6D6",
"C. c #E6E4D9",
"Z. c #E9E7DA",
"A. c #EBE9DA",
"S. c #D7E0E1",
"D. c #DDE5E5",
"F. c #DEE8E8",
"G. c #EFEEE2",
"H. c #E7EBEA",
"J. c #F0EFE3",
"K. c #F1F0E5",
/* pixels */
"K.J.K.A.K.K.G.G.G.G.G.G.G.C.l.w.h.C.G.G.J.G.J.J.J.J.J.J.J.J.G.C.",
"K.A.A.A.A.A.A.V.A.A.A.G.D.b.s.u.u.d.b.F.G.V.C.A.V.A.A.A.A.V.C.x.",
"K.A.V.B.N.N.N.V.V.B.S.f.y.>.3.:.,.3.1.y.d.D.B.B.B.V.N.N.B.B.x.l.",
"G.A.B.N.N.N.N.N.C.g.0.3.>.] I + K I ] >.2.i.v.B.N.N.N.N.N.M.x.j.",
"G.A.N.N.N.N.N.K.d.9.$.Y L # i r   . % R ] -.y.f.V.N.N.N.N.m.x.j.",
"G.A.V.N.N.N.B.v.y.#.W & r - > 5 : ; 1 t & / -.y.b.N.N.N.N.m.x.j.",
"G.A.N.N.N.N.F.p.<.P a 1 3 9 D S 5 6 D 6 - $ ) <.0.H.N.N.m.m.x.j.",
"G.A.V.N.N.N.c.=.' @ : q S v D D c 9 F D 5 - & ' 2.b.N.N.N.m.x.j.",
"G.A.N.N.N.N.p.-.L   < e D v D D v 9 G D 5 > g P <.a.N.N.N.N.x.j.",
"G.V.V.N.N.N.8.$.O y 9 w v v e D 9 8 G D 5 7 j * =.0.N.N.N.x.x.j.",
"G.A.N.N.N.N.>.@.o k 9 S v v D D v 6 D S 4 w 8 # @.1.N.N.N.m.x.j.",
"G.A.N.N.N.N.O._ s 8 9 9 9 8 q w 5 5 D 9 3 9 3 i ) ..N.m.m.x.x.j.",
"G.V.m.x.x.x.%.4.l 8 8 7 8 5 7 8 5 5 9 5 < 8 5 u ~ | x.x.x.x.x.j.",
"C.M.x.l.l.l.>.7.m n n v n n S S m S S m n n n B 5.X.l.l.l.l.k.h.",
"l.j.r.r.t.r.$.! y - , : : = , , : : , : = : : t E | r.r.r.r.r.w.",
"e.w.w.w.w.w.+.[ f 2 7 7 8 2 7 9 < 3 9 k : 7 3 o } o.w.w.w.w.q.q.",
"h.h.t.t.t.t.+.[ h x b S S v D D v 9 F S 2 e q a {  .t.t.t.h.h.r.",
"B.C.B.B.B.B.O.( f g x n S v D D 9 9 D S 2 D w i U  .C.C.B.M.M.z.",
"G.G.A.G.A.G.+.[ h l b 9 v v D D v 9 F S 2 e w a @.o.A.A.Z.G.Z.M.",
"G.A.A.V.V.V.O._ d j 8 v v v D D v v G S 5 w q i `  .V.V.C.Z.M.z.",
"G.A.B.B.N.N.O._ f d x n v v D D 9 9 F F 8 S q i T ..N.B.B.m.m.k.",
"G.Z.B.N.N.N.O._ f u x 9 b v D D c 9 F D 5 S q i Y ..N.N.m.m.x.j.",
"J.A.V.N.N.N.X.( d z n 9 n v e S 5 9 F D 5 S 9 X ` ..N.N.m.m.x.j.",
"G.A.N.N.N.N.O._ M b w 9 9 n w S 5 v F S 6 q 9 i )  .N.N.m.m.x.j.",
"J.V.N.N.N.N.%.4.z 9 9 9 7 9 7 9 9 7 q 9 7 9 9 l ! | N.N.N.m.x.j.",
"J.A.N.N.N.N.;.6.x k 8 8 8 8 8 k k 8 8 c 8 8 8 M 4...N.N.m.m.x.j.",
"J.A.B.N.N.N.-.^ y 2 2 2 1 1 < < , , 2 2 = 1 : p Q ..N.N.m.m.x.j.",
"G.V.V.N.N.N.O._ s 5 4 5 2 < 9 9 2 < q 9 ; 8 2 X `  .N.N.N.m.x.j.",
"G.A.B.N.N.N.o.) d 9 0 0 9 6 e S 7 4 e q > 7 4 X Y  .N.m.N.m.l.l.",
"G.V.B.N.N.N.&.! A V C H C B C H V V J C N C B Z Q *.m.m.m.m.l.j.",
"G.B.x.x.x.x.x.x.x.x.x.z.z.l.r.q.h.n.A.B.x.x.x.x.x.x.x.x.x.z.x.j.",
"C.n.k.j.j.j.j.j.j.j.j.j.j.h.w.q.r.n.n.z.j.j.j.j.j.j.j.j.j.j.j.t."
};
