/* XPM */
static char *result[] = {
/* columns rows colors chars-per-pixel */
"64 64 207 2 ",
"   c #010101",
".  c #080605",
"X  c #030A0A",
"o  c #0B0B0A",
"O  c #0E110F",
"+  c #0E1212",
"@  c #121614",
"#  c #171B18",
"$  c #271D15",
"%  c #1B201E",
"&  c #272927",
"*  c #2C2924",
"=  c #322F29",
"-  c #273D3C",
";  c #363733",
":  c #5C1E05",
">  c #412518",
",  c #772200",
"<  c #792605",
"1  c #7B2807",
"2  c #782708",
"3  c #71280A",
"4  c #7C2A09",
"5  c #732D11",
"6  c #4B3326",
"7  c #5C3726",
"8  c #6D3D27",
"9  c #793D22",
"0  c #3D413E",
"q  c #42413B",
"w  c #5B4336",
"e  c #664A38",
"r  c #7A4F3A",
"t  c #2C4442",
"y  c #344D4C",
"u  c #3D5856",
"i  c #3C5858",
"p  c #484A45",
"a  c #48524E",
"s  c #52554F",
"d  c #475957",
"f  c #585B55",
"g  c #6A584A",
"h  c #775744",
"j  c #66645B",
"k  c #796454",
"l  c #596666",
"z  c #577071",
"x  c #666D69",
"c  c #71746D",
"v  c #833515",
"b  c #833618",
"n  c #853C1D",
"m  c #8A3C1A",
"M  c #823F22",
"N  c #90401D",
"B  c #8A4121",
"V  c #844528",
"C  c #924323",
"Z  c #934B2A",
"A  c #974C2B",
"S  c #844C34",
"D  c #904E31",
"F  c #8C5339",
"G  c #985738",
"H  c #A15B3C",
"J  c #AA5A38",
"K  c #B45F3A",
"L  c #B8653F",
"P  c #835842",
"I  c #9A5C40",
"U  c #A55F41",
"Y  c #8C624C",
"T  c #9B654B",
"R  c #A26647",
"E  c #AC6141",
"W  c #AD6C4D",
"Q  c #B56541",
"!  c #BB6743",
"~  c #B56A47",
"^  c #BA6A46",
"/  c #B16B4A",
"(  c #BC6D4A",
")  c #BC704E",
"_  c #AD6E51",
"`  c #B66F50",
"'  c #B47557",
"]  c #BE7453",
"[  c #BB7759",
"{  c #BE7B5B",
"}  c #BD7E61",
"|  c #CA6D43",
" . c #CF7045",
".. c #D57549",
"X. c #C27755",
"o. c #CA7954",
"O. c #C77B58",
"+. c #C37D5D",
"@. c #D57C53",
"#. c #E57C4D",
"$. c #E87E4E",
"%. c #7F847A",
"&. c #868278",
"*. c #BC876C",
"=. c #B08A75",
"-. c #C8815F",
";. c #D5835D",
":. c #E78152",
">. c #EB8456",
",. c #EC8759",
"<. c #ED895B",
"1. c #F28250",
"2. c #F08A5A",
"3. c #C38263",
"4. c #C88767",
"5. c #D28461",
"6. c #DE8D66",
"7. c #D88C68",
"8. c #D19577",
"9. c #D59576",
"0. c #EA8D61",
"q. c #EF9065",
"w. c #E1916B",
"e. c #EA9369",
"r. c #5D7B82",
"t. c #607A80",
"y. c #5A8686",
"u. c #67878B",
"i. c #738889",
"p. c #70908E",
"a. c #6A8D96",
"s. c #6A9A97",
"d. c #6B939D",
"f. c #74959C",
"g. c #79969B",
"h. c #759898",
"j. c #7B999E",
"k. c #6F97A0",
"l. c #7297A1",
"z. c #759AA2",
"x. c #7B9EA4",
"c. c #6CA6A6",
"v. c #7AA5A9",
"b. c #7FAFB1",
"n. c #69BCBE",
"m. c #77B9B9",
"M. c #7AC6C4",
"N. c #7CCDCA",
"B. c #7DD6D5",
"V. c #7FDADB",
"C. c #6DE0E3",
"Z. c #75E3E5",
"A. c #76E6E8",
"S. c #78E6E8",
"D. c #76EBEC",
"F. c #7CECED",
"G. c #7BEFF0",
"H. c #77F0F2",
"J. c #979389",
"K. c #8E9892",
"L. c #AE9889",
"P. c #91A09E",
"I. c #A7A39A",
"U. c #ACA99B",
"Y. c #B0A79A",
"T. c #83A2A6",
"R. c #86A4A9",
"E. c #87A6A8",
"W. c #89A6AA",
"Q. c #8BA9AC",
"!. c #88AEB2",
"~. c #92AEB3",
"^. c #87B4B7",
"/. c #83BABC",
"(. c #8ABBBC",
"). c #B2ACA0",
"_. c #B5B1A2",
"`. c #B5B4AC",
"'. c #BEBBAC",
"]. c #C6C3B3",
"[. c #CAC9BD",
"{. c #D3CFBE",
"}. c #D5D1BF",
"|. c #8AC4C4",
" X c #86C8C9",
".X c #89CBCB",
"XX c #91C5C7",
"oX c #8AD5D4",
"OX c #83D8D6",
"+X c #8CD8D8",
"@X c #8BDCDB",
"#X c #87E1DF",
"$X c #8AE1DF",
"%X c #86E3E3",
"&X c #86E8E7",
"*X c #8CEAE6",
"=X c #8BEDEA",
"-X c #D4CFC6",
";X c #D9D5C3",
":X c #DDD9C7",
">X c #D8D6CD",
",X c #DEDAC8",
"<X c #E1DAC7",
"1X c #E2DCCA",
"2X c #E5E1CE",
"3X c #ECE9DE",
"4X c #F2F1E6",
/* pixels */
"4X4X4X4X4X4X4X4X4X4X4X4X4X4X4X4X4X4X4X4X4X4X4X4X4X4X4X4X).).).).4X4X4X4X4X4X4X4X4X4X4X4X4X4X4X4X4X4X4X4X4X4X4X4X4X4X4X4X).).).).",
"4X4X4X4X4X4X4X4X4X4X4X4X4X4X4X4X4X4X4X4X4X4X4X4X4X4X4X4X).j % % & & & x 4X4X4X4X4X4X4X4X4X4X4X4X4X4X4X4X4X4X4X4X4X4X4X4X).).).).",
"4X4X4X4X4X4X4X4X4X4X4X4X4X4X4X4X4X4X4X4X4X4X4X4X4X4Xc s ; c.Z.C.D.F.F. X& & f 4X4X4X4X4X4X4X4X4X4X4X4X4X4X4X4X4X4X4X4X4X).).).).",
"4X4X4X4X4X4X4X4X4X4X4X4X4X4X4X4X4X4X4X4X4X4X4X4Xx f  X$XN.m.!.b.XX|.+X*X@X@XOX; = p 4X4X4X4X4X4X4X4X4X4X4X4X4X4X4X4X4X4X).).).).",
"4X4X4X4X2X2X2X2X2X2X2X2X2X2X2X2X2X2X2X2X2X2Xf s M.OX.X(.!.N./.x.~..X@X|.(..X&XOXOXB.; q 2X2X2X2X2X2X2X2X2X2X2X2X>X>X>X>X).).).).",
"4X4X4X4X2X2X2X2X2X2X2X2X2X2X2X2X2X2X2X2Xs s  XOX%X|.!.Q.T.u.i a l l x.~.Q.~..X*X|.|.B.B.q 2X2X2X2X2X2X2X2X2X2X2X>X>X>X>X).).).).",
"4X4X4X4X2X2X2X2X2X2X2X2X2X2X2X2X2X2X2Xf .XB.XX|.|.oX@Xc.l g 9 9 S S k l f p.@XXXQ.Q. X=XB.q 2X2X2X2X2X2X2X2X2X2X>X>X>X>X).).).).",
"4X4X4X4X2X2X2X2X2X2X2X2X2X2X2X2X2X2Xf N. X*X$X(.W.h.a.k r 9 , , , , F P e j h.W.W.!.$X.X=XN.s ;X2X2X2X2X2X2X2X2X>X>X>X>X).).).).",
"4X4X4X4X2X2X2X2X2X2X2X2X2X2X2X2X1Xf M..XQ.XX=Xf.t.k P T M ` [ ` { } _ G 5.T g z i.+X XW..X XM.l ;X2X2X2X2X2X2X2X>X>X>X>X).).).).",
"4X4X4X4X2X2X2X2X2X2X2X2X2X2X2X1Xl M.oXQ.Q.Q.c.Y P T ' } I +.@.! ! ! _ U e.*.T e g c.W.W.E.@X=X% {.2X2X2X2X2X2X2X>X>X>X>X).).).).",
"4X4X4X4X2X2X2X2X2X2X2X2X2X2X2X,X0 &X+X+XQ.i.P _ _ } } } D o.@.X.! ! _ G e.4.3.[ ' r %.Q.@X=XoXm.c {.2X2X2X2X2X2X>X>X>X>X).).).).",
"4X4X4X4X2X2X2X2X2X2X2X2X2X2X1Xc b.oXoXoXp.h M @.+.Q ! ! D o.+.! ! ! ` H e.! ! ! ] 9 w i.oXoXE.=X& ].2X2X2X2X2X2X>X>X>X>X).).).).",
"4X4X4X4X2X2X2X2X2X2X2X2X2X:X&.c.=XR.R.W.s M M @.+.! ! ! D o.@.! ! ! _ H e.! ! ! ] v R + W.W.W.oXc.%.{.2X2X2X2X2X>X>X>X>X).).).).",
"4X4X4X4X2X2X2X2X2X2X2X2X2X[.a =X@XR.Q.f.g _ M @.@.X.! ! D o.@.X.! ! _ H e.! ! ! ] v :.e i.W.W.W.*X- '.2X2X2X2X2X>X>X>X>X).).).).",
"4X4X4X4X2X2X2X2X2X2X2X2X}.K.s.#XXX.XW.p b ~ M $.+.! ! ! D o.+.! ! ! _ U e.! ! ! ] b :.4   W.XX.X#Xs.J.[.2X2X2X2X>X>X>X>X).).).).",
"4X4X4X4X2X2X2X2X2X2X2X2X].d H.!.%X$Xl.e I ( M @.@.! ! ! I +.@.( ! ! _ G e.! ! ! ] b >.G w h.#X$X!.=X0 _.2X2X2X2X>X>X>X>X).).).).",
"4X4X4X4X2X2X2X2X2X2X2X2X].d H.d.d.d.; 4 ] ] B @.@.X.! ! D o.+.| ! ! _ U e.! ! ! X.b 2.^ <   T.R.E.*Xy _.2X2X2X2X:X:X>X>XU.).).).",
"4X4X4X4X2X2X2X2X2X2X2X;XI.y.&XE.T.f.w G ` X.B @.+.! ! ! D o.@.! ! ! _ G e.! ! ! ] b 2.^ D 6 l.T.E.#Xu.K.}.2X2X2X>X>X>X>X_.).).).",
"4X4X4X4X2X2X2X2X2X2X2X'.d C.m.m.m.- < :.] ] B @.@.X.! ! D o.@.X.! ! _ H e.! ! ! ] v 2.^ ! , . ^././.F.u U.2X2X2X>X>X>X>X).).).).",
"4X4X4X4X2X2X2X2X2X2X2X'.0 H.V.V.OX= 1 :.X.X.B @.+.! ! ! D o.+.| ! ! ` G e.! ! ! ] b <.| ! , . %X=X&XF.u U.2X2X2X>X>X>X>X).).).).",
"4X4X4X4X2X2X2X2X2X2X2X'.t S.x.x.j.= 1 :.) ] B ;.+.| ! ! D O.5.Q ! ! ` G e.! ! ! ] v 2.( | , * T.T.T.F.u U.2X2X2X>X>X>X>X).).).).",
"4X4X4X4X2X2X2X2X2X2X2X'.t S.x.x.h.C B 0.-.5.A ;.7.O.O.X.G O.5.` X.X.' W e.X.X.X.+.Z q.O.O.b m x.T.v.F.u U.2X2X2X>X>X>X>X).).).).",
"4X4X4X4X2X2X2X2X2X2X2X'.t D.z.z., <.2.2.2.2.2.2.$.2.,.0.,.,.,.,.2.2.2.2.0.2.2.2.<.<.2.2.<.<.2.b v.b.F.u U.2X2X2X>X>X>X>X).).).).",
"4X4X4X4X2X2X2X2X2X2X2X'.t H.D.D., 1.) ( K.-.( ( X.J.*.| ^ ^ ` } L.( ( X.) 4.J.( ( | ^ X.g.` | 4 F.F.F.u U.2X2X2X>X>X>X>X).).).).",
"4X4X4X4X>X>X>X>X>X>X>X`.t Z.k.k.4 >.) ! ! ! ^ ^ ^ ^ | ^ ^ ! ^ ! | ^ ^ ^ ^ ! ^ | ^ ^ ! ^ ^ ! ^ b l.x.D.i I.>X>X>X>X>X>X>X).).).).",
"4X4X4X4X>X>X>X>X>X>X>X`.t Z.k.d.d., , , , , , , , , , , , , , , , , , , , , , , , , , , , , , d.l.l.F.i I.>X>X>X>X>X>X>X).).).).",
"4X4X4X4X>X>X>X>X>X>X>X`.t A.f.d.d.X , , , , , , , , , , , , , , , , , , , , , , , , , , , , , # l.x.D.i I.>X>X>X>X>X>X>X).).).).",
"4X4X4X4X>X>X>X>X>X>X>X_.t A.z.d.a.X 3 ..Q Q v  .U Q Q Q 9 K E ! ( ( } ] 7.( ^ ^ +.m 0.( | ` v + l.x.D.y I.>X>X>X>X>X>X>X).).).).",
"U.).).).).).).).U._.U.J.- D.Z.C.C.X , #.Q ! 9 ..U | ! ! M K / ! ! ! ` U @.! ! ! ` m $.^ ! ! < + Z.D.Z.y &.).).).).).).).).).).).",
").).).).).).).).).).U.J.- C.z.a.u.X , #.E $ 3 ..U ! ! ! M K / ! ! ! ` Q 5.^ ! ! ( m $.^ ! ! 2 + z.v.Z.y &.).).).).).).).).).).).",
").).).).).).).).).).).J.- C.f.d.u.X 3 #.# z = ^ U ! ! ! M K / ! ! ! _ U @.! ! ! ` m >.! ! ! 2 + f.z.D.y &.).).).).).).).).).).).",
").).).).).).).).).).).J.- Z.f.a.u.X , $.G & 5 | H ! ! ! M K / ! ! ! ` E 5.! ! ! ( m >.! ! ! < O g.z.Z.y &.).).).).).).).).).).).",
"4X4X4X4X4X4X4X4X4X4X4X[.t H.V.N.n.X , $.| @ 3  .H ! ! ! 9 K / ! ! ! } ( w.! ! ! X.C ,.! ! ! 4 @ &X=XH.i `.4X4X4X4X4X4X4X).).).).",
"4X4X4X4X4X4X4X4X4X4X4X].t D.!.v.a.X , #.Q O : | U ! ! ! M K / ! ! ! } ) w.^ ! ! ] C <.! ! ! 4 @ (.|.=Xi `.4X4X4X4X4X4X4X).).).).",
"4X4X4X4X4X4X4X4X4X4X4X-Xt D.Q.z.r.X < #.Q o 3 ..J ! ! ! M K / ! ! ! } ) w.! ! ! +.N <.! ! ! 1 @ R.~.H.i `.4X4X4X4X4X4X4X).).).).",
"4X4X4X4X4X4X4X4X4X4X4X-Xt F.Q.z.t.X , #.Q @ 2 ..U ! ! ! M K / ! ! ! { ) w.! ! ! ] N <.! ! ! 1 @ !.^.=Xi `.4X4X4X4X4X4X4X).).).).",
"4X4X4X4X2X2X2X2X>X2X2X'.t H..Xm.c.X 2 #.! @ 3 ..Q ! ! ! b K / ! ! ! { ) 6.! ! ! ] N <.! ! ! 2 @ OX$X=Xi I.2X2X2X>X>X>X>X).).).).",
"4X4X4X4X2X2X2X2X2X2X2X'.t D.^.v.y.X , #.Q @ : | H ! ! ! 9 J / ! ! ! 3.( 6.^ ! ! ] N <.Q ! ! 1 @  X.XF.i U.2X2X2X>X>X>X>X).).).).",
"4X4X4X4X2X2X2X2X2X2X2X'.t C.E.g.r.X , #.6 d > Q Q ! ! ! V K / ! ! ! *.( 6.! ! ! ] N <.! ! ! 1 @ R.Q.&Xi U.2X2X2X>X>X>X>X).).).).",
"4X4X4X4X2X2X2X2X2X2X2X'.0 A.Q.g.r.X 3 #.6 a > Q U ! ! ! M J ` ! ! ! { ) 6.! ! ! ] N <.! ! ! 1 @ W.W.F.i U.2X2X2X>X>X>X>X).).).).",
"4X4X4X4X2X2X2X2X2X2X2X'.t A.W.W.R.X < 2.o.k 9 <.+.! ! ! U O.+.! ! ! { ) 6.L ! ! X.N 2.! ! ! 1 @ E.W.F.u U.2X2X2X>X>X>X>X).).).).",
"4X4X4X4X2X2X2X2X2X2X2X'.t D.(.(.^.X < 2.o.] B 0.+.! ! ! U o.+.! ! ! { ) w.! ! ! ] m ,.! ! ! 1 @  XoXF.u U.2X2X2X>X>X>X>X).).).).",
"4X4X4X4X2X2X2X2X2X2X2X'.t D. X X XX 2 ,.X.[ B 0.} ! ! Q U O.+.! ! L *.( 6.L ! ^ X.N ,.! L ! 1 @ oX@XG.u U.2X2X2X>X>X>X>X).).).).",
"4X4X4X4X2X2X2X2X2X2X2X'.t A.W.W.R.e D 6.` W G 5.} [ [ } I / ] ` +.*.' ` 4.{ { { { G 6.[ { { 1 z W.Q.F.i U.2X2X2X>X>X>X>X).).).).",
"4X4X4X4X2X2X2X2X2X2X2X'.t A.E.T.K.~ ~ ~ ~ ` ~ ( / Q Q Q Q U K K ( ) ( ) ^ ^ ~ ^ ~ ~ ~ ~ ^ ~ ( K.W.W.F.u U.2X2X2X>X>X>X>X).).).).",
"4X4X4X4X2X2X2X2X2X2X2X'.t A.!.b., 1.w.6.8.7.6.6.7.8.9.6.@.5.@.4.9.w.w.w.w.9.8.w.w.6.6.w.8.w.w.v (.|.F.u U.2X2X2X>X>X>X>X).).).).",
"4X4X4X4X2X2X2X2X2X2X2X'.t H.=XV., >.-.{ P.*.-.-.} I.L.+.[ ' ] J.L.3.3.3.+.=.I.+.+.3.3.3.T.-.-.4 $X&XF.u U.2X2X2X>X>X>X>X).).).).",
"4X4X4X4X2X2X2X2X2X2X2X'.t D.OXc.P 0.-.] { { ] [ ] ] ` +.` ` ` ) +.+.O.O.] X.X.[ ] ] X.] { ] [ Y T.T.F.u ).2X2X2X>X>X>X>X).).).).",
"4X4X4X4X2X2X2X2X2X2X2X'.t Z.x.x.x.n V B Z Z B m Z Z Z Z m M C M A A Z Z A Z Z Z Z B A Z Z n 9 x.T.T.F.u U.2X2X2X>X>X>X>X).).).).",
"4X4X4X4X2X2X2X2X2X2X2X'.t D.v.x.x.  1 :.) ! B @.+.! ! ! D o.5.| ^ Q { ) e.! ! ! X.v 2.! ! , . b.!.b.F.u U.2X2X2X>X>X>X>X).).).).",
"4X4X4X4X2X2X2X2X2X2X2X'.t D.D.S.S.  4 :.X.! B @.+.! ! ! D o.5.! ! ! -.) e.! ! ! ] v 2.! ! , . F.D.F.G.u U.2X2X2X>X>X>X>X).).).).",
"4X4X4X4X2X2X2X2X2X2X2X'.t A.x.z.l.  4 :.) ! B @.+.! ! ! D o.5.! ! ! { ) e.! ! ! ] v 2.! ! , . z.x.v.F.u U.2X2X2X>X>X>X>X).).).).",
"4X4X4X4X2X2X2X2X2X2X2X'.t A.z.k.d.  < :.] ! M @.+.! ! ! D o.5.! ! ! } ) e.! ! ! X.v 2.! ! , . l.x.x.F.u U.2X2X2X>X>X>X>X).).).).",
"4X4X4X4X2X2X2X2X2X2X2X'.t A.k.k.d.  1 :.] ! B @.+.! ! ! D o.5.! ! ! } ) e.! ! ! ] v 2.^ ^ , . f.z.z.F.u U.2X2X2X>X>X>X>X).).).).",
"4X4X4X4X2X2X2X2X2X2X2X2X].X X X X X . v , , > V < , , , 7 8 , , , , S w , , , , b $ , , ,   . o       _.2X2X2X2X>X>X>X>X).).).).",
"4X4X4X4X2X2X2X2X2X2X2X2X1X:X:X:X:X:X:X<X<X<X:X<X-X-X-X-XY.Y.Y.Y.3X3X3X3X<X<X<X<X1X<X<X<X1X,X,X1X:X:X:X1X2X2X2X2X>X>X>X>X).).).).",
"4X4X4X4X>X>X>X>X>X>X>X>X>X>X>X>X>X>X>X>X>X>X>X>X>X>X>X>X).).).).4X4X4X4X>X>X>X>X>X>X>X>X>X>X>X>X>X>X>X>X>X>X>X>X>X>X>X>X).).).).",
"4X4X4X4X>X>X>X>X>X>X>X>X>X>X>X>X>X>X>X>X>X>X>X>X>X>X>X>X).).).).4X4X4X4X>X>X>X>X>X>X>X>X>X>X>X>X>X>X>X>X>X>X>X>X>X>X>X>X).).).).",
"4X4X4X4X>X>X>X>X>X>X>X>X>X>X>X>X>X>X>X>X>X>X>X>X>X>X>X>X).).).).4X4X4X4X>X>X>X>X>X>X>X>X>X>X>X>X>X>X>X>X>X>X>X>X>X>X>X>X).).).).",
"4X4X4X4X>X>X>X>X>X>X>X>X>X>X>X>X>X>X>X>X>X>X>X>X>X>X>X>X).).).).4X4X4X4X>X>X>X>X>X>X>X>X>X>X>X>X>X>X>X>X>X>X>X>X>X>X>X>X).).).).",
").).).).).).).).).).).).).).).).).).).).).).).).).).).).).).).).).).).).).).).).).).).).).).).).).).).).).).).).).).).).).).).).",
").).).).).).).).).).).).).).).).).).).).).).).).).).).).).).).).).).).).).).).).).).).).).).).).).).).).).).).).).).).).).).).).",
").).).).).).).).).).).).).).).).).).).).).).).).).).).).).).).).).).).).).).).).).).).).).).).).).).).).).).).).).).).).).).).).",
").).).).).).).).).).).).).).).).).).).).).).).).).).).).).).).).).).).).).).).).).).).).).).).).).).).).).).).).).).).).).).).)."
};
