/* XPM */
static char *result[] = {
/* columns rows colors chars-per-pixel */
"64 64 169 2 ",
"   c black",
".  c #050707",
"X  c #060707",
"o  c #060808",
"O  c #070809",
"+  c #07090A",
"@  c #090808",
"#  c #0A0A09",
"$  c #0B0A09",
"%  c #080A0A",
"&  c gray4",
"*  c #0B0B0A",
"=  c #0C0B0A",
"-  c #0C0F09",
";  c #0C0C0B",
":  c #0E0D0D",
">  c #0C100A",
",  c #0E120D",
"<  c #0F120D",
"1  c #10130D",
"2  c #111110",
"3  c #121210",
"4  c #131312",
"5  c #242321",
"6  c #282624",
"7  c #2A2926",
"8  c #2B2A27",
"9  c #2D2B28",
"0  c #2E2D2A",
"q  c #31312F",
"w  c #33312E",
"e  c #34322E",
"r  c #303829",
"t  c #333331",
"y  c #373631",
"u  c #363633",
"i  c #3A3937",
"p  c #3A3A38",
"a  c #3E3C38",
"s  c #3D3C3A",
"d  c #3E3D3B",
"f  c #3F3F3C",
"g  c #413F3B",
"h  c #39771D",
"j  c #42403B",
"k  c #43413C",
"l  c #42493F",
"z  c #467B2C",
"x  c #323B41",
"c  c #373D40",
"v  c #373F45",
"b  c #3A3941",
"n  c #173F60",
"m  c #403F47",
"M  c #3C4347",
"N  c #35414B",
"B  c #3C454C",
"V  c #2A4460",
"C  c #3D5161",
"Z  c #35506B",
"A  c #3B566E",
"S  c #395872",
"D  c #454542",
"F  c #464643",
"G  c #424147",
"H  c #4B4944",
"J  c #4D4A45",
"K  c #43434B",
"L  c #414D57",
"P  c #44525D",
"I  c #555450",
"U  c #535257",
"Y  c #585854",
"T  c #5B5B57",
"R  c #5C5B57",
"E  c #615F57",
"W  c #58784B",
"Q  c #606F55",
"!  c #6A675F",
"~  c #5E5E62",
"^  c #4F6575",
"/  c #4B677F",
"(  c #666661",
")  c #636666",
"_  c #686863",
"`  c #696D6B",
"'  c #706F6A",
"]  c #76726A",
"[  c #77746B",
"{  c #79756D",
"}  c #6D6A75",
"|  c #72717A",
" . c #64A23E",
".. c #71A94F",
"X. c #6AA752",
"o. c #6CB152",
"O. c #748D6C",
"+. c #7C8874",
"@. c #7D9873",
"#. c #7BB368",
"$. c #7EBA73",
"%. c #61CF45",
"&. c #69C74F",
"*. c #7BC263",
"=. c #81807A",
"-. c #80807B",
";. c #83827D",
":. c #88847A",
">. c #88867B",
",. c #88877D",
"<. c #8B887D",
"1. c #83D16D",
"2. c #1F5388",
"3. c #757484",
"4. c #7B7C83",
"5. c #7D7B87",
"6. c #7E7E8E",
"7. c #878685",
"8. c #888781",
"9. c #8A8983",
"0. c #8C8A85",
"q. c #8F8C85",
"w. c #81808F",
"e. c #89888C",
"r. c #928D83",
"t. c #918E82",
"y. c #908D8C",
"u. c #929084",
"i. c #949285",
"p. c #909089",
"a. c #999489",
"s. c #848495",
"d. c #858597",
"f. c #898897",
"g. c #9A9992",
"h. c #A3A193",
"j. c #A1A098",
"k. c #A5A49D",
"l. c #A6A49E",
"z. c #B0AD9E",
"x. c #B2ACA0",
"c. c #B6B4AD",
"v. c #A6A7B9",
"b. c #B9B8B0",
"n. c #BFBDB5",
"m. c #C1BEAE",
"M. c #92C88C",
"N. c #9CCC88",
"B. c #99DB85",
"V. c #9FD388",
"C. c #A3DF91",
"Z. c #A5E195",
"A. c #A9E499",
"S. c #CAC7B6",
"D. c #C6C6BC",
"F. c #B9B6D5",
"G. c #BEBBDC",
"H. c #CECCC3",
"J. c #D0CFC6",
"K. c #D2D0C7",
"L. c #DAD6C4",
"P. c #D8D6CD",
"I. c #DFDBC8",
"U. c #C0C0D9",
"Y. c #E5E1CE",
"T. c #C6C4E3",
"R. c #C9C7E8",
"E. c #CBCBFD",
"W. c #F2F1E6",
/* pixels */
"W.W.W.W.W.W.W.W.W.W.W.W.W.W.W.W.W.W.W.W.W.W.W.W.W.W.W.W.x.x.x.x.W.W.W.W.W.W.W.W.W.W.W.W.W.W.W.W.W.W.W.W.W.W.W.W.W.W.W.W.x.x.x.x.",
"W.W.W.W.W.W.W.W.W.W.W.W.W.W.W.W.W.W.W.W.W.W.W.W.W.W.W.W.x.x.x.x.W.W.W.W.W.W.W.W.W.W.W.W.W.W.W.W.W.W.W.W.W.W.W.W.W.W.W.W.x.x.x.x.",
"W.W.W.W.W.W.W.W.W.W.W.W.W.W.W.W.W.W.W.W.W.W.W.W.W.W.W.W.x.x.x.x.W.W.W.W.W.W.W.W.W.W.W.W.W.W.W.W.W.W.W.W.W.W.W.W.W.W.W.W.x.x.x.x.",
"W.W.W.W.W.W.W.W.W.W.W.W.W.W.W.W.W.W.W.W.W.W.W.W.W.W.W.W.x.x.x.x.W.W.W.W.W.W.W.W.W.W.W.W.W.W.W.W.W.W.W.W.W.W.W.W.W.W.W.W.x.x.x.x.",
"W.W.W.W.Y.Y.Y.Y.Y.Y.Y.Y.Y.Y.Y.Y.Y.Y.Y.Y.Y.Y.Y.Y.P.P.P.P.x.x.x.x.W.W.W.W.Y.Y.Y.Y.Y.Y.Y.Y.Y.Y.Y.Y.Y.Y.Y.Y.Y.Y.Y.Y.P.P.P.P.x.x.x.x.",
"W.W.W.W.Y.Y.Y.Y.Y.Y.Y.Y.Y.Y.Y.Y.Y.Y.Y.Y.Y.Y.Y.Y.P.P.P.P.x.x.x.x.W.W.W.W.Y.Y.Y.Y.Y.Y.Y.Y.Y.Y.Y.Y.Y.Y.Y.Y.Y.Y.Y.Y.P.P.P.P.x.x.x.x.",
"W.W.W.W.Y.Y.Y.Y.Y.Y.Y.Y.Y.Y.Y.Y.Y.Y.Y.Y.Y.Y.Y.Y.P.P.P.P.x.x.x.x.W.W.W.W.Y.Y.Y.Y.Y.Y.Y.Y.Y.Y.Y.Y.Y.Y.Y.Y.Y.Y.Y.Y.P.P.P.P.x.x.x.x.",
"W.W.W.W.Y.Y.Y.Y.Y.Y.Y.Y.Y.Y.Y.Y.Y.Y.Y.Y.Y.Y.Y.Y.P.P.P.P.x.x.x.x.W.W.W.W.Y.Y.Y.Y.Y.Y.Y.Y.Y.Y.Y.Y.Y.Y.Y.Y.Y.Y.Y.Y.P.P.P.P.x.x.x.x.",
"W.W.W.W.Y.Y.Y.Y.Y.Y.Y.Y.Y.Y.Y.Y.Y.Y.Y.Y.Y.Y.Y.Y.P.P.8.2 : : : : 4 4 4 4 3 t.Y.Y.Y.Y.Y.Y.Y.Y.Y.Y.Y.Y.Y.Y.Y.Y.Y.Y.P.P.P.P.x.x.x.x.",
"W.W.W.W.Y.Y.Y.Y.Y.Y.Y.Y.Y.Y.Y.Y.Y.Y.Y.Y.Y.Y.Y.Y.P.0.e.6.3.3.3.3.s.s.s.s.w.y.i.Y.Y.Y.Y.Y.Y.Y.Y.Y.Y.Y.Y.Y.Y.Y.Y.Y.P.P.P.P.x.x.x.x.",
"W.W.W.W.Y.Y.Y.Y.Y.Y.Y.Y.Y.Y.Y.Y.Y.Y.Y.Y.Y.Y.Y.Y.P.* d.E.E.E.E.E.E.E.E.E.E.f.= Y.Y.Y.Y.Y.Y.Y.Y.Y.Y.Y.Y.Y.Y.Y.Y.Y.P.P.P.P.x.x.x.x.",
"W.W.W.W.Y.Y.Y.Y.Y.Y.Y.Y.Y.Y.Y.Y.Y.Y.Y.Y.Y.Y.Y.Y.P.c.7.m b b b b K K K K G q.m.Y.Y.Y.Y.Y.Y.Y.Y.Y.Y.Y.Y.Y.Y.Y.Y.Y.P.P.P.P.x.x.x.x.",
"W.W.W.W.Y.Y.Y.Y.Y.Y.Y.Y.Y.Y.Y.Y.Y.Y.Y.Y.Y.Y.Y.Y.P.P.g.d w 0 5 U ~ q f D j h.Y.Y.Y.Y.Y.Y.Y.Y.Y.Y.Y.Y.Y.Y.Y.Y.Y.Y.P.P.P.P.x.x.x.x.",
"W.W.W.W.Y.Y.Y.Y.Y.Y.Y.Y.Y.Y.Y.Y.Y.Y.Y.Y.Y.Y.Y.Y.P.P.P.P.x.{   U.v.  k.W.Y.Y.Y.Y.Y.Y.Y.Y.Y.Y.Y.Y.Y.Y.Y.Y.Y.Y.Y.Y.P.P.P.P.x.x.x.x.",
"W.W.W.W.Y.Y.Y.Y.Y.Y.Y.Y.Y.Y.Y.Y.Y.Y.Y.Y.Y.Y.Y.Y.P.P.P.P.x.{   U.v.  k.W.Y.Y.Y.Y.Y.Y.Y.Y.Y.Y.Y.Y.Y.Y.Y.Y.Y.Y.Y.Y.P.P.P.P.x.x.x.x.",
"W.W.W.W.Y.Y.Y.Y.Y.Y.Y.Y.Y.Y.Y.Y.Y.Y.Y.Y.Y.Y.Y.Y.P.P.P.P.x.{   U.v.  k.W.Y.Y.Y.Y.Y.Y.Y.Y.Y.Y.Y.Y.Y.Y.Y.Y.Y.Y.Y.Y.P.P.P.P.x.x.x.x.",
"W.W.W.W.Y.Y.Y.Y.Y.Y.Y.Y.Y.Y.Y.Y.Y.Y.Y.Y.Y.Y.Y.Y.P.P.P.P.x.{   U.v.  k.W.Y.Y.Y.Y.Y.Y.Y.Y.Y.Y.Y.Y.Y.Y.Y.Y.Y.Y.Y.Y.P.P.P.P.x.x.x.x.",
"W.W.W.W.Y.Y.Y.Y.Y.Y.Y.Y.Y.Y.Y.Y.Y.Y.Y.Y.Y.Y.Y.Y.P.P.P.P.x.{   U.v.  k.W.Y.Y.Y.Y.Y.Y.Y.Y.Y.Y.Y.Y.Y.Y.Y.Y.Y.Y.Y.Y.P.P.P.P.x.x.x.x.",
"W.W.W.W.Y.Y.Y.Y.Y.Y.Y.Y.Y.Y.Y.Y.Y.Y.Y.Y.Y.Y.Y.Y.P.P.P.P.x.{   U.v.  k.W.Y.Y.Y.Y.Y.Y.Y.Y.Y.Y.Y.Y.Y.Y.Y.Y.Y.Y.Y.Y.P.P.P.P.x.x.x.x.",
"W.W.W.W.Y.Y.Y.Y.Y.Y.Y.Y.Y.Y.Y.Y.Y.Y.Y.Y.Y.Y.Y.Y.P.P.P.P.x.{   U.v.  k.W.Y.Y.Y.Y.Y.Y.Y.Y.Y.Y.Y.Y.Y.Y.Y.Y.Y.Y.Y.Y.P.P.P.P.x.x.x.x.",
"W.W.W.W.Y.Y.Y.Y.Y.Y.Y.Y.Y.Y.Y.Y.Y.Y.Y.Y.Y.Y.Y.Y.P.P.l.T H g 8 | 4.p Y ( E z.Y.Y.Y.Y.Y.Y.Y.Y.Y.Y.Y.Y.Y.Y.Y.Y.Y.Y.P.P.P.P.x.x.x.x.",
"W.W.W.W.Y.Y.Y.Y.Y.Y.Y.Y.Y.Y.Y.Y.Y.Y.Y.Y.Y.Y.Y.Y.P.K.-.O X . o o % % % % + ,.I.Y.Y.Y.Y.Y.Y.Y.Y.Y.Y.Y.Y.Y.Y.Y.Y.Y.P.P.P.P.x.x.x.x.",
"W.W.W.W.Y.Y.Y.Y.Y.Y.Y.Y.Y.Y.Y.Y.Y.Y.Y.Y.Y.Y.Y.Y.P.* c n n S 2.2.2.2.2.2.2.M = Y.Y.Y.Y.Y.Y.Y.Y.Y.Y.Y.Y.Y.Y.Y.Y.Y.P.P.P.P.x.x.x.x.",
"W.W.W.W.Y.Y.Y.Y.Y.Y.Y.Y.Y.Y.Y.Y.Y.Y.Y.Y.Y.Y.Y.Y.P.' ) B x v N N P P P P L ` [ Y.Y.Y.Y.Y.Y.Y.Y.Y.Y.Y.Y.Y.Y.Y.Y.Y.P.P.P.P.x.x.x.x.",
"W.W.W.W.P.P.P.P.P.P.P.P.P.P.P.P.P.P.P.P.P.P.P.P.P.P.=.                    =.P.P.P.P.P.P.P.P.P.P.P.P.P.P.P.P.P.P.P.P.P.P.x.x.x.x.",
"W.W.W.W.P.P.P.P.P.P.P.P.P.P.P.P.P.P.P.P.P.P.P.P.P.P.;.& r.] @ F.T.; j.D.& ;.P.P.P.P.P.P.P.P.P.P.P.P.P.P.P.P.P.P.P.P.P.P.x.x.x.x.",
"W.W.W.W.P.P.P.P.P.P.P.P.P.P.P.P.P.P.P.P.P.P.P.P.P.P.=.  a.{   G.R.  k.J.  =.P.P.P.P.P.P.P.P.P.P.P.P.P.P.P.P.P.P.P.P.P.P.x.x.x.x.",
"W.W.W.W.P.P.P.P.P.P.P.P.P.P.P.P.P.P.P.P.P.P.P.P.P.P.=.  a.{   G.R.  k.J.  =.P.P.P.P.P.P.P.P.P.P.P.P.P.P.P.P.P.P.P.P.P.P.x.x.x.x.",
"x.x.x.x.x.x.x.x.x.x.x.x.x.x.x.x.x.x.x.x.x.x.x.x.x.x.!   a.{   G.G.  { a.  ! x.x.x.x.x.x.x.x.x.x.x.x.x.x.x.x.x.x.x.x.x.x.x.x.x.x.",
"x.x.x.x.x.x.x.x.x.x.x.x.x.x.x.x.x.x.x.x.x.x.x.x.x.x.!   a.{   G.G.  { a.  ! x.x.x.x.x.x.x.x.x.x.x.x.x.x.x.x.x.x.x.x.x.x.x.x.x.x.",
"x.x.x.x.x.x.x.x.x.x.x.x.x.x.x.x.x.x.x.x.x.x.x.x.x.x.!   a.{   G.G.  { a.  ! x.x.x.x.x.x.x.x.x.x.x.x.x.x.x.x.x.x.x.x.x.x.x.x.x.x.",
"x.x.x.x.x.x.x.x.x.x.x.x.x.x.x.x.x.x.x.x.x.x.x.x.x.x.!   a.{   G.G.  { a.  ! x.x.x.x.x.x.x.x.x.x.x.x.x.x.x.x.x.x.x.x.x.x.x.x.x.x.",
"W.W.W.W.W.W.W.W.W.W.W.W.W.W.W.W.W.W.W.W.W.W.W.W.W.W.p.  a.{   G.R.  k.J.  p.W.W.W.W.W.W.W.W.W.W.W.W.W.W.W.W.W.W.W.W.W.W.x.x.x.x.",
"W.W.W.W.W.W.W.W.W.W.W.W.W.W.W.W.W.W.W.W.W.W.W.W.W.W.p.  a.{   G.R.  k.J.  p.W.W.W.W.W.W.W.W.W.W.W.W.W.W.W.W.W.W.W.W.W.W.x.x.x.x.",
"W.W.W.W.W.W.W.W.W.W.W.W.W.W.W.W.W.W.W.W.W.W.W.W.W.W.p.  a.{   G.R.  k.J.  p.W.W.W.W.W.W.W.W.W.W.W.W.W.W.W.W.W.W.W.W.W.W.x.x.x.x.",
"W.W.W.W.W.W.W.W.W.W.W.W.W.W.W.W.W.W.W.W.W.W.W.W.W.W.p.  a.{   G.R.  k.J.  p.W.W.W.W.W.W.W.W.W.W.W.W.W.W.W.W.W.W.W.W.W.W.x.x.x.x.",
"W.W.W.W.Y.Y.Y.Y.Y.Y.Y.Y.Y.Y.Y.Y.Y.Y.Y.Y.Y.Y.Y.Y.P.P.=.  a.{   G.R.  k.J.  >.Y.Y.Y.Y.Y.Y.Y.Y.Y.Y.Y.Y.Y.Y.Y.Y.Y.Y.P.P.P.P.x.x.x.x.",
"W.W.W.W.Y.Y.Y.Y.Y.Y.Y.Y.Y.Y.Y.Y.Y.Y.Y.Y.Y.Y.Y.Y.P.P.9.t k a 7 } 5.i I R y u.Y.Y.Y.Y.Y.Y.Y.Y.Y.Y.Y.Y.Y.Y.Y.Y.Y.Y.P.P.P.P.x.x.x.x.",
"W.W.W.W.Y.Y.Y.Y.Y.Y.Y.Y.Y.Y.Y.Y.Y.Y.Y.Y.Y.Y.Y.Y.P.P.;.# - > > > , , 1 < $ <.Y.Y.Y.Y.Y.Y.Y.Y.Y.Y.Y.Y.Y.Y.Y.Y.Y.Y.P.P.P.P.x.x.x.x.",
"W.W.W.W.Y.Y.Y.Y.Y.Y.Y.Y.Y.Y.Y.Y.Y.Y.Y.Y.Y.Y.Y.Y.P.P.=.  z h h h h h .. .  >.Y.Y.Y.Y.Y.Y.Y.Y.Y.Y.Y.Y.Y.Y.Y.Y.Y.Y.P.P.P.P.x.x.x.x.",
"W.W.W.W.Y.Y.Y.Y.Y.Y.Y.Y.Y.Y.Y.Y.Y.Y.Y.Y.Y.Y.Y.Y.P.P.=.  X.o.o.o.*.*.V.N.  >.Y.Y.Y.Y.Y.Y.Y.Y.Y.Y.Y.Y.Y.Y.Y.Y.Y.Y.P.P.P.P.x.x.x.x.",
"W.W.W.W.Y.Y.Y.Y.Y.Y.Y.Y.Y.Y.Y.Y.Y.Y.Y.Y.Y.Y.Y.Y.P.P.=.  &.%.%.%.%.%.A.Z.  >.Y.Y.Y.Y.Y.Y.Y.Y.Y.Y.Y.Y.Y.Y.Y.Y.Y.Y.P.P.P.P.x.x.x.x.",
"W.W.W.W.Y.Y.Y.Y.Y.Y.Y.Y.Y.Y.Y.Y.Y.Y.Y.Y.Y.Y.Y.Y.P.P.=.  &.%.%.%.%.%.A.Z.  >.Y.Y.Y.Y.Y.Y.Y.Y.Y.Y.Y.Y.Y.Y.Y.Y.Y.Y.P.P.P.P.x.x.x.x.",
"W.W.W.W.Y.Y.Y.Y.Y.Y.Y.Y.Y.Y.Y.Y.Y.Y.Y.Y.Y.Y.Y.Y.P.P.=.  &.%.%.%.%.%.A.Z.  >.Y.Y.Y.Y.Y.Y.Y.Y.Y.Y.Y.Y.Y.Y.Y.Y.Y.Y.P.P.P.P.x.x.x.x.",
"W.W.W.W.Y.Y.Y.Y.Y.Y.Y.Y.Y.Y.Y.Y.Y.Y.Y.Y.Y.Y.Y.Y.P.P.=.  &.%.%.%.%.%.A.Z.  >.Y.Y.Y.Y.Y.Y.Y.Y.Y.Y.Y.Y.Y.Y.Y.Y.Y.Y.P.P.P.P.x.x.x.x.",
"W.W.W.W.Y.Y.Y.Y.Y.Y.Y.Y.Y.Y.Y.Y.Y.Y.Y.Y.Y.Y.Y.Y.P.P.H.n.r W 1.1.B.C.O.l S.L.Y.Y.Y.Y.Y.Y.Y.Y.Y.Y.Y.Y.Y.Y.Y.Y.Y.Y.P.P.P.P.x.x.x.x.",
"W.W.W.W.Y.Y.Y.Y.Y.Y.Y.Y.Y.Y.Y.Y.Y.Y.Y.Y.Y.Y.Y.Y.P.P.P.P.J Q #.$.M.@.+._ Y.Y.Y.Y.Y.Y.Y.Y.Y.Y.Y.Y.Y.Y.Y.Y.Y.Y.Y.Y.P.P.P.P.x.x.x.x.",
"W.W.W.W.Y.Y.Y.Y.Y.Y.Y.Y.Y.Y.Y.Y.Y.Y.Y.Y.Y.Y.Y.Y.P.P.P.P.x.{   V Z   k.W.Y.Y.Y.Y.Y.Y.Y.Y.Y.Y.Y.Y.Y.Y.Y.Y.Y.Y.Y.Y.P.P.P.P.x.x.x.x.",
"W.W.W.W.Y.Y.Y.Y.Y.Y.Y.Y.Y.Y.Y.Y.Y.Y.Y.Y.Y.Y.Y.Y.P.P.P.P.x.{   A /   k.W.Y.Y.Y.Y.Y.Y.Y.Y.Y.Y.Y.Y.Y.Y.Y.Y.Y.Y.Y.Y.P.P.P.P.x.x.x.x.",
"W.W.W.W.Y.Y.Y.Y.Y.Y.Y.Y.Y.Y.Y.Y.Y.Y.Y.Y.Y.Y.Y.Y.P.P.P.P.x.:.9 C ^ s b.W.Y.Y.Y.Y.Y.Y.Y.Y.Y.Y.Y.Y.Y.Y.Y.Y.Y.Y.Y.Y.P.P.P.P.x.x.x.x.",
"W.W.W.W.Y.Y.Y.Y.Y.Y.Y.Y.Y.Y.Y.Y.Y.Y.Y.Y.Y.Y.Y.Y.P.P.P.P.x.x.x.6 u W.W.W.Y.Y.Y.Y.Y.Y.Y.Y.Y.Y.Y.Y.Y.Y.Y.Y.Y.Y.Y.Y.P.P.P.P.x.x.x.x.",
"W.W.W.W.Y.Y.Y.Y.Y.Y.Y.Y.Y.Y.Y.Y.Y.Y.Y.Y.Y.Y.Y.Y.P.P.P.P.x.x.x.6 u W.W.W.Y.Y.Y.Y.Y.Y.Y.Y.Y.Y.Y.Y.Y.Y.Y.Y.Y.Y.Y.Y.P.P.P.P.x.x.x.x.",
"W.W.W.W.Y.Y.Y.Y.Y.Y.Y.Y.Y.Y.Y.Y.Y.Y.Y.Y.Y.Y.Y.Y.P.P.P.P.x.x.x.6 u W.W.W.Y.Y.Y.Y.Y.Y.Y.Y.Y.Y.Y.Y.Y.Y.Y.Y.Y.Y.Y.Y.P.P.P.P.x.x.x.x.",
"W.W.W.W.Y.Y.Y.Y.Y.Y.Y.Y.Y.Y.Y.Y.Y.Y.Y.Y.Y.Y.Y.Y.P.P.P.P.x.x.x.6 u W.W.W.Y.Y.Y.Y.Y.Y.Y.Y.Y.Y.Y.Y.Y.Y.Y.Y.Y.Y.Y.Y.P.P.P.P.x.x.x.x.",
"W.W.W.W.Y.Y.Y.Y.Y.Y.Y.Y.Y.Y.Y.Y.Y.Y.Y.Y.Y.Y.Y.Y.P.P.P.P.x.x.x.6 u W.W.W.Y.Y.Y.Y.Y.Y.Y.Y.Y.Y.Y.Y.Y.Y.Y.Y.Y.Y.Y.Y.P.P.P.P.x.x.x.x.",
"W.W.W.W.Y.Y.Y.Y.Y.Y.Y.Y.Y.Y.Y.Y.Y.Y.Y.Y.Y.Y.Y.Y.P.P.P.P.x.x.x.e F W.W.W.Y.Y.Y.Y.Y.Y.Y.Y.Y.Y.Y.Y.Y.Y.Y.Y.Y.Y.Y.Y.P.P.P.P.x.x.x.x.",
"W.W.W.W.P.P.P.P.P.P.P.P.P.P.P.P.P.P.P.P.P.P.P.P.P.P.P.P.x.x.x.x.W.W.W.W.P.P.P.P.P.P.P.P.P.P.P.P.P.P.P.P.P.P.P.P.P.P.P.P.x.x.x.x.",
"W.W.W.W.P.P.P.P.P.P.P.P.P.P.P.P.P.P.P.P.P.P.P.P.P.P.P.P.x.x.x.x.W.W.W.W.P.P.P.P.P.P.P.P.P.P.P.P.P.P.P.P.P.P.P.P.P.P.P.P.x.x.x.x.",
"W.W.W.W.P.P.P.P.P.P.P.P.P.P.P.P.P.P.P.P.P.P.P.P.P.P.P.P.x.x.x.x.W.W.W.W.P.P.P.P.P.P.P.P.P.P.P.P.P.P.P.P.P.P.P.P.P.P.P.P.x.x.x.x.",
"W.W.W.W.P.P.P.P.P.P.P.P.P.P.P.P.P.P.P.P.P.P.P.P.P.P.P.P.x.x.x.x.W.W.W.W.P.P.P.P.P.P.P.P.P.P.P.P.P.P.P.P.P.P.P.P.P.P.P.P.x.x.x.x.",
"x.x.x.x.x.x.x.x.x.x.x.x.x.x.x.x.x.x.x.x.x.x.x.x.x.x.x.x.x.x.x.x.x.x.x.x.x.x.x.x.x.x.x.x.x.x.x.x.x.x.x.x.x.x.x.x.x.x.x.x.x.x.x.x.",
"x.x.x.x.x.x.x.x.x.x.x.x.x.x.x.x.x.x.x.x.x.x.x.x.x.x.x.x.x.x.x.x.x.x.x.x.x.x.x.x.x.x.x.x.x.x.x.x.x.x.x.x.x.x.x.x.x.x.x.x.x.x.x.x.",
"x.x.x.x.x.x.x.x.x.x.x.x.x.x.x.x.x.x.x.x.x.x.x.x.x.x.x.x.x.x.x.x.x.x.x.x.x.x.x.x.x.x.x.x.x.x.x.x.x.x.x.x.x.x.x.x.x.x.x.x.x.x.x.x.",
"x.x.x.x.x.x.x.x.x.x.x.x.x.x.x.x.x.x.x.x.x.x.x.x.x.x.x.x.x.x.x.x.x.x.x.x.x.x.x.x.x.x.x.x.x.x.x.x.x.x.x.x.x.x.x.x.x.x.x.x.x.x.x.x."
};
