/* XPM */
static char *result[] = {
/* columns rows colors chars-per-pixel */
"32 32 256 2 ",
"   c #39424E",
".  c #3D424E",
"X  c #354150",
"o  c #344052",
"O  c #38465E",
"+  c #364867",
"@  c #384865",
"#  c #465C44",
"$  c #5A6656",
"%  c #526852",
"&  c #556B5D",
"*  c #464E62",
"=  c #454F65",
"-  c #4E5460",
";  c #4C5268",
":  c #585C61",
">  c #525D6F",
",  c #5F6163",
"<  c #5C6076",
"1  c #696F66",
"2  c #65666B",
"3  c #66656C",
"4  c #65696C",
"5  c #6C6B6D",
"6  c #6C6C6C",
"7  c #606474",
"8  c #6B6C70",
"9  c #6E6E75",
"0  c #6E6F75",
"q  c #6F6F75",
"w  c #667270",
"e  c #737371",
"r  c #737272",
"t  c #737273",
"y  c #737276",
"u  c #767574",
"i  c #767674",
"p  c #777674",
"a  c #777774",
"s  c #72737F",
"d  c #4B9536",
"f  c #51A03A",
"g  c #569858",
"h  c #6B8D5F",
"j  c #5EA349",
"k  c #5FBD47",
"l  c #62B250",
"z  c #678160",
"x  c #6D9364",
"c  c #73956C",
"v  c #73986F",
"b  c #67CC4D",
"n  c #68C553",
"m  c #7ACB64",
"M  c #79C06A",
"N  c #809878",
"B  c #81A876",
"V  c #777683",
"C  c #777684",
"Z  c #76768C",
"A  c #858481",
"S  c #898885",
"D  c #8A8886",
"F  c #8C8B8A",
"G  c #938F89",
"H  c #92908B",
"J  c #91948D",
"K  c #818190",
"L  c #888792",
"P  c #828399",
"I  c #83829A",
"U  c #86869E",
"Y  c #8F8D98",
"T  c #979590",
"R  c #979493",
"E  c #9B9891",
"W  c #9A9893",
"Q  c #999894",
"!  c #9B9A95",
"~  c #989999",
"^  c #999A98",
"/  c #9A9A98",
"(  c #9C9A98",
")  c #A09F9A",
"_  c #8DA884",
"`  c #A2A299",
"'  c #A1A09B",
"]  c #A2A19B",
"[  c #A6A79E",
"{  c #A6A69F",
"}  c #8D8DA6",
"|  c #8E8EA9",
" . c #8E8FA9",
".. c #8F8FA9",
"X. c #A5A5A0",
"o. c #AAABA2",
"O. c #ACA9A0",
"+. c #AAAAA5",
"@. c #B1AFA8",
"#. c #B1B4A7",
"$. c #B1B5A7",
"%. c #B4B1A8",
"&. c #B4B1A9",
"*. c #B8B3A9",
"=. c #B9B6AC",
"-. c #BBB8AD",
";. c #BDB8AD",
":. c #BFBBAF",
">. c #BEBAB0",
",. c #BFBBB0",
"<. c #BDBCB5",
"1. c #BEBCB4",
"2. c #C0BBB0",
"3. c #C1BCB0",
"4. c #C0BCB2",
"5. c #C0BCB3",
"6. c #C2BDB2",
"7. c #C1BFB6",
"8. c #C3C2B6",
"9. c #C4C0B4",
"0. c #C4C0B6",
"q. c #C5C1B6",
"w. c #C3C2BB",
"e. c #C5C4B9",
"r. c #C7C5B8",
"t. c #C4C4BA",
"y. c #C8C4B9",
"u. c #C9C4B9",
"i. c #C8C4BA",
"p. c #C9C5BA",
"a. c #C9C5BB",
"s. c #C9C6BB",
"d. c #CAC6BB",
"f. c #C9C6BC",
"g. c #CAC9BC",
"h. c #CBC8BD",
"j. c #CBC8BE",
"k. c #CAC9BF",
"l. c #CBCABE",
"z. c #CDC9BD",
"x. c #CDC9BE",
"c. c #CDCABF",
"v. c #CECABE",
"b. c #CECBBF",
"n. c #CDCCBF",
"m. c #CCC9C0",
"M. c #CDCAC0",
"N. c #CECBC1",
"B. c #CECDC0",
"V. c #CFCDC2",
"C. c #D1CEC3",
"Z. c #D0CEC4",
"A. c #D0CFC5",
"S. c #D1CFC5",
"D. c #D2CFC5",
"F. c #D3CFC5",
"G. c #D3D0C5",
"H. c #D2D0C6",
"J. c #D3D1C7",
"K. c #D4D1C7",
"L. c #D4D2C7",
"P. c #D5D2C8",
"I. c #D5D3C8",
"U. c #D5D3C9",
"Y. c #D6D3C8",
"T. c #D7D5C8",
"R. c #D6D4C9",
"E. c #D7D5CA",
"W. c #D7D5CB",
"Q. c #D8D6CB",
"!. c #D9D7CC",
"~. c #D9D7CD",
"^. c #DBD9CB",
"/. c #DBD8CC",
"(. c #DBD9CC",
"). c #DBD8CE",
"_. c #DCD9CC",
"`. c #DCDACD",
"'. c #DDDACD",
"]. c #DDDBCD",
"[. c #DEDBCD",
"{. c #DDDACE",
"}. c #DCDACF",
"|. c #DFDCCC",
" X c #DFDCCE",
".X c #DFDCD0",
"XX c #E0DCCD",
"oX c #E1DECC",
"OX c #E2DECD",
"+X c #E2DFCD",
"@X c #E1DECE",
"#X c #E2DECE",
"$X c #E2DFCE",
"%X c #E3DFCE",
"&X c #E3DFCF",
"*X c #E1DED0",
"=X c #E0DDD3",
"-X c #E0DED4",
";X c #E3E0CF",
":X c #E4E0CD",
">X c #E4E0CE",
",X c #E4E1CE",
"<X c #E5E1CE",
"1X c #E5E1CF",
"2X c #E5E2CF",
"3X c #E6E2CF",
"4X c #E4E1D1",
"5X c #E5E1D1",
"6X c #E6E2D0",
"7X c #E6E3D1",
"8X c #E7E3D1",
"9X c #E7E3D2",
"0X c #E7E4D3",
"qX c #E3E1D4",
"wX c #E2E0D5",
"eX c #E2E1D5",
"rX c #E3E1D5",
"tX c #E3E1D6",
"yX c #E4E1D6",
"uX c #E4E2D6",
"iX c #E5E2D7",
"pX c #E5E3D7",
"aX c #E6E4D5",
"sX c #E7E4D6",
"dX c #E8E5D4",
"fX c #E8E5D5",
"gX c #E8E6D6",
"hX c #E9E6D6",
"jX c #E9E7D7",
"kX c #E4E2D8",
"lX c #E6E3D8",
"zX c #E6E5D8",
"xX c #E6E4D9",
"cX c #E7E5DB",
"vX c #E9E7D9",
"bX c #E9E7DC",
"nX c #EBE8D8",
"mX c #EAE8D9",
"MX c #EBE8D9",
"NX c #EBE9DA",
"BX c #EBE9DB",
"VX c #EBEADA",
"CX c #EBE9DC",
"ZX c #EBE9DE",
"AX c #EDEBDD",
"SX c #ECEADE",
"DX c #EDEBDE",
"FX c #EDECDF",
"GX c #EDECE1",
"HX c #EEECE0",
"JX c #EEEDE1",
"KX c #EFEEE2",
"LX c #F0EEE2",
"PX c #F0EFE2",
"IX c #F0EFE3",
"UX c #F1F0E5",
/* pixels */
"UXIXPXKXKXKXKXKXKXKXKXKXJXcXP.9.b.pXLXIXKXKXKXKXKXKXKXKXKXKXGXkX",
"IXFXVXMXMXMXMXMXMXMXMXvXzX=XV.6.v.iXHXAXNXMXMXMXMXMXMXmXmXvXlX}.",
"PXVXdX9X8X8X8X8X8X8X8X5X*X!.h.3.v.uXDXnX0X8X8X8X8X8X8X8X7X4X.XU.",
"KXMX9X1X<X<X<X<X<X<X<X%X[.R.s.2.v.uXSXhX6X<X<X<X<X<X<X<X<X$X`.H.",
"KXMX8X<X<X<X<X<X<X<X,X+X^.M.5.*.q.!.pXhX3X<X<X<X<X<X<X<X,X#X_.F.",
"KXMX8X<X<X<X<X<X<X<X,XoXn.Q S A F / <.fX3X<X<X<X<X<X<X<X>X#X_.F.",
"KXMX8X<X<X<X<X<X<X<X,XoX8.:   X O = ^ fX3X<X<X<X<X<X<X<X>X#X_.F.",
"KXMX8X<X<X<X<X<X<X<X,X+XB.! 8 < 7 ~ w.fX3X<X<X<X<X<X<X<X>X#X_.F.",
"KXMX8X<X<X<X<X<X<X<X,X+X^.j.R U L A.xXhX3X<X<X<X<X<X<X<X>X#X_.F.",
"KXMX8X<X<X<X<X<X<X<X,X+X].G.( } Y W.SXhX3X<X<X<X<X<X<X<X>X#X_.F.",
"KXMX8X<X,X,X,X,X,X,X:X+XT.@.y Z s X.tXhX2X,X,X,X,X,X,X,X>X@X_.F.",
"KXvX5X%X+X+X+X+X+X+X+X|.e.4 o @ + > +.aX;X+X+X+X+X+X+X+XOXXX/.D.",
"JXzX*X[.].].].].].].].(.7., . ; * - ) qX X].].].].].].].'.`.!.D.",
"cX=X!.R.Y.Y.Y.Y.Y.Y.Y.L.1.e 3 I C 5 ] }.E.I.Y.Y.Y.Y.Y.Y.Y.I.K.N.",
"P.V.h.s.a.p.p.p.p.p.p.i.%.p 9 | K r W c.f.a.p.p.p.p.p.p.p.p.i.0.",
"9.6.3.2.2.2.2.2.2.2.2.,.O.u q ..K t H 3.2.2.2.2.2.2.2.2.2.2.:.;.",
"b.v.v.v.v.v.v.v.v.v.v.z.=.a 0  .K t T z.v.v.v.v.v.v.v.v.v.v.x.u.",
"pXiXuXuXuXuXuXuXuXuXuXrXk.i 2 P V 6 ' yXuXuXuXuXuXuXuXuXuXyXwX).",
"LXHXDXSXSXSXSXSXSXSXSXCXZ.1 # & % $ { DXSXSXSXSXSXSXSXSXSXZXbX-X",
"IXAXnXhXhXhXhXhXhXhXhXaXl.z d f j h [ BXjXhXhXhXhXhXhXhXhXsXwX~.",
"KXNX0X6X3X3X3X3X3X3X2X$Xr.x k b m B o.gX7X3X3X3X3X3X3X3X1X&X{.J.",
"KXMX8X<X<X<X<X<X<X<X,XoXg.N l n M _ t.fX3X<X<X<X<X<X<X<X>X#X_.F.",
"KXMX8X<X<X<X<X<X<X<X,X+XT.#.c g v $.eXhX3X<X<X<X<X<X<X<X>X#X_.F.",
"KXMX8X<X<X<X<X<X<X<X,X+X].C.` w J R.SXhX3X<X<X<X<X<X<X<X>X#X_.F.",
"KXMX8X<X<X<X<X<X<X<X,X+X].Y.4.D &.rXSXhX3X<X<X<X<X<X<X<X>X#X_.F.",
"KXMX8X<X<X<X<X<X<X<X,X+X].Y.0.G -.uXSXhX3X<X<X<X<X<X<X<X>X#X_.F.",
"KXMX8X<X<X<X<X<X<X<X,X+X].Y.q.E >.uXSXhX3X<X<X<X<X<X<X<X>X#X_.F.",
"KXmX8X<X<X<X<X<X<X<X,X+X].Y.y.*.d.uXSXhX3X<X<X<X<X<X<X<X>X#X_.F.",
"KXmX7X<X,X>X>X>X>X>X>XOX'.Y.p.2.v.uXSXhX1X>X>X>X>X>X>X>X>X@X_.F.",
"KXvX4X$X#X#X#X#X#X#X@XXX`.I.p.2.v.yXZXsX&X#X#X#X#X#X#X#X@X X/.D.",
"GXlX.X`._._._._._._._./.!.K.i.:.x.wXbXwX{._._._._._._._._./.Q.S.",
"kX}.U.H.F.F.F.F.F.F.F.D.D.N.0.;.u.).-X~.J.F.F.F.F.F.F.F.F.D.S.m."
};
