/* XPM */
static char *result[] = {
/* columns rows colors chars-per-pixel */
"32 32 137 2 ",
"   c #B6B0A5",
".  c #B9B4A8",
"X  c #BAB4A9",
"o  c #BDB8AC",
"O  c #BDB8AD",
"+  c #BEB9AE",
"@  c #BFBAAF",
"#  c #BFBBAF",
"$  c #BFBBB0",
"%  c #C0BBB0",
"&  c #C1BCB0",
"*  c #C2BDB1",
"=  c #C2BDB2",
"-  c #C2BEB3",
";  c #C4C0B4",
":  c #C4C0B6",
">  c #C7C3B7",
",  c #C6C2B8",
"<  c #C9C4B9",
"1  c #C8C4BA",
"2  c #C8C5BA",
"3  c #C9C5BA",
"4  c #C9C5BB",
"5  c #C9C6BB",
"6  c #CBC6BB",
"7  c #C9C6BC",
"8  c #CBC8BD",
"9  c #CDC9BE",
"0  c #CECABE",
"q  c #CECBBF",
"w  c #CCC9C0",
"e  c #CECBC0",
"r  c #CECBC1",
"t  c #CFCCC0",
"y  c #CFCDC2",
"u  c #D1CEC4",
"i  c #D1CFC5",
"p  c #D2CFC5",
"a  c #D3CFC5",
"s  c #D3D0C5",
"d  c #D2D0C6",
"f  c #D3D1C7",
"g  c #D4D1C7",
"h  c #D4D2C8",
"j  c #D5D2C8",
"k  c #D5D3C8",
"l  c #D5D3C9",
"z  c #D6D3C8",
"x  c #D6D4C9",
"c  c #D7D5CA",
"v  c #D8D6CB",
"b  c #D9D7CB",
"n  c #D9D7CC",
"m  c #D9D7CD",
"M  c #DAD7CC",
"N  c #DBD8CC",
"B  c #DBD8CE",
"V  c #DCD9CC",
"C  c #DCDACD",
"Z  c #DDDACD",
"A  c #DDDBCD",
"S  c #DEDBCD",
"D  c #DDDACE",
"F  c #DCDACF",
"G  c #DFDCCE",
"H  c #DDDBD0",
"J  c #DFDCD0",
"K  c #E0DCCD",
"L  c #E0DDCD",
"P  c #E2DECD",
"I  c #E2DFCD",
"U  c #E1DECE",
"Y  c #E2DECE",
"T  c #E2DFCE",
"R  c #E3DFCE",
"E  c #E3DFCF",
"W  c #E1DED0",
"Q  c #E0DDD3",
"!  c #E0DED4",
"~  c #E3E0CF",
"^  c #E4E0CD",
"/  c #E4E0CE",
"(  c #E4E1CE",
")  c #E5E1CE",
"_  c #E5E1CF",
"`  c #E5E2CF",
"'  c #E6E2CF",
"]  c #E4E1D1",
"[  c #E5E1D1",
"{  c #E6E2D0",
"}  c #E6E3D1",
"|  c #E7E3D1",
" . c #E7E3D2",
".. c #E7E4D3",
"X. c #E2E0D5",
"o. c #E3E1D5",
"O. c #E3E1D6",
"+. c #E4E2D5",
"@. c #E4E1D6",
"#. c #E4E2D6",
"$. c #E4E2D7",
"%. c #E5E2D7",
"&. c #E5E3D7",
"*. c #E7E4D6",
"=. c #E7E5D6",
"-. c #E8E5D4",
";. c #E9E6D6",
":. c #E9E7D7",
">. c #E4E2D8",
",. c #E6E3D8",
"<. c #E6E5D8",
"1. c #E7E5DB",
"2. c #E9E7D9",
"3. c #E9E7DC",
"4. c #EBE8D8",
"5. c #EAE8D9",
"6. c #EBE8D9",
"7. c #EBE9DA",
"8. c #EBEADA",
"9. c #EAE8DC",
"0. c #EBE9DE",
"q. c #ECEADC",
"w. c #ECEADD",
"e. c #EDEBDD",
"r. c #ECEADE",
"t. c #EDEBDE",
"y. c #EDECDF",
"u. c #EEECDF",
"i. c #EDECE0",
"p. c #EDECE1",
"a. c #EEECE0",
"s. c #EEEDE1",
"d. c #EFEEE2",
"f. c #F0EEE2",
"g. c #F0EFE2",
"h. c #F0EFE3",
"j. c #F1F0E5",
/* pixels */
"j.h.g.d.d.d.d.d.d.d.d.d.s.1.j ; q &.f.h.d.d.d.d.d.d.d.d.d.d.p.>.",
"h.y.8.6.6.6.6.6.6.6.6.2.<.Q y = 0 %.a.e.7.6.6.6.6.6.6.5.5.2.,.F ",
"g.8.-. .| | | | | | | [ W n 8 & 0 #.t.4...| | | | | | | } ] J l ",
"d.6. ._ ) ) ) ) ) ) ) R S x 5 % 0 #.r.;.{ ) ) ) ) ) ) ) ) T C d ",
"d.6.| ) ) ) ) ) ) ) ( I A z 4 % 0 #.r.;.' ) ) ) ) ) ) ) ( Y V a ",
"d.6.| ) ) ) ) ) ) ) ( I A z 3 % 0 #.r.;.' ) ) ) ) ) ) ) / Y V a ",
"d.6.| ) ) ) ) ) ) ) ( I A z 3 % 0 #.r.;.' ) ) ) ) ) ) ) / Y V a ",
"d.6.| ) ) ) ) ) ) ) ( I A z 3 % 0 #.r.;.' ) ) ) ) ) ) ) / Y V a ",
"d.6.| ) ) ) ) ) ) ) ( I A z 3 % 0 #.r.;.' ) ) ) ) ) ) ) / Y V a ",
"d.6.| ) ) ) ) ) ) ) ( I A z 3 % 0 #.r.;.' ) ) ) ) ) ) ) / Y V a ",
"d.6.| ) ( ( ( ( ( ( ^ I A z 3 % 0 #.r.;.` ( ( ( ( ( ( ( / U V a ",
"d.2.[ R I I I I I I I L C k 3 % 0 #.w.=.~ I I I I I I I P K N p ",
"s.<.W S A A A A A A A C M h 2 $ 0 O.9.+.G A A A A A A A Z C n p ",
"1.Q n x z z z z z z z k h u , + 6 J $.H c k z z z z z z z k g r ",
"j y 8 5 4 3 3 3 3 3 3 3 2 , @ X * t s e 7 4 3 3 3 3 3 3 3 3 1 : ",
"; = & % % % % % % % % % $ + X   . % - * % % % % % % % % % % # O ",
"q 0 0 0 0 0 0 0 0 0 0 0 0 6 * . o > 9 0 0 0 0 0 0 0 0 0 0 0 9 < ",
"&.%.#.#.#.#.#.#.#.#.#.#.O.J t % > b o.%.#.#.#.#.#.#.#.#.#.@.X.B ",
"f.a.t.r.r.r.r.r.r.r.r.w.9.$.s - 9 o.i.u.r.r.r.r.r.r.r.r.r.0.3.! ",
"h.e.4.;.;.;.;.;.;.;.;.=.+.H e * 0 %.u.q.:.;.;.;.;.;.;.;.;.*.X.m ",
"d.7...{ ' ' ' ' ' ' ` ~ G c 7 % 0 #.r.:.} ' ' ' ' ' ' ' _ E D f ",
"d.6.| ) ) ) ) ) ) ) ( I A k 4 % 0 #.r.;.' ) ) ) ) ) ) ) / Y V a ",
"d.6.| ) ) ) ) ) ) ) ( I A z 3 % 0 #.r.;.' ) ) ) ) ) ) ) / Y V a ",
"d.6.| ) ) ) ) ) ) ) ( I A z 3 % 0 #.r.;.' ) ) ) ) ) ) ) / Y V a ",
"d.6.| ) ) ) ) ) ) ) ( I A z 3 % 0 #.r.;.' ) ) ) ) ) ) ) / Y V a ",
"d.6.| ) ) ) ) ) ) ) ( I A z 3 % 0 #.r.;.' ) ) ) ) ) ) ) / Y V a ",
"d.6.| ) ) ) ) ) ) ) ( I A z 3 % 0 #.r.;.' ) ) ) ) ) ) ) / Y V a ",
"d.5.| ) ) ) ) ) ) ) ( I A z 3 % 0 #.r.;.' ) ) ) ) ) ) ) / Y V a ",
"d.5.} ) ( / / / / / / P Z z 3 % 0 #.r.;._ / / / / / / / / U V a ",
"d.2.] T Y Y Y Y Y Y U K C k 3 % 0 @.0.*.E Y Y Y Y Y Y Y U G N p ",
"p.,.J C V V V V V V V N n g 1 # 9 X.3.X.D V V V V V V V V N v i ",
">.F l d a a a a a a a p p r : O < B ! m f a a a a a a a a p i w "
};
