/* XPM */
static char *result[] = {
/* columns rows colors chars-per-pixel */
"32 32 176 2 ",
"   c #1C1E22",
".  c #1E2227",
"X  c #292B2E",
"o  c #372826",
"O  c #3F322E",
"+  c #2A2E31",
"@  c #2A3539",
"#  c #343030",
"$  c #3E3230",
"%  c #55362C",
"&  c #403230",
"*  c #6B3F2D",
"=  c #323E42",
"-  c #324244",
";  c #37484C",
":  c #3D5559",
">  c #545557",
",  c #5B5858",
"<  c #44696E",
"1  c #456E73",
"2  c #486F73",
"3  c #477175",
"4  c #487173",
"5  c #477679",
"6  c #47797C",
"7  c #79736E",
"8  c #657576",
"9  c #747D7D",
"0  c #88472C",
"q  c #9A4C28",
"w  c #9C502F",
"e  c #8B4B31",
"r  c #924F32",
"t  c #9D5234",
"y  c #AA552D",
"u  c #B1582C",
"i  c #AC5932",
"p  c #A55B3B",
"a  c #B55C32",
"s  c #B95E33",
"d  c #B35F3A",
"f  c #AA613F",
"g  c #BB6136",
"h  c #B5613D",
"j  c #BC633A",
"k  c #BA6438",
"l  c #C06336",
"z  c #C36539",
"x  c #C4693C",
"c  c #C96A3C",
"v  c #865443",
"b  c #995B44",
"n  c #A66145",
"m  c #AB6243",
"M  c #AC654A",
"N  c #B46644",
"B  c #BC6A45",
"V  c #B6694A",
"C  c #BA6C4B",
"Z  c #B47145",
"A  c #BD7146",
"S  c #A06B55",
"D  c #B37054",
"F  c #BD7354",
"G  c #856F64",
"H  c #8E7061",
"J  c #A67C6B",
"K  c #B87C64",
"L  c #C46C43",
"P  c #CD6E41",
"I  c #C16E49",
"U  c #CA7547",
"Y  c #D37846",
"T  c #D67845",
"R  c #DB7A43",
"E  c #75807F",
"W  c #BF8458",
"Q  c #9D8A7C",
"!  c #B48865",
"~  c #BC8961",
"^  c #D7804C",
"/  c #DC834B",
"(  c #C38354",
")  c #CC8454",
"_  c #D58955",
"`  c #DE8E5A",
"'  c #DF9057",
"]  c #E8894F",
"[  c #E48D54",
"{  c #EA8C52",
"}  c #E18E58",
"|  c #C99372",
" . c #EA926C",
".. c #6B7F80",
"X. c #558A8F",
"o. c #598D92",
"O. c #5B9A9F",
"+. c #6E8483",
"@. c #718382",
"#. c #758888",
"$. c #689B9C",
"%. c #749598",
"&. c #5C9CA2",
"*. c #639EA3",
"=. c #5DA4A7",
"-. c #5CA7AB",
";. c #5CADB1",
":. c #5BB0B1",
">. c #62A2A6",
",. c #6CA6A5",
"<. c #62A6AA",
"1. c #61A9AD",
"2. c #7AA5A6",
"3. c #61AFB1",
"4. c #74AFB3",
"5. c #63B2B5",
"6. c #6CB3B5",
"7. c #64B5B9",
"8. c #72B6BA",
"9. c #76B5B8",
"0. c #84908B",
"q. c #909891",
"w. c #97A198",
"e. c #80ADAD",
"r. c #97BABC",
"t. c #BEB0A7",
"y. c #BEBAAE",
"u. c #A9B6B4",
"i. c #C99A8B",
"p. c #CAA699",
"a. c #CFA89C",
"s. c #D1AD9B",
"d. c #C0BBB0",
"f. c #D4BAB1",
"g. c #E0BFB6",
"h. c #C4C0B5",
"j. c #C9C5BA",
"k. c #CECABE",
"l. c #DAC4BE",
"z. c #80C0C2",
"x. c #95C3C5",
"c. c #9FC7C7",
"v. c #95C7CA",
"b. c #9FC7C9",
"n. c #9FCACB",
"m. c #A0C5C5",
"M. c #ABC3C4",
"N. c #A0C7C8",
"B. c #A3C9C9",
"V. c #B8CECE",
"C. c #ABCFD0",
"Z. c #BCD5D5",
"A. c #CECBC1",
"S. c #D3CFC5",
"D. c #D3D1C7",
"F. c #D6D3C8",
"G. c #D9D7CC",
"H. c #DCD9CC",
"J. c #C6D6D6",
"K. c #DFDCD0",
"L. c #D7DEDE",
"P. c #E2DECE",
"I. c #E0DED2",
"U. c #E8DDD9",
"Y. c #E5E1CE",
"T. c #E6E3D2",
"R. c #E9E6D6",
"E. c #E6E4D9",
"W. c #E9E7DA",
"Q. c #EBE9DA",
"!. c #D5E1E0",
"~. c #DDE4E4",
"^. c #EFEEE2",
"/. c #E6ECEB",
"(. c #F0EFE3",
"). c #F1F0E5",
/* pixels */
").(.(.(.(.Q.(.(.(.(.(.(.^.E.G.d.A.E.(.(.^.^.^.^.^.^.(.(.(.^.Q.E.",
").Q.Q.Q.Q.Q.Q.Q.R.Q.Q.R./.!.Z.M.u.t.s.p.f.U.Q.Q.Q.Q.R.Q.Q.Q.E.K.",
").Q.R.T.T.T.T.T.T.T./.J.N.4.7.6.w.| ' A F a.U.Y.T.T.Y.T.T.T.K.F.",
"^.Q.T.Y.Y.Y.Y.Y.Y.!.B.z.8.&.o.8 ! } / j x F p.L.Y.Y.Y.Y.Y.Y.G.D.",
"(.Q.Y.Y.Y.Y.Y.Y.!.m.8.<.o.5 : v U ] ^ j c g J u.~.Y.Y.Y.Y.Y.G.D.",
"(.R.R.Y.Y.Y.Y./.B.4.O.6 : - O u / { Y j c l S q.M./.Y.Y.Y.H.G.D.",
"(.R.T.Y.Y.Y.Y.J.9.&.5 - + # % z ] ' P g z l M Q e.J.Y.Y.Y.P.H.D.",
"(.Q.Y.Y.Y.Y.!.r.,.X.; + + # * c { ' P g z l k J 2.u.~.Y.P.P.H.S.",
"(.Q.T.Y.Y.Y.J.8.<.< @ + + # e / { _ P s c z s K 2.9.J.T.Y.P.H.D.",
"(.R.Y.Y.Y.Y.V.8.o.: X + + O r c [ ) L s x z s F #.8.Z.Y.Y.P.G.D.",
"(.R.R.Y.Y.Y.B.6.E ; X + + O e x Y I z a l s a C @.:.C.Y.Y.Y.H.D.",
"(.R.Y.Y.H.Y.x.1.1 - X + + O e g z N B N z d y M +.-.B.Y.Y.H.G.D.",
"(.R.P.H.H.H.x.>.< - + + + $ r j x m V V B B k n 9 <.N.H.G.H.G.D.",
"W.I.G.G.F.G.v.5.6 - . + + $ w / R Z t t p M V D 0.5.n.F.F.F.D.k.",
"F.S.j.j.j.j.x.>.< @ + + + $ r c { ) j i i p t b 9 $.N.j.j.j.j.h.",
"h.d.d.d.y.d.v.1.6 - + + + $ r / { ) L a k a y n +.;.n.d.d.y.y.y.",
"A.A.k.S.k.k.v.3.5 - X + + & r R } ~ F h c s s V @.;.n.A.k.j.k.j.",
"T.T.I.E.T.T.x.>.2 - X + + & r R ` ! F k c l s C ..=.b.E.E.E.E.G.",
"(.^.Q.Q.Q.^.v.5.6 - X X + & r R } W B j c z s C #.;.B.Q.^.Q.W.K.",
"(.Q.W.R.R.R.x.1.2 - X + + & r R [ ( j g z l s C ..>.B.W.T.T.E.G.",
"(.Q.R.T.Y.Y.v.1.4 = X X + $ r R [ ( L g x j s C E -.n.Y.T.I.H.D.",
"(.W.T.P.Y.Y.x.>.2 - X + + & r R ` ! F j c l s C E =.b.Y.P.P.H.S.",
"(.Q.T.Y.Y.Y.x.<.2 = X + + & r R ` ! F N c z s C 9 =.N.Y.Y.P.H.S.",
"(.Q.Y.Y.Y.Y.x.1.3 - X + + & r R [ ) U k z s a C E -.B.Y.P.P.H.S.",
"(.R.T.Y.Y.Y.x.*.1 = X + + $ r R { _ P s j s i N G $.c.Y.P.P.H.S.",
"(.Q.T.Y.Y.Y.c.1.5 - X X + $ r Y ] ) j s j L I V H ,.n.Y.Y.P.H.S.",
"(.Q.T.Y.Y.Y.v.1.1 = X + + $ e c T U I C N m p b 7 =.b.Y.P.P.H.S.",
"(.R.Y.Y.Y.Y.x.1.3 - X + + $ 0 j x B V m f t q b E -.n.Y.Y.P.H.S.",
"^.Q.T.Y.Y.Y.x.-.1 @   . . o 0 l L f p q y y u C E -.c.Y.P.P.H.S.",
"^.R.T.Y.P.P.u.%.8 , > > > , b Y ^ A g a z j s F 7 %.M.P.P.P.G.S.",
"^.E.H.G.G.G.K.K.H.H.H.G.G.S.a. .] ) c g z L K a.K.G.H.H.G.G.G.S.",
"E.G.G.D.D.S.D.D.S.S.S.S.S.S.g. .] _ c g F i.l.D.D.D.S.S.S.S.S.k."
};
