/* XPM */
static char *result[] = {
/* columns rows colors chars-per-pixel */
"32 32 192 2 ",
"   c #19293C",
".  c #573D31",
"X  c #5F402E",
"o  c #7D4D29",
"O  c #67483C",
"+  c #754D38",
"@  c #19364C",
"#  c #31394B",
"$  c #493E4D",
"%  c #174667",
"&  c #18597E",
"*  c #214C6C",
"=  c #34596F",
"-  c #1F617E",
";  c #346377",
":  c #484C57",
">  c #594956",
",  c #47535F",
"<  c #595359",
"1  c #654945",
"2  c #6B584E",
"3  c #725F4E",
"4  c #6E5455",
"5  c #615A54",
"6  c #685559",
"7  c #72625F",
"8  c #485367",
"9  c #575667",
"0  c #4D5B75",
"q  c #715F65",
"w  c #645E70",
"e  c #45617D",
"r  c #49687A",
"t  c #536279",
"y  c #67676C",
"u  c #776B68",
"i  c #7F766B",
"p  c #646E75",
"a  c #69717D",
"s  c #717075",
"d  c #99610F",
"f  c #AB680D",
"g  c #B56B0A",
"h  c #BA6D0B",
"j  c #BF700C",
"k  c #AA6418",
"l  c #B56A10",
"z  c #B77913",
"x  c #8D5927",
"c  c #905E2F",
"v  c #975C36",
"b  c #986A3B",
"n  c #AC782B",
"m  c #BA7824",
"M  c #A56A35",
"N  c #A4793D",
"B  c #BD7D31",
"V  c #C27E10",
"C  c #845644",
"Z  c #915E46",
"A  c #946B44",
"S  c #906B49",
"D  c #9E7443",
"F  c #9B734F",
"G  c #8C6C5D",
"H  c #916D59",
"J  c #A37944",
"K  c #AE7251",
"L  c #8A6B6B",
"P  c #906761",
"I  c #887A6B",
"U  c #957967",
"Y  c #8B6E72",
"T  c #8A7777",
"R  c #9B7C71",
"E  c #C38516",
"W  c #CD8914",
"Q  c #D28F16",
"!  c #D59419",
"~  c #D89718",
"^  c #DB9A1A",
"/  c #D79A39",
"(  c #BA8351",
")  c #958C7D",
"_  c #AA806C",
"`  c #B58F6E",
"'  c #A28978",
"]  c #D49A41",
"[  c #C89676",
"{  c #195F8B",
"}  c #245D83",
"|  c #11638F",
" . c #0A6593",
".. c #1A6A94",
"X. c #16789A",
"o. c #2F6E91",
"O. c #2C7194",
"+. c #0273AB",
"@. c #217DA3",
"#. c #2772A8",
"$. c #4A6782",
"%. c #577289",
"&. c #4F6C90",
"*. c #676C89",
"=. c #667989",
"-. c #757786",
";. c #667793",
":. c #887583",
">. c #1F8EB2",
",. c #2887A9",
"<. c #208DB7",
"1. c #2895BA",
"2. c #3D9AB6",
"3. c #4D849C",
"4. c #6A8598",
"5. c #798694",
"6. c #7B8B93",
"7. c #4B87A5",
"8. c #4D96BA",
"9. c #699BAC",
"0. c #7792A7",
"q. c #1396C4",
"w. c #269FC5",
"e. c #27A4C8",
"r. c #38A6C7",
"t. c #2AADD3",
"y. c #2BB3DA",
"u. c #938E8F",
"i. c #8C908F",
"p. c #9A958B",
"a. c #9D8F97",
"s. c #9A9A94",
"d. c #A78983",
"f. c #A69B8B",
"g. c #B89783",
"h. c #A09D93",
"j. c #A8A496",
"k. c #AAA79B",
"l. c #B3A691",
"z. c #8298A5",
"x. c #849DAA",
"c. c #899DA9",
"v. c #979FA3",
"b. c #89A2AF",
"n. c #9BA8A8",
"m. c #AFACA4",
"M. c #B4B1A3",
"N. c #B9B5A5",
"B. c #B6B4AA",
"V. c #B9B6AB",
"C. c #BDB9AE",
"Z. c #A8AAB4",
"A. c #B6B7B2",
"S. c #BCBBB2",
"D. c #D3A990",
"F. c #D7AF99",
"G. c #C4ADA7",
"H. c #CBBAAC",
"J. c #C1BCB0",
"K. c #E2BDAB",
"L. c #C5C1B6",
"P. c #C9C6B6",
"I. c #CCC8B7",
"U. c #C4C3B9",
"Y. c #C9C5BA",
"T. c #CECABD",
"R. c #D3CFBE",
"E. c #D4D0BE",
"W. c #ECC2A9",
"Q. c #BDBEC7",
"!. c #C0BCC5",
"~. c #CECBC1",
"^. c #D3CFC5",
"/. c #D4D2C5",
"(. c #DAD7C5",
"). c #DDD9C7",
"_. c #D6D3C8",
"`. c #D9D7CC",
"'. c #DCD9CC",
"]. c #D2CCD4",
"[. c #DEDCD1",
"{. c #E2DECE",
"}. c #E0DED3",
"|. c #E5E1CE",
" X c #E6E2D3",
".X c #E9E6D6",
"XX c #E6E4D9",
"oX c #E9E7DA",
"OX c #EBE9DB",
"+X c #EFEEE2",
"@X c #F0EFE3",
"#X c #F1F0E5",
/* pixels */
"#X@X@X+X@X@X+X+X@X@X@X@XOXoX_.L.T. X+X+X@X@X@X+X+X+X@X@X@X+X+X X",
"#XOXOXOX.XOX.XOXOXOXOX.XXX[.^.J.T. X+XOXOXOXOXOXOXOXOXOX.XOXXX'.",
"#XOX.X X|.|.|..X|.|..X X`.V.k.s.k.S.`.OX.X|.|..X|.|.|..X|. X[._.",
"+XOX X|.|.|.|.|.|.|.(.M.f.F J N J J f.M.I.|.|.|.|.|.|.|.{.{.'.^.",
"@XOX|.|.|.|.|.|.|.(.l.A n W ~ ^ ~ Q m b ' E.|.|.|.|.|.|.|.{.'.^.",
"@X.X.X|.|.|.|.|.{.M.S V ~ ^ ^ ^ ^ ^ ^ W n f.E.|.|.|.|.|.|.{.'.^.",
"@X.X.X|.|.|.|.|.E.I d ! ^ ^ ^ ^ ^ ^ ^ ^ z X B.|.|.|.|.|.{.{.'.^.",
"@XOX.X|.|.|.|.|.(.I d z ^ ^ ^ ^ ^ ^ ^ W f + N.|.|.|.|.|.|.{.'.^.",
"@XOX|.|.|.|.|.).) M h g z ~ ^ ^ ^ ^ E f g f U E.|.|.|.|.|.{.'.^.",
"@X.X.X|.|.|.|.(.3 f j l x b D D D b c k V h o I.|.|.|.|.|.{.'.^.",
"@XOX|.|.|.|.|.).5 + M C > e %.4.;.$.9 4 v v . I.|.|.|.|.{.{.'.^.",
"@XOX|.|.{.{.|.(.< $ 6 0 %.0.z.b.b.0.;.0 6 $ # P.{.|.{.{.{.{.`.^.",
"@X.X}.{.'.'.'._.7 , 0 8 *.x.b.c.x.x.4.9 0 8 < U.'.'.'.'.[.'.`./.",
"XX{.`._._._._._.B.y q g.Q.s P P G 7 Z.G.Y , s.^._._.`._._._.^.T.",
"_.^.T.Y.Y.Y.Y.Y.m.y 6 g.].a.` [ [ d.!.H.H # s.L.Y.Y.Y.Y.P.P.U.U.",
"J.J.J.S.J.J.J.V.a o.= 3 D.K.W.W.W.K.F.R , ..$.m.C.L.C.L.S.J.S.C.",
"~.~.T.~.~.Y.~.P.=.r.e.; P D.F.[ D.F.R 8 ,.t.3.V.T.T.T.T.T.T.T.U.",
"XX}. X X XXX XXX^.6.w.t.@.; O + + : O.e.t.7.A.}.XXXXXXXX XXX[.[.",
"+X+XOX+X+XoXOXOX[.6.X.,.w.,.9 + 4 O.e.<.@.r U.+XOXOXOXOX+X+XoX[.",
"@XOXOX.X.XXXXX XS.9.e.<.} - T B ' @.- @.e.2.n.}..X.XOX.X XXX}.[.",
"+XOX.X X|.|.|.P.4.r.y.e.{ X.n.] l.1.{ >.t.y.7.S.{. X|.|.}.{.'._.",
"+X.X X|.|.|.).) 5.8.7.6.% +.v.] g.q.| -.4.1.0.u H.|.|.|.|.{.`.^.",
"@XOX X|.|.|.).F ( Y y s.} +.d./ ` +. .u.) y _ A L.|.|.|.{.{.`._.",
"@XOX|.|.|.|.|.M.b H ) 5 -.#.:.B _ +.;.q i U x g.R.|.|.|.|.{.'.^.",
"@X.X X|.|.|.|.{.k.j.p.t L :.U m K :.Y w 6.l.j.E.|.|.|.|.|.{.)./.",
"@XOX|.|.|.|.|.|.{.I.p | &.Y P v Z L *...e N.{.|.|.|.|.|.|.{.`.^.",
"@XOX|.|.|.|.|.|.|.T.y *  . .%   @ &  .& , N.{.|.|.|.|.|.{.{.'./.",
"@X.X.X|.|.|.|.|.{.Y.u O 9 p p.p.h.i.9 1 2 V.|.|.|.|.|.|.|.{.'.^.",
"+XOX X|.|.|.|.{.{.{.M.3 i V.U.J.T._.h.O p.(.{.{.|.{. X{.{.{.`.^.",
"+X.X|.}.{.{.{.{.{.{.^.N.C.^.Y.J.T. X/.V.T.{.{.{.{.{.{.{.{.{.'.^.",
"+XXX[.'.'.).{.).'.'.'.'.`.^.Y.S.~.[.oX X'.'.'.'.'.'.'.'.`.`._./.",
"XX`._.^.^.^.^.^.^.^.^.^.^.~.J.S.Y.[.[.`.^.^.^.^.^.^.^.^./.^.^.T."
};
