/* XPM */
static char *result[] = {
/* columns rows colors chars-per-pixel */
"64 64 196 2 ",
"   c #000000",
".  c #0B0601",
"X  c #090B0B",
"o  c #150C01",
"O  c #171009",
"+  c #080C14",
"@  c #011018",
"#  c #151418",
"$  c #11121C",
"%  c #1A191C",
"&  c #2D1903",
"*  c #351D03",
"=  c #3B2504",
"-  c #22201E",
";  c #2A2B1E",
":  c #36271E",
">  c #051824",
",  c #161927",
"<  c #062837",
"1  c #1D2234",
"2  c #142931",
"3  c #282724",
"4  c #2A2927",
"5  c #39332E",
"6  c #222639",
"7  c #293437",
"8  c #3A3938",
"9  c #482806",
"0  c #553103",
"q  c #5C3505",
"w  c #623608",
"e  c #43372E",
"r  c #473B3C",
"t  c #623F23",
"y  c #72440F",
"u  c #41403A",
"i  c #594630",
"p  c #56533B",
"a  c #704D2A",
"s  c #6C5737",
"d  c #7C663D",
"f  c #052E41",
"g  c #12364C",
"h  c #063953",
"j  c #2A2F4A",
"k  c #293C46",
"l  c #2C334E",
"z  c #333245",
"x  c #39384A",
"c  c #273956",
"v  c #094159",
"b  c #15475B",
"n  c #09496A",
"m  c #1C4769",
"M  c #12516D",
"N  c #095377",
"B  c #185276",
"V  c #294A68",
"C  c #3A4B68",
"Z  c #2C5468",
"A  c #325877",
"S  c #196176",
"D  c #2B6675",
"F  c #55524C",
"G  c #434459",
"H  c #6B5654",
"J  c #646259",
"K  c #736B59",
"L  c #6F7150",
"P  c #464760",
"I  c #4C4D65",
"U  c #4D5267",
"Y  c #5A5A66",
"T  c #405673",
"R  c #4A5874",
"E  c #565B71",
"W  c #55746B",
"Q  c #6E6B63",
"!  c #716C66",
"~  c #687669",
"^  c #6C6C70",
"/  c #767475",
"(  c #7E7C71",
")  c #82470B",
"_  c #85490C",
"`  c #8C5209",
"'  c #95560A",
"]  c #A25C09",
"[  c #AA6209",
"{  c #B86C0A",
"}  c #BD6E08",
"|  c #BE7009",
" . c #A76812",
".. c #AF7012",
"X. c #A6701E",
"o. c #BA7A14",
"O. c #985C25",
"+. c #86643E",
"@. c #C07008",
"#. c #C87C0D",
"$. c #C17F12",
"%. c #86685E",
"&. c #8C706A",
"*. c #997462",
"=. c #807D73",
"-. c #A77D66",
";. c #63836D",
":. c #CC820F",
">. c #CE8610",
",. c #D48F14",
"<. c #D79517",
"1. c #DC9A19",
"2. c #9C815F",
"3. c #8B877B",
"4. c #B78B69",
"5. c #CE956E",
"6. c #C69B7D",
"7. c #D49E78",
"8. c #0A5983",
"9. c #155B87",
"0. c #0D6185",
"q. c #0C648B",
"w. c #19618A",
"e. c #1C768D",
"r. c #0C6493",
"t. c #0C6C9D",
"y. c #146593",
"u. c #116598",
"i. c #16759A",
"p. c #2C7394",
"a. c #0D6EA2",
"s. c #0C70A6",
"d. c #0C73AB",
"f. c #1573A4",
"g. c #117FB4",
"h. c #2D7FAC",
"j. c #4A6786",
"k. c #4E6D8D",
"l. c #547391",
"z. c #6D7C8C",
"x. c #1986AF",
"c. c #1483B6",
"v. c #1D91B8",
"b. c #228FAB",
"n. c #2A97BC",
"m. c #3195B8",
"M. c #6D879C",
"N. c #77B090",
"B. c #4784A4",
"V. c #7490A3",
"C. c #6FA2BF",
"Z. c #1A93C4",
"A. c #2599C0",
"S. c #2DA4C8",
"D. c #27A9CB",
"F. c #24A9D4",
"G. c #32AED2",
"H. c #2AB4DB",
"J. c #36BFDD",
"K. c #2CBCE2",
"L. c #5B9DC3",
"P. c #2EC1E7",
"I. c #8A8A88",
"U. c #96958E",
"Y. c #9A978A",
"T. c #989696",
"R. c #A38C87",
"E. c #A19E96",
"W. c #A9A598",
"Q. c #8299A7",
"!. c #89A2AF",
"~. c #ABA3AA",
"^. c #B2ACA0",
"/. c #B8B5A6",
"(. c #BBB9B0",
"). c #C49A83",
"_. c #CAAA98",
"`. c #E5B696",
"'. c #E7B89B",
"]. c #DAB7A3",
"[. c #D0C4AA",
"{. c #C5C1B2",
"}. c #CAC7B9",
"|. c #D2CEBD",
" X c #F1C7AC",
".X c #F7CEB5",
"XX c #B0B2C0",
"oX c #D8D4C2",
"OX c #D7D3CC",
"+X c #D8D6CD",
"@X c #E2DECC",
"#X c #E6D8D6",
"$X c #E5E1CE",
"%X c #E9E1E3",
"&X c #F2F1E6",
"*X c #EEEEF7",
/* pixels */
"&X&X&X&X&X&X&X&X&X&X&X&X&X&X&X&X&X&X&X&X&X&X&X&X&X&X&X&X^.^.^.^.&X&X&X&X&X&X&X&X&X&X&X&X&X&X&X&X&X&X&X&X&X&X&X&X&X&X&X&X^.^.^.^.",
"&X&X&X&X&X&X&X&X&X&X&X&X&X&X&X&X&X&X&X&X&X&X&X&X&X&X&X&X^.^.^.^.&X&X&X&X&X&X&X&X&X&X&X&X&X&X&X&X&X&X&X&X&X&X&X&X&X&X&X&X^.^.^.^.",
"&X&X&X&X&X&X&X&X&X&X&X&X&X&X&X&X&X&X&X&X&X&X&X&X&X&X&X&X^.^.^.^.&X&X&X&X&X&X&X&X&X&X&X&X&X&X&X&X&X&X&X&X&X&X&X&X&X&X&X&X^.^.^.^.",
"&X&X&X&X&X&X&X&X&X&X&X&X&X&X&X&X&X&X&X&X&X&X&X&X&X&X&X&X^.^.^.^.&X&X&X&X&X&X&X&X&X&X&X&X&X&X&X&X&X&X&X&X&X&X&X&X&X&X&X&X^.^.^.^.",
"&X&X&X&X$X$X$X$X$X$X$X$X$X$X$X$X$X$X$X$X$X$X$X$X+X+X+X+X^.^.^.^.&X&X&X&X@X$X$X$X$X$X$X$X$X$X$X$X$X$X$X$X$X$X$X$X+X+X+X+X^.^.^.^.",
"&X&X&X&X$X$X$X$X$X$X$X$X$X$X$X$X$X$X$X$X$X$X$X$X+X+X+X+X^.^.^.^.&X&X&X&X$X$X$X$X$X$X$X$X$X$X$X$X$X$X$X$X$X$X$X$X+X+X+X+X^.^.^.^.",
"&X&X&X&X$X$X$X$X$X$X$X$X$X$X$X$X$X$X$X$X$X$X$X$X+X+X+X+X^.^.^.^.&X&X&X&X$X$X$X$X$X$X$X$X$X$X$X$X$X$X$X$X$X$X$X$X+X+X+X+X^.^.^.^.",
"&X&X&X&X$X$X$X$X$X$X$X$X$X$X$X$X$X$X$X$X$X$X$X$X+X+X+X4 - - - - 5 4 4 5 4 ! $X$X$X$X$X$X$X$X$X$X$X$X$X$X$X$X$X$X+X+X+X+X^.^.^.^.",
"&X&X&X&X$X$X$X$X$X$X$X$X$X$X$X$X$X$X$X$X$X$X$X$X+X+X+X                    F $X$X$X$X$X$X$X$X$X$X$X$X$X$X$X$X$X$X+X+X+X+X^.^.^.^.",
"&X&X&X&X$X$X$X$X$X$X$X$X$X$X$X$X$X$X$X$X$X$X$X!       @.#.1.1.1.1.1.1.<.@.y       }.$X$X$X$X$X$X$X$X$X$X$X$X$X$X+X+X+X+X^.^.^.^.",
"&X&X&X&X$X$X$X$X$X$X$X$X$X$X$X$X$X$X$X$X$XoXW.L * = = #.#.1.1.1.1.1.1.<.#.' = = = Y.W.$X$X$X$X$X$X$X$X$X$X$X$X$X+X+X+X+X^.^.^.^.",
"&X&X&X&X$X$X$X$X$X$X$X$X$X$X$X$X$X$X$X$X$X^.  w } <.1.1.1.1.1.1.1.1.1.1.1.1.1.:.} o . $X$X$X$X$X$X$X$X$X$X$X$X$X+X+X+X+X^.^.^.^.",
"&X&X&X&X$X$X$X$X$X$X$X$X$X$X$X$X$X$X$X$XJ F 9 ' >.<.1.1.1.1.1.1.1.1.1.1.1.1.1.,.>.0 9 J I.@X$X$X$X$X$X$X$X$X$X$X+X+X+X+X^.^.^.^.",
"&X&X&X&X$X$X$X$X$X$X$X$X$X$X$X$X$X$X$X$X  O _ ..1.1.1.1.1.1.1.1.1.1.1.1.1.1.1.1.1.` )   u $X$X$X$X$X$X$X$X$X$X$X+X+X+X+X^.^.^.^.",
"&X&X&X&X$X$X$X$X$X$X$X$X$X$X$X$X$X$X$X$X  & _ ..1.1.1.1.1.1.1.1.1.1.1.1.1.1.1.1.1.` _   u $X$X$X$X$X$X$X$X$X$X$X+X+X+X+X^.^.^.^.",
"&X&X&X&X$X$X$X$X$X$X$X$X$X$X$X$X$X$X$X$X  o _ ..<.1.1.1.1.1.1.1.1.1.1.1.1.1.1.1.1.` _   u $X$X$X$X$X$X$X$X$X$X$X+X+X+X+X^.^.^.^.",
"&X&X&X&X$X$X$X$X$X$X$X$X$X$X$X$X$X$X$X$X  & @.] _ #.1.1.1.1.1.1.1.1.1.1.1.1.1. .) { }   r $X$X$X$X$X$X$X$X$X$X$X+X+X+X+X^.^.^.^.",
"&X&X&X&X$X$X$X$X$X$X$X$X$X$X$X$X$X$XW.Y.= q @.[ ' ..$.1.1.1.1.1.1.1.1.1.1.,.$.[ ' { } 9 i Y.{.$X$X$X$X$X$X$X$X$X+X+X+X+X^.^.^.^.",
"&X&X&X&X$X$X$X$X$X$X$X$X$X$X$X$X$X$X3   @.@.@.@.@.' _ 1.1.1.1.1.1.1.1.1.1.o._ [ @.@.@.@.`   ( $X$X$X$X$X$X$X$X$X+X+X+X+X^.^.^.^.",
"&X&X&X&X$X$X$X$X$X$X$X$X$X$X$X$X$X$X3   @.@.@.@.@.' _ s s s s s s s s s s a _ [ @.@.} } `   ( $X$X$X$X$X$X$X$X$X+X+X+X+X^.^.^.^.",
"&X&X&X&X$X$X$X$X$X$X$X$X$X$X$X$X$X$X4   @.@.@.@.@.' ) j j j j j l j j j j r _ [ @.} @.@.`   ( $X$X$X$X$X$X$X$X$X+X+X+X+X^.^.^.^.",
"&X&X&X&X$X$X$X$X$X$X$X$X$X$X$X$X$X@X3   z i @.a z z j k.k.k.z.Q.Q.Q.k.k.k.A z z z { } z 6   ( $X$X$X$X$X$X$X$X$X+X+X+X+X^.^.^.^.",
"&X&X&X&X$X$X$X$X$X$X$X$X$X$X$X$X$X$X3   l r { a c l l k.l.l.M.!.!.!.l.l.l.R c l l  .{ j 1   ( $X$X$X$X$X$X$X$X$X+X+X+X+X^.^.^.^.",
"&X&X&X&X$X$X$X$X$X$X$X$X$X$X$X$X$X$X4   I G j T k.l.k.!.!.!.!.!.!.!.!.!.!.V.k.l.k.l j I x   ( $X$X$X$X$X$X$X$X$X+X+X+X+X^.^.^.^.",
"&X&X&X&X+X+X+X+X+X+X+X+X+X+X+X+X+X+X3   I I C C T A R !.!.!.!.!.!.!.!.!.!.M.T T T C C I x   / +X+X+X+X+X+X+X+X+X+X+X+X+X^.^.^.^.",
"&X&X&X&X+X+X+X+X+X+X+X+X+X+X+X+X+X+X3   I U k.P l j j !.!.!.!.!.!.!.!.Q.!.z.j j j j.j.I x   / +X+X+X+X+X+X+X+X+X+X+X+X+X^.^.^.^.",
"&X&X&X&X+X+X+X+X+X+X+X+X+X+X+X+X+X+XE.U., 6 E ! *.~.XX7 8 +.+.+.+.+.+.+.7 Y (.R.*.E E , 8 U.(.+X+X+X+X+X+X+X+X+X+X+X+X+X^.^.^.^.",
"&X&X&X&X+X+X+X+X+X+X+X+X+X+X+X+X+X+X+X+X  $ I &.5.#X*X  o _ _ _ _ _ _ y   I *X].5.Y I   r +X+X+X+X+X+X+X+X+X+X+X+X+X+X+X^.^.^.^.",
"^.^.^.^.^.^.^.^.^.^.^.^.^.^.^.^.^.^.^.^.  X z K 5.#X*Xs.p.5.5.5.5.5.5.4.s.L.*X].5.x j   5 ^.^.^.^.^.^.^.^.^.^.^.^.^.^.^.^.^.^.^.",
"^.^.^.^.^.^.^.^.^.^.^.^.^.^.^.^.^.^.E.T.@ > 6 H 4.OX%Xh.B.).7.7.7.7.7.6.h.C.%X_.4.z 6 @ 7 E.W.^.^.^.^.^.^.^.^.^.^.^.^.^.^.^.^.^.",
"^.^.^.^.^.^.^.^.^.^.^.^.^.^.^.^.^.^.G j d.8.  , j -.5..X.X.X.X.X.X.X.X.X.X'.5.H l X   d.y.j / ^.^.^.^.^.^.^.^.^.^.^.^.^.^.^.^.^.",
"^.^.^.^.^.^.^.^.^.^.^.^.^.^.^.^.^.^.G j Z.x.M g , H %.`.'..X X`.`.`..X.X'.).%.r , b M Z.f.j / ^.^.^.^.^.^.^.^.^.^.^.^.^.^.^.^.^.",
"&X&X&X&X&X&X&X&X&X&X&X&X&X&X&X&X&X&XU l P.P.P.S   6 j 7.7..X'.5.5.5..X.X5.*.j $   D.P.P.n.j !.&X&X&X&X&X&X&X&X&X&X&X&X&X^.^.^.^.",
"&X&X&X&X&X&X&X&X&X&X&X&X&X&X&X&X&X%XOX(.Z p.P.D.b.y.y.: : e i O.O.O.e 5 : k y.i.b.K.K.A l.(.#X&X&X&X&X&X&X&X&X&X&X&X&X&X^.^.^.^.",
"&X&X&X&X&X&X&X&X&X&X&X&X&X&X&X&X&X&X&X&Xj V P.P.K.c.d.      = _ _ _       < s.F.P.P.K.j ^ &X&X&X&X&X&X&X&X&X&X&X&X&X&X&X^.^.^.^.",
"&X&X&X&X&X&X&X&X&X&X&X&X&X&X&X&X&X&X&X&Xl 6   h d.H.P.K.G.U x l j j I R P.K.K.Z.d.c j j E &X&X&X&X&X&X&X&X&X&X&X&X&X&X&X^.^.^.^.",
"&X&X&X&X$X$X$X$X$X$X$X$X$X$X$X$X@X$X$X$X6 1 < n s.Z.S.S.m.G G r r r R A S.S.S.c.a.Z V 6 Y $X$X$X$X$X$X$X$X$X$X$X+X+X+X+X^.^.^.^.",
"&X&X&X&X$X$X$X$X$X$X$X$X$X$X$X$X$X$X$X$X  < P.v.9.c l l l l a @.@.@.f.a.j j j B 0.H.K.  u $X$X$X$X$X$X$X$X$X$X$X+X+X+X+X^.^.^.^.",
"&X&X&X&X$X$X$X$X$X$X$X$X$X$X$X$X$X$XT.I.S e.P.D.v.w.B j l p.~ >.:.:.A.Z.l c B h.v.K.K.S D I.(.$X$X$X$X$X$X$X$X$X+X+X+X+X^.^.^.^.",
"&X&X&X&X$X$X$X$X$X$X$X$X$X$X$X$X$X@XI l P.P.P.P.P.c.s.j V P.N.1.1.1.J.H.j m d.Z.P.P.P.P.m.l U.$X$X$X$X$X$X$X$X$X+X+X+X+X^.^.^.^.",
"&X&X&X&X$X$X$X$X$X$X$X$X$X$X$X$XU.U w.u.P.H.c.d.i.< > u.f.P.N.1.1.1.J.K.u.N > n i.c.c.P.D.t.A U }.$X$X$X$X$X$X$X+X+X+X+X^.^.^.^.",
"&X&X&X&X$X$X$X$X$X$X$X$X$X$X$X$Xz.j r.d.P.H.d.t.0.@   d.g.P.N.1.1.1.J.K.d.n   h 0.s.d.P.D.t.B l {.$X$X$X$X$X$X$X+X+X+X+X^.^.^.^.",
"&X&X&X&X$X$X$X$X$X$X$X$X$X$X$X$X4._ ,.1.d.8.  ! @X5   d.d.d.;.1.1.1.f.s.d.n   I.$X%   d.B.<..._ [.$X$X$X$X$X$X$X+X+X+X+X^.^.^.^.",
"&X&X&X&X$X$X$X$X$X$X$X$X$X$X$X$X2.q $.,.D Z   F E.b > d.d.d.;.1.1.1.f.d.d.8.> ~ W.# X D ~ <.' w [.$X$X$X$X$X$X$X+X+X+X+X^.^.^.^.",
"&X&X&X&X$X$X$X$X$X$X$X$X$X$X$X$XJ   ' @.#.'       8.d.d.d.d.;.1.1.1.f.d.d.d.d.f       | @.@.0   /.$X$X$X$X$X$X$X+X+X+X+X^.^.^.^.",
"&X&X&X&X$X$X$X$X$X$X$X$X$X$X$X$XW.( y 0 q t ;.u   p L d.d.s.~ #.:.:.f.d.f.p.L ;   ! ( 0 0 0 s =.|.$X$X$X$X$X$X$X+X+X+X+X^.^.^.^.",
"&X&X&X&X$X$X$X$X$X$X$X$X$X$X$X$X$X$X3     5 $X&.  ` @.d.d.d.W @.@.@.f.d.d.W | 9   }.@X      ( $X$X$X$X$X$X$X$X$X+X+X+X+X^.^.^.^.",
"&X&X&X&X$X$X$X$X$X$X$X$X$X$X$X$X$X$X}.{.{.E.- b r.S D X.X.X...@.@.@.X.X.X.d S w.r.4 3 {.{.{.oX$X$X$X$X$X$X$X$X$X+X+X+X+X^.^.^.^.",
"&X&X&X&X$X$X$X$X$X$X$X$X$X$X$X$X$X$X$X$X$X^.  h d.q.0.| } | } @.| { | | | d 0.t.s.@   $X$X$X$X$X$X$X$X$X$X$X$X$X+X+X+X+X^.^.^.^.",
"&X&X&X&X$X$X$X$X$X$X$X$X$X$X$X$X$X$X$X$X$X^.  < q.f.d.d.d.d.9.j j j S 0.s.d.d.t.0.+ . $X$X$X$X$X$X$X$X$X$X$X$X$X+X+X+X+X^.^.^.^.",
"&X&X&X&X$X$X$X$X$X$X$X$X$X$X$X$X$X$X$X$X$X/.$ f B r.t.a.u.N h 1 1 1 v n t.t.t.B M , $ $X$X$X$X$X$X$X$X$X$X$X$X$X+X+X+X+X^.^.^.^.",
"&X&X&X&X$X$X$X$X$X$X$X$X$X$X$X$X$X$X$X$X$X(.j j l B 0.0.N             X 0.0.w.b j j l $X$X$X$X$X$X$X$X$X$X$X$X$X+X+X+X+X^.^.^.^.",
"&X&X&X&X$X$X$X$X$X$X$X$X$X$X$X$X$X$X$X$X$X/.$ : i i p < 2 ! Q Q U.U.U.I.< 7 p i t % $ $X$X$X$X$X$X$X$X$X$X$X$X$X+X+X+X+X^.^.^.^.",
"&X&X&X&X$X$X$X$X$X$X$X$X$X$X$X$X$X$X$X$X$X^.  = _ _ _   % ^.^.^.&X&X&X@X  & ) ) ) .   $X$X$X$X$X$X$X$X$X$X$X$X$X+X+X+X+X^.^.^.^.",
"&X&X&X&X$X$X$X$X$X$X$X$X$X$X$X$X$X$X$X$X$X+XoXQ . . . }.W.^.^.^.&X&X&X&X|.3.. . . /.oX$X$X$X$X$X$X$X$X$X$X$X$X$X+X+X+X+X^.^.^.^.",
"&X&X&X&X$X$X$X$X$X$X$X$X$X$X$X$X$X$X$X$X$X$X$X( O X O +X^.^.^.^.&X&X&X&X$XY.# + O }.$X$X$X$X$X$X$X$X$X$X$X$X$X$X+X+X+X+X^.^.^.^.",
"&X&X&X&X+X+X+X+X+X+X+X+X+X+X+X+X+X+X+X+X+X+X+X+X+X+X+X+X^.^.^.^.&X&X&X&X+X+X+X+X+X+X+X+X+X+X+X+X+X+X+X+X+X+X+X+X+X+X+X+X^.^.^.^.",
"&X&X&X&X+X+X+X+X+X+X+X+X+X+X+X+X+X+X+X+X+X+X+X+X+X+X+X+X^.^.^.^.&X&X&X&X+X+X+X+X+X+X+X+X+X+X+X+X+X+X+X+X+X+X+X+X+X+X+X+X^.^.^.^.",
"&X&X&X&X+X+X+X+X+X+X+X+X+X+X+X+X+X+X+X+X+X+X+X+X+X+X+X+X^.^.^.^.&X&X&X&X+X+X+X+X+X+X+X+X+X+X+X+X+X+X+X+X+X+X+X+X+X+X+X+X^.^.^.^.",
"&X&X&X&X+X+X+X+X+X+X+X+X+X+X+X+X+X+X+X+X+X+X+X+X+X+X+X+X^.^.^.^.&X&X&X&X+X+X+X+X+X+X+X+X+X+X+X+X+X+X+X+X+X+X+X+X+X+X+X+X^.^.^.^.",
"^.^.^.^.^.^.^.^.^.^.^.^.^.^.^.^.^.^.^.^.^.^.^.^.^.^.^.^.^.^.^.^.^.^.^.^.^.^.^.^.^.^.^.^.^.^.^.^.^.^.^.^.^.^.^.^.^.^.^.^.^.^.^.^.",
"^.^.^.^.^.^.^.^.^.^.^.^.^.^.^.^.^.^.^.^.^.^.^.^.^.^.^.^.^.^.^.^.^.^.^.^.^.^.^.^.^.^.^.^.^.^.^.^.^.^.^.^.^.^.^.^.^.^.^.^.^.^.^.^.",
"^.^.^.^.^.^.^.^.^.^.^.^.^.^.^.^.^.^.^.^.^.^.^.^.^.^.^.^.^.^.^.^.^.^.^.^.^.^.^.^.^.^.^.^.^.^.^.^.^.^.^.^.^.^.^.^.^.^.^.^.^.^.^.^.",
"^.^.^.^.^.^.^.^.^.^.^.^.^.^.^.^.^.^.^.^.^.^.^.^.^.^.^.^.^.^.^.^.^.^.^.^.^.^.^.^.^.^.^.^.^.^.^.^.^.^.^.^.^.^.^.^.^.^.^.^.^.^.^.^."
};
