/* XPM */
static char *result[] = {
/* columns rows colors chars-per-pixel */
"64 64 174 2 ",
"   c black",
".  c #1E323B",
"X  c #242320",
"o  c #282724",
"O  c #2D2C28",
"+  c #333234",
"@  c #3A3934",
"#  c #483923",
"$  c #4F4225",
"%  c #46423B",
"&  c #685238",
"*  c #735A38",
"=  c #2A2F4A",
"-  c #293947",
";  c #364A4D",
":  c #2F4D52",
">  c #3F657A",
",  c #47464C",
"<  c #414B4C",
"1  c #57504A",
"2  c #474857",
"3  c #435257",
"4  c #565452",
"5  c #5B5952",
"6  c #58565E",
"7  c #705D47",
"8  c #665953",
"9  c #796649",
"0  c #64685E",
"q  c #7C6854",
"w  c #484860",
"e  c #4D566C",
"r  c #545565",
"t  c #595B6A",
"y  c #635D62",
"u  c #5E616C",
"i  c #496376",
"p  c #596378",
"a  c #6B6760",
"s  c #74696C",
"d  c #78776A",
"f  c #636374",
"g  c #676C7A",
"h  c #76767D",
"j  c #85490C",
"k  c #BB6D0A",
"l  c #8D5D2A",
"z  c #856236",
"x  c #966735",
"c  c #9B6837",
"v  c #92683B",
"b  c #A5712D",
"n  c #BE7D26",
"m  c #B97C2D",
"M  c #C07008",
"N  c #C17A1C",
"B  c #C37E25",
"V  c #936C42",
"C  c #95744C",
"Z  c #876E56",
"A  c #88715B",
"S  c #A47C47",
"D  c #AA7C53",
"F  c #837468",
"G  c #8F7C74",
"H  c #B5823E",
"J  c #DC9A19",
"K  c #C88629",
"L  c #CD972D",
"P  c #D49B2D",
"I  c #C58B39",
"U  c #CE9930",
"Y  c #D59F35",
"T  c #D29F3F",
"R  c #D6A137",
"E  c #DBA335",
"W  c #D6A23B",
"Q  c #DAA53B",
"!  c #B78B47",
"~  c #B1904C",
"^  c #BC9649",
"/  c #A88A53",
"(  c #AC9252",
")  c #848677",
"_  c #89877C",
"`  c #939173",
"'  c #B4906D",
"]  c #C7994B",
"[  c #D19E45",
"{  c #CF966F",
"}  c #C59776",
"|  c #CB9D7C",
" . c #316E8D",
".. c #35759C",
"X. c #3C7A98",
"o. c #0C73AB",
"O. c #267CA8",
"+. c #2D7FA9",
"@. c #4F6F8F",
"#. c #566A82",
"$. c #55778F",
"%. c #5A758C",
"&. c #497E97",
"*. c #686F81",
"=. c #677385",
"-. c #727B85",
";. c #797B88",
":. c #6B7D93",
">. c #817F81",
",. c #2D83B0",
"<. c #3789B3",
"1. c #4E8195",
"2. c #508793",
"3. c #568597",
"4. c #798492",
"5. c #748B93",
"6. c #4888AA",
"7. c #5686A0",
"8. c #5896A8",
"9. c #428DB3",
"0. c #4895B9",
"q. c #6A98AD",
"w. c #43A2B9",
"e. c #54A5BC",
"r. c #65A0B5",
"t. c #74B5B5",
"y. c #4BA9C7",
"u. c #5BB3CA",
"i. c #59B5CD",
"p. c #45B8D9",
"a. c #63B5C6",
"s. c #61BAD2",
"d. c #2EC1E7",
"f. c #71C5D3",
"g. c #4CC7E5",
"h. c #5BCBE5",
"j. c #8E8A80",
"k. c #868589",
"l. c #93928A",
"z. c #989989",
"x. c #959695",
"c. c #A48D80",
"v. c #AD9886",
"b. c #98AA83",
"n. c #ACA99D",
"m. c #A2BD95",
"M. c #8D9CA7",
"N. c #89A2AF",
"B. c #94A5AD",
"V. c #98ABB4",
"C. c #ADABA5",
"Z. c #A8A8A8",
"A. c #B2ACA0",
"S. c #B7B4A5",
"D. c #BBB7A9",
"F. c #A6B4B9",
"G. c #BFBDB5",
"H. c #C19B84",
"J. c #C4A18A",
"K. c #D6B094",
"L. c #C1BEAE",
"P. c #D4BEB1",
"I. c #E0BEA5",
"U. c #ADC094",
"Y. c #D2C3A7",
"T. c #CCC5B4",
"R. c #C3C1B8",
"E. c #F7CFB6",
"W. c #8DB1C7",
"Q. c #D8D6CD",
"!. c #E5E1CE",
"~. c #E2E2EA",
"^. c #F2F1E6",
"/. c #EEEEF7",
/* pixels */
"^.^.^.^.^.^.^.^.^.^.^.^.^.^.^.^.^.^.^.^.^.^.^.^.^.^.^.^.A.A.A.A.^.^.^.^.^.^.^.^.^.^.^.^.^.^.^.^.^.^.^.^.^.^.^.^.^.^.^.^.A.A.A.A.",
"^.^.^.^.^.^.^.^.^.^.^.^.^.^.^.^.^.^.^.^.^.^.^.^.^.^.^.^.A.A.A.A.^.^.^.^.^.^.^.^.^.^.^.^.^.^.^.^.^.^.^.^.^.^.^.^.^.^.^.^.A.A.A.A.",
"^.^.^.^.^.^.^.^.^.^.^.^.^.^.^.^.^.^.^.^.^.^.^.^.^.^.^.^.A.A.A.A.^.^.^.^.^.^.^.^.^.^.^.^.^.^.^.^.^.^.^.^.^.^.^.^.^.^.^.^.A.A.A.A.",
"^.^.^.^.^.^.^.^.^.^.^.^.^.^.^.^.^.^.^.^.^.^.^.^.^.^.^.^.A.A.A.A.^.^.^.^.^.^.^.^.^.^.^.^.^.^.^.^.^.^.^.^.^.^.^.^.^.^.^.^.A.A.A.A.",
"^.^.^.^.!.!.!.!.!.!.!.!.!.!.!.!.!.!.!.!.!.!.!.!.Q.Q.Q.Q.n.A.A.A.^.^.^.^.!.!.!.!.!.!.!.!.!.!.!.!.!.!.!.!.!.!.!.!.Q.Q.Q.Q.A.A.A.A.",
"^.^.^.^.!.!.!.!.!.!.!.!.!.!.!.!.!.!.!.!.!.!.!.!.Q.Q.Q.Q.A.A.A.A.^.^.^.^.!.!.!.!.!.!.!.!.!.!.!.!.!.!.!.!.!.!.!.!.Q.Q.Q.Q.A.A.A.A.",
"^.^.^.^.!.!.!.!.!.!.!.!.!.!.!.!.!.!.!.!.!.!.!.!.Q.Q.Q.Q.A.A.A.A.^.^.^.^.!.!.!.!.!.!.!.!.!.!.!.!.!.!.!.!.!.!.!.!.Q.Q.Q.Q.A.A.A.A.",
"^.^.^.^.!.!.!.!.!.!.!.!.!.!.!.!.!.!.!.!.!.!.!.!.Q.Q.Q.Q.A.A.A.A.^.^.^.^.!.!.!.!.!.!.!.!.!.!.!.!.!.!.!.!.!.!.!.!.Q.Q.Q.Q.A.A.A.A.",
"^.^.^.^.!.!.!.!.!.!.!.!.!.!.!.!.!.!.!.!.!.!.!.!.Q.Q.Q.Q.A.A.A.A.^.^.^.^.!.!.!.!.!.!.!.!.!.!.!.!.!.!.!.!.!.!.!.!.Q.Q.Q.Q.A.A.A.A.",
"^.^.^.^.!.!.!.!.!.!.!.!.!.!.!.!.!.!.!.!.!.!.!.!.Q.Q.n.) a a a a l.l.l.l._ n.!.!.!.!.!.!.!.!.!.!.!.!.!.!.!.!.!.!.Q.Q.Q.Q.A.A.A.A.",
"^.^.^.^.!.!.!.!.!.!.!.!.!.!.!.!.!.!.!.!.!.!.!.!.Q.Q.5                     5 !.!.!.!.!.!.!.!.!.!.!.!.!.!.!.!.!.!.Q.Q.Q.Q.A.A.A.A.",
"^.^.^.^.!.!.!.!.!.!.!.!.!.!.!.!.!.!.!.!.!.!.!.1 o o C n L L L Y Q R R R N / O O 1 !.!.!.!.!.!.!.!.!.!.!.!.!.!.!.Q.Q.Q.Q.A.A.A.A.",
"^.^.^.^.!.!.!.!.!.!.!.!.!.!.!.!.!.!.!.!.Q.Q.S.& # # ! K J J J J J J J J K ! $ # & S.Q.!.!.!.!.!.!.!.!.!.!.!.!.!.Q.Q.Q.Q.A.A.A.A.",
"^.^.^.^.!.!.!.!.!.!.!.!.!.!.!.!.!.!.!.!.!.j.  m K J J J J J J J J J J J J J J K m   _ !.!.!.!.!.!.!.!.!.!.!.!.!.Q.Q.Q.Q.A.A.A.A.",
"^.^.^.^.!.!.!.!.!.!.!.!.!.!.!.!.!.!.!.!.5 q z [ Q J J J J J J J J J J J J J J Q [ z q 5 !.!.!.!.!.!.!.!.!.!.!.!.Q.Q.Q.Q.A.A.A.A.",
"^.^.^.^.!.!.!.!.!.!.!.!.!.!.!.!.!.!.!.!.  * j Q J J J J J J J J J J J J J J J J E j &   !.!.!.!.!.!.!.!.!.!.!.!.Q.Q.Q.Q.A.A.A.A.",
"^.^.^.^.!.!.!.!.!.!.!.!.!.!.!.!.!.!.!.!.  & j E J J J J J J J J J J J J J J J J Q j &   !.!.!.!.!.!.!.!.!.!.!.!.Q.Q.Q.Q.A.A.A.A.",
"^.^.^.^.!.!.!.!.!.!.!.!.!.!.!.!.!.!.!.!.  * m ] T J J J J J J J J J J J J J J W ] m *   !.!.!.!.!.!.!.!.!.!.!.!.Q.Q.Q.Q.A.A.A.A.",
"^.^.^.^.!.!.!.!.!.!.!.!.!.!.!.!.!.!.!.!.  z M b c J J J J J J J J J J J J J J b b k z   !.!.!.!.!.!.!.!.!.!.!.!.Q.Q.Q.Q.A.A.A.A.",
"^.^.^.^.!.!.!.!.!.!.!.!.!.!.!.!.!.!.d O n N M B B b [ J J J J J J J J J J [ b I B M N n O d !.!.!.!.!.!.!.!.!.!.Q.Q.Q.Q.A.A.A.A.",
"^.^.^.^.!.!.!.!.!.!.!.!.!.!.!.!.!.!.5   M M M M B j ^ Y U U U U Q Q Q R E ] j n M M M M   5 !.!.!.!.!.!.!.!.!.!.Q.Q.Q.Q.A.A.A.A.",
"^.^.^.^.!.!.!.!.!.!.!.!.!.!.!.!.!.!.5   M M M M n j y = = = = = = = = = = y j K M M M M   5 !.!.!.!.!.!.!.!.!.!.Q.Q.Q.Q.A.A.A.A.",
"^.^.^.^.!.!.!.!.!.!.!.!.!.!.!.!.!.!.5   C ! M S Z q -.=.p *.=.-.k.4.4.=.*.h q A D M m C   5 !.!.!.!.!.!.!.!.!.!.Q.Q.Q.Q.A.A.A.A.",
"^.^.^.^.!.!.!.!.!.!.!.!.!.!.!.!.!.!.5   = C M 8 = = :.@.@.5.N.N.N.B.q.@.@.:.= = 8 k C =   5 !.!.!.!.!.!.!.!.!.!.Q.Q.Q.Q.A.A.A.A.",
"^.^.^.^.Q.Q.Q.Q.Q.Q.Q.Q.Q.Q.Q.Q.Q.Q.4   w f = =.@.@.V.N.N.B.N.N.N.N.F.N.N.B.@.@.=.= *.w   4 Q.Q.Q.Q.Q.Q.Q.Q.Q.Q.Q.Q.Q.Q.A.A.A.A.",
"^.^.^.^.Q.Q.Q.Q.Q.Q.Q.Q.Q.Q.Q.Q.Q.Q.4   w g =.:.:.:.V.V.B.B.N.N.N.N.F.F.W.V.:.p #.=.*.w   4 Q.Q.Q.Q.Q.Q.Q.Q.Q.Q.Q.Q.Q.Q.A.A.A.A.",
"^.^.^.^.Q.Q.Q.Q.Q.Q.Q.Q.Q.Q.Q.Q.Q.Q.4   w *.@.e = = M.N.N.B.N.N.N.N.F.N.N.M.= = = $.*.w   4 Q.Q.Q.Q.Q.Q.Q.Q.Q.Q.Q.Q.Q.Q.A.A.A.A.",
"^.^.^.^.Q.Q.Q.Q.Q.Q.Q.Q.Q.Q.Q.Q.Q.Q.L.C.+ t f H.J.~.x.o l l l l v x v x o x.~.H.' f t + C.G.Q.Q.Q.Q.Q.Q.Q.Q.Q.Q.Q.Q.Q.Q.A.A.A.A.",
"A.A.A.A.A.A.A.A.A.A.A.A.A.A.A.A.A.A.A.A.  , w } H./.x.. c c c c c c c c . x./.H.} w ,   A.A.A.A.A.A.A.A.A.A.A.A.A.A.A.A.A.A.A.A.",
"A.A.A.A.A.A.A.A.A.A.A.A.A.A.A.A.A.A.A.A.  , w } | /.W.o.{ { { { { { { { o.W./.| } w ,   A.A.A.A.A.A.A.A.A.A.A.A.A.A.A.A.A.A.A.A.",
"A.A.A.A.A.A.A.A.A.A.A.A.A.A.A.A.A.A.>.u  .i , G c.P.Z.N.K.K.K.K.K.K.K.K.N.Z.P.c.G , >  .u G A.A.A.A.A.A.A.A.A.A.A.A.A.A.A.A.A.A.",
"A.A.A.A.A.A.A.A.A.A.A.A.A.A.A.A.A.A.u = o. .  r s { I.E.E.E.E.E.E.E.E.E.E.I.{ s r    .o.= u A.A.A.A.A.A.A.A.A.A.A.A.A.A.A.A.A.A.",
"^.^.^.^.^.^.^.^.^.^.^.^.^.^.^.^.^.^.;.= d.h.d.: @ w v.{ E.I.{ { { { E.E.{ J.w + : d.h.d.= ;.^.^.^.^.^.^.^.^.^.^.^.^.^.^.A.A.A.A.",
"^.^.^.^.^.^.^.^.^.^.^.^.^.^.^.^.^.^.Z.;.h.f.h.8.3.7.k.A F G D D { ' v._ A k.7.3.r.h.f.s.;.F.^.^.^.^.^.^.^.^.^.^.^.^.^.^.A.A.A.A.",
"^.^.^.^.^.^.^.^.^.^.^.^.^.^.^.^.^.^.^.^.2 r.d.g.p.o.i     # j j j j %     i o.p.g.d.r.2 ^.^.^.^.^.^.^.^.^.^.^.^.^.^.^.^.A.A.A.A.",
"^.^.^.^.^.^.^.^.^.^.^.^.^.^.^.^.^.^.^.^.f g : 9.y.p.u.w.2 6 2 2 2 2 s r w.s.p.w.0.%.4.f ^.^.^.^.^.^.^.^.^.^.^.^.^.^.^.^.A.A.A.A.",
"^.^.^.^.!.!.!.!.!.!.!.!.!.!.!.!.!.!.!.!.y u : 9.9.y.u.w.3 a 1 1 8 8 4.#.y.u.y.9.9.%.-.t !.!.!.!.!.!.!.!.!.!.!.!.Q.Q.Q.Q.A.A.A.A.",
"^.^.^.^.!.!.!.!.!.!.!.!.!.!.!.!.!.!.!.!.  &.d.,...= r = : 5 k k k k 3.o.= t = ..,.d.2.  !.!.!.!.!.!.!.!.!.!.!.!.Q.Q.Q.Q.A.A.A.A.",
"^.^.^.^.!.!.!.!.!.!.!.!.!.!.!.!.!.!.C.k.e.a.h.u.e...*.e 2.5.H U [ [ N.i.r g @.e.u.h.a.y.k.C.!.!.!.!.!.!.!.!.!.!.Q.Q.Q.Q.A.A.A.A.",
"^.^.^.^.!.!.!.!.!.!.!.!.!.!.!.!.!.!.k.w d.g.d.g.p.o.#.= d.t.J J J J f.d.= i o.p.g.d.h.d.w k.!.!.!.!.!.!.!.!.!.!.Q.Q.Q.Q.A.A.A.A.",
"^.^.^.^.!.!.!.!.!.!.!.!.!.!.!.!.Q.w 6.o.d.y.o.,.+.  X.o.d.b.J J J J U.d.o.X.  +.,.o.y.d.o.6.e R.!.!.!.!.!.!.!.!.Q.Q.Q.Q.A.A.A.A.",
"^.^.^.^.!.!.!.!.!.!.!.!.!.!.!.!.L.s z.` i.e.1.r.8.@ &.9.g.` J J J J U.h.9.1.@ q.r.X.e.y.` ` Z T.!.!.!.!.!.!.!.!.Q.Q.Q.Q.A.A.A.A.",
"^.^.^.^.!.!.!.!.!.!.!.!.!.!.!.!.P.j T J o.X.  S.n.   .o.d.` J J J J m.d.o.X.  S.S.  X.o.J T j Y.!.!.!.!.!.!.!.!.Q.Q.Q.Q.A.A.A.A.",
"^.^.^.^.!.!.!.!.!.!.!.!.!.!.!.!.S.o ^ E W ( X % 3 ,.6.,.,.` J J J J b.,.<.6.,.3 % X ( R E ^ o D.!.!.!.!.!.!.!.!.Q.Q.Q.Q.A.A.A.A.",
"^.^.^.^.!.!.!.!.!.!.!.!.!.!.!.!.L.O ~ Y R ( O @ ; 2.8.,.O.` P U Q Q b.<.,.8.$.< @ O ~ Y Y ~ O L.!.!.!.!.!.!.!.!.Q.Q.Q.Q.A.A.A.A.",
"^.^.^.^.!.!.!.!.!.!.!.!.!.!.!.!.!.!.5     5 !.O # k ) o.o.d k k k k j.o.o.) k # O !.5     5 !.!.!.!.!.!.!.!.!.!.Q.Q.Q.Q.A.A.A.A.",
"^.^.^.^.!.!.!.!.!.!.!.!.!.!.!.!.!.!.n._ _ ) 5 &.2.d ` / C H m m T I ~ ( / ` ` 3.&.5 ) _ _ A.!.!.!.!.!.!.!.!.!.!.Q.Q.Q.Q.A.A.A.A.",
"^.^.^.^.!.!.!.!.!.!.!.!.!.!.!.!.!.!.!.!.!._   ,.,.o./ k k k k k k k k k k / o.,.+.  _ !.!.!.!.!.!.!.!.!.!.!.!.!.Q.Q.Q.Q.A.A.A.A.",
"^.^.^.^.!.!.!.!.!.!.!.!.!.!.!.!.!.!.!.!.!.j.  +.+.o.o.o.o...= = = = 9.o.o.o.o.o.+.  _ !.!.!.!.!.!.!.!.!.!.!.!.!.Q.Q.Q.Q.A.A.A.A.",
"^.^.^.^.!.!.!.!.!.!.!.!.!.!.!.!.!.!.!.!.!.x.4 7.6.9.9.<. .i 2 , r r @.1.9.9.<.6.3.6 z.!.!.!.!.!.!.!.!.!.!.!.!.!.Q.Q.Q.Q.A.A.A.A.",
"^.^.^.^.!.!.!.!.!.!.!.!.!.!.!.!.!.!.!.!.!.Z.2 f #.o.<.o.                o.9.o.p f w Z.!.!.!.!.!.!.!.!.!.!.!.!.!.Q.Q.Q.Q.A.A.A.A.",
"^.^.^.^.!.!.!.!.!.!.!.!.!.!.!.!.!.!.!.!.!.z.+ V V 9 a - j.j.j._ R.R.R.R.- 0 Z C V + l.!.!.!.!.!.!.!.!.!.!.!.!.!.Q.Q.Q.Q.A.A.A.A.",
"^.^.^.^.!.!.!.!.!.!.!.!.!.!.!.!.!.!.!.!.!.z.O v v l 7 O A.A.A.A.^.^.^.^.O 7 l x v O z.!.!.!.!.!.!.!.!.!.!.!.!.!.Q.Q.Q.Q.A.A.A.A.",
"^.^.^.^.!.!.!.!.!.!.!.!.!.!.!.!.!.!.!.!.!.!.!.O X   ;.Q.A.A.A.A.^.^.^.^.!._   o O !.!.!.!.!.!.!.!.!.!.!.!.!.!.!.Q.Q.Q.Q.A.A.A.A.",
"^.^.^.^.!.!.!.!.!.!.!.!.!.!.!.!.!.!.!.!.!.!.!.z.k.) S.Q.A.A.A.A.^.^.^.^.!.L._ l.z.!.!.!.!.!.!.!.!.!.!.!.!.!.!.!.Q.Q.Q.Q.A.A.A.A.",
"^.^.^.^.!.!.!.!.!.!.!.!.!.!.!.!.!.!.!.!.!.!.!.!.Q.Q.Q.Q.A.A.A.A.^.^.^.^.!.!.!.!.!.!.!.!.!.!.!.!.!.!.!.!.!.!.!.!.Q.Q.Q.Q.A.A.A.A.",
"^.^.^.^.Q.Q.Q.Q.Q.Q.Q.Q.Q.Q.Q.Q.Q.Q.Q.Q.Q.Q.Q.Q.Q.Q.Q.Q.A.A.A.A.^.^.^.^.Q.Q.Q.Q.Q.Q.Q.Q.Q.Q.Q.Q.Q.Q.Q.Q.Q.Q.Q.Q.Q.Q.Q.Q.A.A.A.A.",
"^.^.^.^.Q.Q.Q.Q.Q.Q.Q.Q.Q.Q.Q.Q.Q.Q.Q.Q.Q.Q.Q.Q.Q.Q.Q.Q.A.A.A.A.^.^.^.^.Q.Q.Q.Q.Q.Q.Q.Q.Q.Q.Q.Q.Q.Q.Q.Q.Q.Q.Q.Q.Q.Q.Q.Q.A.A.A.A.",
"^.^.^.^.Q.Q.Q.Q.Q.Q.Q.Q.Q.Q.Q.Q.Q.Q.Q.Q.Q.Q.Q.Q.Q.Q.Q.Q.A.A.A.A.^.^.^.^.Q.Q.Q.Q.Q.Q.Q.Q.Q.Q.Q.Q.Q.Q.Q.Q.Q.Q.Q.Q.Q.Q.Q.Q.A.A.A.A.",
"^.^.^.^.Q.Q.Q.Q.Q.Q.Q.Q.Q.Q.Q.Q.Q.Q.Q.Q.Q.Q.Q.Q.Q.Q.Q.Q.A.A.A.A.^.^.^.^.Q.Q.Q.Q.Q.Q.Q.Q.Q.Q.Q.Q.Q.Q.Q.Q.Q.Q.Q.Q.Q.Q.Q.Q.A.A.A.A.",
"A.A.A.A.A.A.A.A.A.A.A.A.A.A.A.A.A.A.A.A.A.A.A.A.A.A.A.A.A.A.A.A.A.A.A.A.A.A.A.A.A.A.A.A.A.A.A.A.A.A.A.A.A.A.A.A.A.A.A.A.A.A.A.A.",
"A.A.A.A.A.A.A.A.A.A.A.A.A.A.A.A.A.A.A.A.A.A.A.A.A.A.A.A.A.A.A.A.A.A.A.A.A.A.A.A.A.A.A.A.A.A.A.A.A.A.A.A.A.A.A.A.A.A.A.A.A.A.A.A.",
"A.A.A.A.A.A.A.A.A.A.A.A.A.A.A.A.A.A.A.A.A.A.A.A.A.A.A.A.A.A.A.A.A.A.A.A.A.A.A.A.A.A.A.A.A.A.A.A.A.A.A.A.A.A.A.A.A.A.A.A.A.A.A.A.",
"A.A.A.A.A.A.A.A.A.A.A.A.A.A.A.A.A.A.A.A.A.A.A.A.A.A.A.A.A.A.A.A.A.A.A.A.A.A.A.A.A.A.A.A.A.A.A.A.A.A.A.A.A.A.A.A.A.A.A.A.A.A.A.A."
};
