/* XPM */
static char *result[] = {
/* columns rows colors chars-per-pixel */
"32 32 201 2 ",
"   c #251B13",
".  c #251B14",
"X  c #261B14",
"o  c #261C14",
"O  c #271C14",
"+  c #281D15",
"@  c #291D15",
"#  c #2A1F17",
"$  c #2B1F17",
"%  c #2B2017",
"&  c #2C2017",
"*  c #2D2018",
"=  c #2D2118",
"-  c #2D2119",
";  c #2F2219",
":  c #2F231A",
">  c #30241B",
",  c #31241B",
"<  c #32251C",
"1  c #33251C",
"2  c #35271D",
"3  c #34271E",
"4  c #35271E",
"5  c #35281E",
"6  c #36281F",
"7  c #39291F",
"8  c #392A20",
"9  c #392A21",
"0  c #392B21",
"q  c #3A2B21",
"w  c #3B2B21",
"e  c #3A2B22",
"r  c #3B2C21",
"t  c #3B2C22",
"y  c #3C2C21",
"u  c #3C2D22",
"i  c #3C2D23",
"p  c #3D2D23",
"a  c #3D2E23",
"s  c #3E2E24",
"d  c #3E2F24",
"f  c #3F2F24",
"g  c #3F2F25",
"h  c #3E352D",
"j  c #3B3630",
"k  c #402F24",
"l  c #402F25",
"z  c #403025",
"x  c #413025",
"c  c #423126",
"v  c #433226",
"b  c #433227",
"n  c #443227",
"m  c #443428",
"M  c #453428",
"N  c #453528",
"B  c #453429",
"V  c #463528",
"C  c #463529",
"Z  c #46352A",
"A  c #47352A",
"S  c #47362A",
"D  c #48362A",
"F  c #49372A",
"G  c #48362B",
"H  c #49372B",
"J  c #49372C",
"K  c #49382B",
"L  c #4A382B",
"P  c #49382C",
"I  c #4A382C",
"U  c #4B392C",
"Y  c #4D3A2D",
"T  c #4D3B2D",
"R  c #4E3B2E",
"E  c #4F3C2E",
"W  c #4F3C2F",
"Q  c #503D2F",
"!  c #513D2F",
"~  c #403730",
"^  c #413830",
"/  c #423932",
"(  c #433A33",
")  c #433B33",
"_  c #423B34",
"`  c #433B34",
"'  c #443C35",
"]  c #453E37",
"[  c #463E37",
"{  c #433E39",
"}  c #463F38",
"|  c #513D30",
" . c #523D30",
".. c #513E30",
"X. c #523E30",
"o. c #533F31",
"O. c #4A433C",
"+. c #4B443D",
"@. c #4B453D",
"#. c #4B453E",
"$. c #4C453E",
"%. c #4C463E",
"&. c #4C463F",
"*. c #544032",
"=. c #564132",
"-. c #564133",
";. c #574133",
":. c #564233",
">. c #574233",
",. c #574234",
"<. c #574334",
"1. c #584233",
"2. c #584234",
"3. c #584335",
"4. c #594335",
"5. c #594435",
"6. c #5A4436",
"7. c #5A4536",
"8. c #5B4536",
"9. c #5D4637",
"0. c #5E4738",
"q. c #5F4738",
"w. c #5F4838",
"e. c #604838",
"r. c #604839",
"t. c #604939",
"y. c #614939",
"u. c #654C3C",
"i. c #674E3D",
"p. c #694F3E",
"a. c #69503F",
"s. c #6A503F",
"d. c #6A513F",
"f. c #4D4640",
"g. c #6B5140",
"h. c #6E5442",
"j. c #6F5442",
"k. c #705543",
"l. c #7A766F",
"z. c #817F77",
"x. c #828179",
"c. c #8D8B84",
"v. c #908E87",
"b. c #919088",
"n. c #939188",
"m. c #949288",
"M. c #949389",
"N. c #96948B",
"B. c #96948C",
"V. c #96958D",
"C. c #9C9B92",
"Z. c #A39F95",
"A. c #A9A69D",
"S. c #AEA9A0",
"D. c #B2AFA7",
"F. c #B6B3AA",
"G. c #B6B4AB",
"H. c #B6B5AC",
"J. c #B8B6AE",
"K. c #BCB7AC",
"L. c #BCBAB1",
"P. c #BDBBB2",
"I. c #C3BFB3",
"U. c #C0BEB5",
"Y. c #C3BFB5",
"T. c #C2C0B7",
"R. c #C4C0B4",
"E. c #C8C3B8",
"W. c #CCC9BE",
"Q. c #CECBBF",
"!. c #CCC9C0",
"~. c #CDCAC0",
"^. c #D0CEC4",
"/. c #D1CEC4",
"(. c #D1CFC5",
"). c #D2CEC4",
"_. c #D2D0C6",
"`. c #D3D0C7",
"'. c #D4D2C8",
"]. c #D5D2C8",
"[. c #D8D6CC",
"{. c #DAD7CD",
"}. c #DCDACF",
"|. c #DFDDD3",
" X c #E3E1D5",
".X c #E5E3D7",
"XX c #E4E2D8",
"oX c #E5E3D9",
"OX c #E7E5DB",
"+X c #EBEADF",
"@X c #ECEBDF",
"#X c #EDECE0",
"$X c #EDECE1",
"%X c #EEECE0",
"&X c #EEEDE0",
"*X c #EEEDE1",
"=X c #EFEEE2",
"-X c #F0EEE2",
";X c #F0EFE2",
":X c #F0EFE3",
">X c #F1F0E5",
/* pixels */
">X=X&X#X#X#X#X#X#X#X#X#X@XoX`.I.W. X%X*X#X#X#X#X#X#X#X#X#X#X+XXX",
":XC.#.$.$.$.$.$.$.$.$.$.@.O.} ` [ +.f.&.%.$.$.$.$.$.$.$.$.$.{ U.",
";XM.W R N 5.5.5.5.5.5.5.5.5.5.5.5.5.5.5.5.5.5.5.5.5.5.:.K M M J.",
"=Xm.o.o.E 5.5.5.5.5.5.5.5.5.5.5.5.5.5.5.5.5.5.5.5.5.5.<.| E M G.",
"=Xm.! Q L 5.5.5.5.5.5.5.5.5.5.5.5.5.3.*.5.5.5.5.5.5.5.:.T L M F.",
"=Xm., 1 1 @ & - % q k y y y 1 r y y u M y y y o = - O : 1 1 o F.",
"=Xm.,.5.5.u B I S 3 i.k.k.k.8.j.k.k.j.6.k.k.e.s I I 5 Q 5.5.V F.",
"=Xm.,.5.5.t B I I A c g.k.k.7.j.k.k.j.6.k.r.d J I H > Q 5.5.V F.",
"=Xm.,.5.5.t 6 I I I D v a.k.7.j.k.k.j.6.w.p I I I s 7 Q 5.5.V F.",
"=Xm.,.5.5.u =.s H I I A b g.7.j.k.k.j.A f H I H p y. .Q 5.5.V F.",
"=Xm.,.5.5.u p.w.d I I I D b | j.k.k.w.p I I I 9 2.k.X.Q 5.5.V F.",
"=Xn.,.5.5.u p.k.w.a H I I C q d.k.w.z J I H p 4.t.k.X.Q 5.5.V F.",
"*Xb.,.5.5.u p.k.k.>.q I I I D n =.a I I I f r.a.t.k.X.Q 5.5.V F.",
"OXc.,.5.5.u p.k.k.t.;.a H I I C # C I H a y.k.s.t.k.X.Q 5.5.V D.",
"].x.,.5.5.u p.k.k.t.a.q.z I I I D 4 m z r.k.k.s.t.k.X.Q 5.5.V A.",
"R.l.,.5.5.u p.k.k.t.a.k.0.0 J I I C 3 Y k.k.k.s.t.k.X.Q 5.5.V Z.",
"Q.z.,.5.5.u p.k.k.t.a.k.w.- e P I I D x p.k.k.s.t.k.X.Q 5.5.V S.",
".Xv.,.5.5.u p.k.k.t.a.w.z I g q P I I C b g.k.s.t.k.X.Q 5.5.V P.",
"-XV.,.5.5.u p.k.k.t.>.a J I H a z J I I G v a.s.t.k.X.Q 5.5.V T.",
":XN.,.5.5.u p.k.k.1.q I I I i r.q.a I I I Z c u.t.k.X.Q 5.5.V L.",
"=XM.,.5.5.u p.k.r.p H I H f D h.k.w.l J I I G 8 9.k.X.Q 5.5.V H.",
"=Xm.,.5.5.u p.w.d I I I p r.6.j.k.k.q.p I I I A c g.X.Q 5.5.V F.",
"=Xm.,.5.5.u -.a J I H f y.k.7.j.k.k.j.A f J I I G x F Q 5.5.V F.",
"=Xm.,.5.5.t 6 I I I p t.k.k.7.j.k.k.j.6.w.p I I I S . Q 5.5.V F.",
"=Xm.,.5.5.t B I H 9 r.k.k.k.7.j.k.k.j.6.k.w.s J I I 4 Q 5.5.V F.",
"=Xm.,.5.5.u B I s Y s.k.k.k.8.j.k.k.j.6.k.k.w.s I I 5 Q 5.5.V F.",
"=Xm., < < + $ * X 2 8 r r r 1 w r r w 1 r r r   * * X ; < < X F.",
"=Xm...! U 5.5.5.5.5.5.5.5.5.5.5.5.5.5.5.5.5.5.5.5.5.5.:.T U M F.",
"=Xm.o.o.W 5.5.5.5.5.5.5.5.5.5.5.5.5.5.5.5.5.5.5.5.5.5.<...W M F.",
"=Xn.W R M 5.5.5.5.5.5.5.5.5.5.5.5.5.5.5.5.5.5.5.5.5.5.:.H M M F.",
"$XB._ ` ) ) ) ) ) ) ) ) ( / ~ h ^ ' ] ' ` ) ) ) ) ) ) ) ) ) j G.",
"XX}.'.(.).).).).).).)././.~.Y.K.E.{.|.[._.).).).).).).).)./.^.!."
};
