/* XPM */
static char *result[] = {
/* columns rows colors chars-per-pixel */
"32 32 252 2 ",
"   c #3A2B21",
".  c #3B2C21",
"X  c #3B2C22",
"o  c #3B2D22",
"O  c #3C2D22",
"+  c #3C2D23",
"@  c #3D2D23",
"#  c #3D2E23",
"$  c #3E2E24",
"%  c #3E2F24",
"&  c #3F2F25",
"*  c #3F3024",
"=  c #3F3025",
"-  c #403025",
";  c #403125",
":  c #413125",
">  c #403026",
",  c #413126",
"<  c #423126",
"1  c #413226",
"2  c #423226",
"3  c #433226",
"4  c #423326",
"5  c #433326",
"6  c #423227",
"7  c #433227",
"8  c #433327",
"9  c #443227",
"0  c #443327",
"q  c #453327",
"w  c #443328",
"e  c #443428",
"r  c #453428",
"t  c #453528",
"y  c #443429",
"u  c #453429",
"i  c #453529",
"p  c #463428",
"a  c #463528",
"s  c #463429",
"d  c #463529",
"f  c #473529",
"g  c #473629",
"h  c #45352A",
"j  c #46352A",
"k  c #47352A",
"l  c #47362A",
"z  c #47362B",
"x  c #48362A",
"c  c #49362A",
"v  c #48372A",
"b  c #49372A",
"n  c #48362B",
"m  c #49362B",
"M  c #48372B",
"N  c #49372B",
"B  c #4A372B",
"V  c #49372C",
"C  c #4A372C",
"Z  c #49382B",
"A  c #4A382B",
"S  c #4B382B",
"D  c #49382C",
"F  c #48382D",
"G  c #4A382C",
"H  c #4B382C",
"J  c #4A392C",
"K  c #4B392C",
"L  c #4B392D",
"P  c #4B3B2E",
"I  c #4C382C",
"U  c #4C392C",
"Y  c #4C392D",
"T  c #4D392D",
"R  c #4C3A2C",
"E  c #4D3A2C",
"W  c #4C3A2D",
"Q  c #4D3A2D",
"!  c #4D3B2D",
"~  c #4E3B2D",
"^  c #4D3A2E",
"/  c #4D3B2E",
"(  c #4E3A2E",
")  c #4E3B2E",
"_  c #4F3B2E",
"`  c #4E3B2F",
"'  c #4E3C2E",
"]  c #4F3C2E",
"[  c #4F3C2F",
"{  c #503B2E",
"}  c #503C2F",
"|  c #513C2F",
" . c #503D2F",
".. c #513D2F",
"X. c #523D2F",
"o. c #4C3C30",
"O. c #4E3C30",
"+. c #4A3D35",
"@. c #4A3E35",
"#. c #4D3F34",
"$. c #4E3F34",
"%. c #4D3F36",
"&. c #513D30",
"*. c #523D30",
"=. c #513E30",
"-. c #523E30",
";. c #533E30",
":. c #523E31",
">. c #533E31",
",. c #533F31",
"<. c #543F31",
"1. c #543F32",
"2. c #4D4036",
"3. c #4E4037",
"4. c #4E4137",
"5. c #4F433A",
"6. c #524033",
"7. c #544031",
"8. c #554031",
"9. c #544032",
"0. c #554032",
"q. c #554132",
"w. c #554033",
"e. c #554133",
"r. c #564132",
"t. c #564033",
"y. c #564133",
"u. c #574133",
"i. c #554233",
"p. c #564233",
"a. c #574233",
"s. c #514237",
"d. c #524337",
"f. c #544134",
"g. c #554134",
"h. c #554234",
"j. c #554235",
"k. c #554335",
"l. c #574234",
"z. c #574334",
"x. c #574437",
"c. c #584233",
"v. c #584234",
"b. c #584334",
"n. c #594334",
"m. c #584335",
"M. c #594335",
"N. c #594434",
"B. c #584435",
"V. c #594435",
"C. c #5A4435",
"Z. c #5B4435",
"A. c #5A4535",
"S. c #5B4535",
"D. c #5A4436",
"F. c #5B4436",
"G. c #5B4536",
"H. c #5C4536",
"J. c #5C4636",
"K. c #5C4637",
"L. c #5D4637",
"P. c #5E4637",
"I. c #514238",
"U. c #514338",
"Y. c #514239",
"T. c #514439",
"R. c #52443A",
"E. c #574538",
"W. c #55463A",
"Q. c #54463B",
"!. c #56463A",
"~. c #57463A",
"^. c #584639",
"/. c #59473A",
"(. c #58473B",
"). c #59473B",
"_. c #5D4638",
"`. c #5E4738",
"'. c #5F4738",
"]. c #5E4739",
"[. c #58473C",
"{. c #57483C",
"}. c #59483B",
"|. c #5B483B",
" X c #5E4838",
".X c #5F4838",
"XX c #5F4839",
"oX c #58483D",
"OX c #59483D",
"+X c #59493D",
"@X c #5A493D",
"#X c #59493E",
"$X c #5A4A3F",
"%X c #5C493C",
"&X c #5C4A3D",
"*X c #5C4A3E",
"=X c #5D4B3E",
"-X c #5E4B3F",
";X c #5E4C3F",
":X c #604839",
">X c #604939",
",X c #624A39",
"<X c #61493A",
"1X c #614A3A",
"2X c #624A3A",
"3X c #634A3A",
"4X c #634B3A",
"5X c #634B3B",
"6X c #644B3A",
"7X c #644B3B",
"8X c #644C3B",
"9X c #644C3C",
"0X c #654C3C",
"qX c #654D3C",
"wX c #664D3C",
"eX c #664D3D",
"rX c #674D3D",
"tX c #664E3C",
"yX c #664E3D",
"uX c #674E3D",
"iX c #674F3D",
"pX c #674E3E",
"aX c #674F3E",
"sX c #684F3D",
"dX c #684F3E",
"fX c #694F3E",
"gX c #68503E",
"hX c #69503E",
"jX c #69503F",
"kX c #6A503E",
"lX c #6A503F",
"zX c #6A513F",
"xX c #544940",
"cX c #574940",
"vX c #5B4A40",
"bX c #5E4C40",
"nX c #6A5040",
"mX c #6B5040",
"MX c #6B5140",
"NX c #6B5240",
"BX c #6C5140",
"VX c #6C5240",
"CX c #6D5240",
"ZX c #6C5241",
"AX c #6D5341",
"SX c #6E5341",
"DX c #6D5342",
"FX c #6E5442",
"GX c #6F5442",
"HX c #6F5542",
"JX c #705543",
"KX c #715543",
/* pixels */
"cX$.d.(.}.}.}.}.}.}.}.}.}.).^.x.E./.}.}.}.}.}.}.}.}.}.}.!.s.#.xX",
"[.] =.l.B.B.B.B.B.B.B.B.B.B.B.B.B.B.b.b.B.B.B.B.B.B.B.B.p.&.W Q.",
"!.E ] 7.e.y.y.p.p.a.p.p.p.p.p.p.p.p.y.e.p.p.p.y.y.y.y.e.,.' A T.",
"%.3 7 0 r t t g U _ _ _ Q U W ~ ) ) ) ) ) ~ T x r a r e e 0 < @.",
"U.B 9 O @ & % % S y.A.H.c.<.t.C.G.D.l.q.b.M.*.q % & # X , x b 4.",
"*Xy.W 1 6 d i 7 Q `.dXVXaX2X0XMXCXMXwX1XyX0Xv.A u d , % b ,.9.{.",
";Xb.[ 7 7 x G n C y.9XAXMXqXjXHXKXGXkX5X9XP.} N N m 7 - K p.m.@X",
"bXm.[ 7 7 l N G N H w.5XuX0XgXGXJXGXdXL.v._ N N N N f p / y.l.OX",
"bXm.[ b Q U b D G N H y.`.1XdXGXJXDX7X;.A n M x x } 0... .y.l.OX",
"bXm.[ _ Z.n.) Z D G N K [ l.qXFXGXfXG.H k M n k Y F.<Xv.-.y.l.OX",
"bXm.} ..,XeXH.! v N G M d Q  XzXdXP.} n N N x T y.5X0XV.-.y.l.OX",
"bXm.} *.6XCXsXn.A k N D l b ,.H.n.] N N M N } C.>XeXqXN.-.y.l.OX",
";Xm.} *.7XSXAX2X,.A x N D N b c g l N N N *..XwXwXuX0Xn.-.y.l.OX",
"-Xm.} *.7XSXFXeX`.y.Q N N G l < * 6 f m *.:XlXMXuXuX0Xn.-.y.l.OX",
"&Xm.} *.7XSXFXuX9X5XF.) x M N j < - 3 Q `.mXGXVXuXuX0Xn.-.y.l.(.",
"|.m.} *.7XSXFXiXyXlX0Xr.d w M V k < 2 ..qXFXGXVXuXuX0Xn.-.y.l.~.",
"%Xm.} *.7XSXFXiXyXzXtXr.7 & y M N k r ) >XVXGXVXuXuX0Xn.-.y.l.[.",
"=Xm.} *.7XSXFXuX0X9XJ.] w > , r N G n A 8.5XBXNXuXuX0Xn.-.y.l.$X",
"bXm.} *.7XSXFXyX.Xc.) N n u 6 w n V D M G r.4XdXyXuX0Xn.-.y.l.vX",
"bXm.} *.7XSXAX4X0.J x N l x Q | Q N N G M Z 1.'.5XyXqXN.-.y.l.$X",
"bXm.} *.7XZXdXC.H k n M d U C.2XG.` N V D M V &.Z.8XqXN.-.y.l.#X",
"bXm.} X.2XrX_.) x n x N I 7.5XVXdXK.) m V G n f ( P.5Xn.-.y.l.OX",
"bXm.} { H.Z.` N N N N *.C.XXaXFXGXdXC.B k V D n N ,.C.9.=.y.l.OX",
"bXm.[ B _ L M N M N *.:XqX8XgXGXJXSX5X&.M n V G N N B A [ y.l.OX",
"bXm.[ 7 7 k M M n &.XXMXlXqXgXGXJXGXpXH.y.^ N N G n 6 - L p.l.OX",
";Xb.} 3 7 l x s ) ].nXGXNXqXgXFXJXGXhX3X5XG.) m V N 8 = K y.z.+X",
"*Xp.) 7 7 h w d r.0XVXAXjX5XyXVXSXVXuX2XuXqXn.H j z w - A 9.i.oX",
"I.N 4 . o # X - Q a.S.H.v.<.y.F.H.F.u.>.l.M.*.0 @ $ +   ; l v 3.",
"2.8 6 7 w e 0 d S ~ ] ] Q U W _ ] ] Q U ! ) R g 0 e 0 0 0 5 : +.",
"W.W ] ,.0.q.0.q.r.y.y.y.y.r.y.y.y.y.y.r.y.y.y.q.0.q.q.9.:.~ A Y.",
"[.] -.a.V.V.V.V.V.V.V.V.V.V.V.V.V.V.V.V.V.V.V.V.V.V.V.b.y.=.^ R.",
"Q.P O.f.h.h.h.h.h.h.h.h.h.h.g.g.g.j.j.j.h.h.h.h.h.h.k.h.6.o.F 5."
};
